<?xml version="1.0" encoding="utf-8" standalone="no"?>
<!DOCTYPE svg PUBLIC "-//W3C//DTD SVG 1.1//EN"
  "http://www.w3.org/Graphics/SVG/1.1/DTD/svg11.dtd">
<svg xmlns:xlink="http://www.w3.org/1999/xlink" width="669.6pt" height="1209.6pt" viewBox="0 0 669.6 1209.6" xmlns="http://www.w3.org/2000/svg" version="1.1">
 <metadata>
  <rdf:RDF xmlns:dc="http://purl.org/dc/elements/1.1/" xmlns:cc="http://creativecommons.org/ns#" xmlns:rdf="http://www.w3.org/1999/02/22-rdf-syntax-ns#">
   <cc:Work>
    <dc:type rdf:resource="http://purl.org/dc/dcmitype/StillImage"/>
    <dc:date>2026-07-22T07:56:44.225469</dc:date>
    <dc:format>image/svg+xml</dc:format>
    <dc:creator>
     <cc:Agent>
      <dc:title>Matplotlib v3.10.9, https://matplotlib.org/</dc:title>
     </cc:Agent>
    </dc:creator>
   </cc:Work>
  </rdf:RDF>
 </metadata>
 <defs>
  <style type="text/css">*{stroke-linejoin: round; stroke-linecap: butt}</style>
 </defs>
 <g id="figure_1">
  <g id="patch_1">
   <path d="M 0 1209.6 
L 669.6 1209.6 
L 669.6 0 
L 0 0 
z
" style="fill: #ffffff"/>
  </g>
  <g id="axes_1">
   <g id="patch_2">
    <path d="M 248.0436 154.091077 
L 426.5676 154.091077 
Q 443.7936 154.091077 443.7936 137.641846 
L 443.7936 137.641846 
Q 443.7936 121.192615 426.5676 121.192615 
L 248.0436 121.192615 
Q 230.8176 121.192615 230.8176 137.641846 
L 230.8176 137.641846 
Q 230.8176 154.091077 248.0436 154.091077 
z
" clip-path="url(#p22fd6a5d43)" style="fill: #e2e8f0"/>
   </g>
   <g id="patch_3">
    <path d="M 148.1328 226.766769 
L 526.4784 226.766769 
Q 537.7536 226.766769 537.7536 216 
L 537.7536 202.840615 
Q 537.7536 192.073846 526.4784 192.073846 
L 148.1328 192.073846 
Q 136.8576 192.073846 136.8576 202.840615 
L 136.8576 216 
Q 136.8576 226.766769 148.1328 226.766769 
z
" clip-path="url(#p22fd6a5d43)" style="fill: #e2e8f0"/>
   </g>
   <g id="patch_4">
    <path d="M 129.3408 298.545231 
L 545.2704 298.545231 
Q 556.5456 298.545231 556.5456 287.778462 
L 556.5456 274.619077 
Q 556.5456 263.852308 545.2704 263.852308 
L 129.3408 263.852308 
Q 118.0656 263.852308 118.0656 274.619077 
L 118.0656 287.778462 
Q 118.0656 298.545231 129.3408 298.545231 
z
" clip-path="url(#p22fd6a5d43)" style="fill: #e2e8f0"/>
   </g>
   <g id="patch_5">
    <path d="M 129.3408 465.131077 
L 545.2704 465.131077 
Q 556.5456 465.131077 556.5456 454.364308 
L 556.5456 359.257846 
Q 556.5456 348.491077 545.2704 348.491077 
L 129.3408 348.491077 
Q 118.0656 348.491077 118.0656 359.257846 
L 118.0656 454.364308 
Q 118.0656 465.131077 129.3408 465.131077 
z
" clip-path="url(#p22fd6a5d43)" style="fill: #e2e8f0"/>
   </g>
   <g id="patch_6">
    <path d="M 148.1328 525.843692 
L 526.4784 525.843692 
Q 537.7536 525.843692 537.7536 515.076923 
L 537.7536 501.917538 
Q 537.7536 491.150769 526.4784 491.150769 
L 148.1328 491.150769 
Q 136.8576 491.150769 136.8576 501.917538 
L 136.8576 515.076923 
Q 136.8576 525.843692 148.1328 525.843692 
z
" clip-path="url(#p22fd6a5d43)" style="fill: #e2e8f0"/>
   </g>
   <g id="patch_7">
    <path d="M 129.3408 599.715692 
L 545.2704 599.715692 
Q 556.5456 599.715692 556.5456 588.948923 
L 556.5456 571.602462 
Q 556.5456 560.835692 545.2704 560.835692 
L 129.3408 560.835692 
Q 118.0656 560.835692 118.0656 571.602462 
L 118.0656 588.948923 
Q 118.0656 599.715692 129.3408 599.715692 
z
" clip-path="url(#p22fd6a5d43)" style="fill: #e2e8f0"/>
   </g>
   <g id="patch_8">
    <path d="M 129.3408 785.143385 
L 545.2704 785.143385 
Q 556.5456 785.143385 556.5456 774.376615 
L 556.5456 661.325538 
Q 556.5456 650.558769 545.2704 650.558769 
L 129.3408 650.558769 
Q 118.0656 650.558769 118.0656 661.325538 
L 118.0656 774.376615 
Q 118.0656 785.143385 129.3408 785.143385 
z
" clip-path="url(#p22fd6a5d43)" style="fill: #e2e8f0"/>
   </g>
   <g id="patch_9">
    <path d="M 148.1328 848.846769 
L 526.4784 848.846769 
Q 537.7536 848.846769 537.7536 838.08 
L 537.7536 824.920615 
Q 537.7536 814.153846 526.4784 814.153846 
L 148.1328 814.153846 
Q 136.8576 814.153846 136.8576 824.920615 
L 136.8576 838.08 
Q 136.8576 848.846769 148.1328 848.846769 
z
" clip-path="url(#p22fd6a5d43)" style="fill: #e2e8f0"/>
   </g>
   <g id="patch_10">
    <path d="M 148.1328 920.625231 
L 526.4784 920.625231 
Q 537.7536 920.625231 537.7536 909.858462 
L 537.7536 896.699077 
Q 537.7536 885.932308 526.4784 885.932308 
L 148.1328 885.932308 
Q 136.8576 885.932308 136.8576 896.699077 
L 136.8576 909.858462 
Q 136.8576 920.625231 148.1328 920.625231 
z
" clip-path="url(#p22fd6a5d43)" style="fill: #e2e8f0"/>
   </g>
   <g id="patch_11">
    <path d="M 129.3408 1108.146462 
L 545.2704 1108.146462 
Q 556.5456 1108.146462 556.5456 1097.379692 
L 556.5456 984.328615 
Q 556.5456 973.561846 545.2704 973.561846 
L 129.3408 973.561846 
Q 118.0656 973.561846 118.0656 984.328615 
L 118.0656 1097.379692 
Q 118.0656 1108.146462 129.3408 1108.146462 
z
" clip-path="url(#p22fd6a5d43)" style="fill: #e2e8f0"/>
   </g>
   <g id="patch_12">
    <path d="M 248.0436 1170.952615 
L 426.5676 1170.952615 
Q 443.7936 1170.952615 443.7936 1154.503385 
L 443.7936 1154.503385 
Q 443.7936 1138.054154 426.5676 1138.054154 
L 248.0436 1138.054154 
Q 230.8176 1138.054154 230.8176 1154.503385 
L 230.8176 1154.503385 
Q 230.8176 1170.952615 248.0436 1170.952615 
z
" clip-path="url(#p22fd6a5d43)" style="fill: #e2e8f0"/>
   </g>
   <g id="patch_13">
    <path d="M 245.538 151.698462 
L 424.062 151.698462 
Q 441.288 151.698462 441.288 135.249231 
L 441.288 135.249231 
Q 441.288 118.8 424.062 118.8 
L 245.538 118.8 
Q 228.312 118.8 228.312 135.249231 
L 228.312 135.249231 
Q 228.312 151.698462 245.538 151.698462 
z
" clip-path="url(#p22fd6a5d43)" style="fill: #1e3a8a; stroke: #1e3a8a; stroke-width: 1.8; stroke-linejoin: miter"/>
   </g>
   <g id="patch_14">
    <path d="M 145.6272 224.374154 
L 523.9728 224.374154 
Q 535.248 224.374154 535.248 213.607385 
L 535.248 200.448 
Q 535.248 189.681231 523.9728 189.681231 
L 145.6272 189.681231 
Q 134.352 189.681231 134.352 200.448 
L 134.352 213.607385 
Q 134.352 224.374154 145.6272 224.374154 
z
" clip-path="url(#p22fd6a5d43)" style="fill: #f8fafc; stroke: #2563eb; stroke-width: 1.6; stroke-linejoin: miter"/>
   </g>
   <g id="patch_15">
    <path d="M 126.8352 296.152615 
L 542.7648 296.152615 
Q 554.04 296.152615 554.04 285.385846 
L 554.04 272.226462 
Q 554.04 261.459692 542.7648 261.459692 
L 126.8352 261.459692 
Q 115.56 261.459692 115.56 272.226462 
L 115.56 285.385846 
Q 115.56 296.152615 126.8352 296.152615 
z
" clip-path="url(#p22fd6a5d43)" style="fill: #f8fafc; stroke: #2563eb; stroke-width: 1.6; stroke-linejoin: miter"/>
   </g>
   <g id="patch_16">
    <path d="M 126.8352 462.738462 
L 542.7648 462.738462 
Q 554.04 462.738462 554.04 451.971692 
L 554.04 356.865231 
Q 554.04 346.098462 542.7648 346.098462 
L 126.8352 346.098462 
Q 115.56 346.098462 115.56 356.865231 
L 115.56 451.971692 
Q 115.56 462.738462 126.8352 462.738462 
z
" clip-path="url(#p22fd6a5d43)" style="fill: #ffffff; stroke: #2563eb; stroke-width: 1.6; stroke-linejoin: miter"/>
   </g>
   <g id="patch_17">
    <path d="M 145.6272 523.451077 
L 523.9728 523.451077 
Q 535.248 523.451077 535.248 512.684308 
L 535.248 499.524923 
Q 535.248 488.758154 523.9728 488.758154 
L 145.6272 488.758154 
Q 134.352 488.758154 134.352 499.524923 
L 134.352 512.684308 
Q 134.352 523.451077 145.6272 523.451077 
z
" clip-path="url(#p22fd6a5d43)" style="fill: #f8fafc; stroke: #2563eb; stroke-width: 1.6; stroke-linejoin: miter"/>
   </g>
   <g id="patch_18">
    <path d="M 126.8352 597.323077 
L 542.7648 597.323077 
Q 554.04 597.323077 554.04 586.556308 
L 554.04 569.209846 
Q 554.04 558.443077 542.7648 558.443077 
L 126.8352 558.443077 
Q 115.56 558.443077 115.56 569.209846 
L 115.56 586.556308 
Q 115.56 597.323077 126.8352 597.323077 
z
" clip-path="url(#p22fd6a5d43)" style="fill: #eff6ff; stroke: #1d4ed8; stroke-width: 2.2; stroke-linejoin: miter"/>
   </g>
   <g id="patch_19">
    <path d="M 126.8352 782.750769 
L 542.7648 782.750769 
Q 554.04 782.750769 554.04 771.984 
L 554.04 658.932923 
Q 554.04 648.166154 542.7648 648.166154 
L 126.8352 648.166154 
Q 115.56 648.166154 115.56 658.932923 
L 115.56 771.984 
Q 115.56 782.750769 126.8352 782.750769 
z
" clip-path="url(#p22fd6a5d43)" style="fill: #ffffff; stroke: #2563eb; stroke-width: 1.6; stroke-linejoin: miter"/>
   </g>
   <g id="patch_20">
    <path d="M 145.6272 846.454154 
L 523.9728 846.454154 
Q 535.248 846.454154 535.248 835.687385 
L 535.248 822.528 
Q 535.248 811.761231 523.9728 811.761231 
L 145.6272 811.761231 
Q 134.352 811.761231 134.352 822.528 
L 134.352 835.687385 
Q 134.352 846.454154 145.6272 846.454154 
z
" clip-path="url(#p22fd6a5d43)" style="fill: #f8fafc; stroke: #2563eb; stroke-width: 1.6; stroke-linejoin: miter"/>
   </g>
   <g id="patch_21">
    <path d="M 145.6272 918.232615 
L 523.9728 918.232615 
Q 535.248 918.232615 535.248 907.465846 
L 535.248 894.306462 
Q 535.248 883.539692 523.9728 883.539692 
L 145.6272 883.539692 
Q 134.352 883.539692 134.352 894.306462 
L 134.352 907.465846 
Q 134.352 918.232615 145.6272 918.232615 
z
" clip-path="url(#p22fd6a5d43)" style="fill: #f8fafc; stroke: #2563eb; stroke-width: 1.6; stroke-linejoin: miter"/>
   </g>
   <g id="patch_22">
    <path d="M 126.8352 1105.753846 
L 542.7648 1105.753846 
Q 554.04 1105.753846 554.04 1094.987077 
L 554.04 981.936 
Q 554.04 971.169231 542.7648 971.169231 
L 126.8352 971.169231 
Q 115.56 971.169231 115.56 981.936 
L 115.56 1094.987077 
Q 115.56 1105.753846 126.8352 1105.753846 
z
" clip-path="url(#p22fd6a5d43)" style="fill: #ffffff; stroke: #2563eb; stroke-width: 1.6; stroke-linejoin: miter"/>
   </g>
   <g id="patch_23">
    <path d="M 245.538 1168.56 
L 424.062 1168.56 
Q 441.288 1168.56 441.288 1152.110769 
L 441.288 1152.110769 
Q 441.288 1135.661538 424.062 1135.661538 
L 245.538 1135.661538 
Q 228.312 1135.661538 228.312 1152.110769 
L 228.312 1152.110769 
Q 228.312 1168.56 245.538 1168.56 
z
" clip-path="url(#p22fd6a5d43)" style="fill: #1e3a8a; stroke: #1e3a8a; stroke-width: 1.8; stroke-linejoin: miter"/>
   </g>
   <g id="text_1">
    <!-- Figure 1 – Crowd Monitoring and AI Prediction Workflow -->
    <g style="fill: #0f172a" transform="translate(97.428516 61.5697) scale(0.15 -0.15)">
     <defs>
      <path id="DejaVuSans-Bold-46" d="M 588 4666 
L 3834 4666 
L 3834 3756 
L 1791 3756 
L 1791 2888 
L 3713 2888 
L 3713 1978 
L 1791 1978 
L 1791 0 
L 588 0 
L 588 4666 
z
" transform="scale(0.015625)"/>
      <path id="DejaVuSans-Bold-69" d="M 538 3500 
L 1656 3500 
L 1656 0 
L 538 0 
L 538 3500 
z
M 538 4863 
L 1656 4863 
L 1656 3950 
L 538 3950 
L 538 4863 
z
" transform="scale(0.015625)"/>
      <path id="DejaVuSans-Bold-67" d="M 2919 594 
Q 2688 288 2409 144 
Q 2131 0 1766 0 
Q 1125 0 706 504 
Q 288 1009 288 1791 
Q 288 2575 706 3076 
Q 1125 3578 1766 3578 
Q 2131 3578 2409 3434 
Q 2688 3291 2919 2981 
L 2919 3500 
L 4044 3500 
L 4044 353 
Q 4044 -491 3511 -936 
Q 2978 -1381 1966 -1381 
Q 1638 -1381 1331 -1331 
Q 1025 -1281 716 -1178 
L 716 -306 
Q 1009 -475 1290 -558 
Q 1572 -641 1856 -641 
Q 2406 -641 2662 -400 
Q 2919 -159 2919 353 
L 2919 594 
z
M 2181 2772 
Q 1834 2772 1640 2515 
Q 1447 2259 1447 1791 
Q 1447 1309 1634 1061 
Q 1822 813 2181 813 
Q 2531 813 2725 1069 
Q 2919 1325 2919 1791 
Q 2919 2259 2725 2515 
Q 2531 2772 2181 2772 
z
" transform="scale(0.015625)"/>
      <path id="DejaVuSans-Bold-75" d="M 500 1363 
L 500 3500 
L 1625 3500 
L 1625 3150 
Q 1625 2866 1622 2436 
Q 1619 2006 1619 1863 
Q 1619 1441 1641 1255 
Q 1663 1069 1716 984 
Q 1784 875 1895 815 
Q 2006 756 2150 756 
Q 2500 756 2700 1025 
Q 2900 1294 2900 1772 
L 2900 3500 
L 4019 3500 
L 4019 0 
L 2900 0 
L 2900 506 
Q 2647 200 2364 54 
Q 2081 -91 1741 -91 
Q 1134 -91 817 281 
Q 500 653 500 1363 
z
" transform="scale(0.015625)"/>
      <path id="DejaVuSans-Bold-72" d="M 3138 2547 
Q 2991 2616 2845 2648 
Q 2700 2681 2553 2681 
Q 2122 2681 1889 2404 
Q 1656 2128 1656 1613 
L 1656 0 
L 538 0 
L 538 3500 
L 1656 3500 
L 1656 2925 
Q 1872 3269 2151 3426 
Q 2431 3584 2822 3584 
Q 2878 3584 2943 3579 
Q 3009 3575 3134 3559 
L 3138 2547 
z
" transform="scale(0.015625)"/>
      <path id="DejaVuSans-Bold-65" d="M 4031 1759 
L 4031 1441 
L 1416 1441 
Q 1456 1047 1700 850 
Q 1944 653 2381 653 
Q 2734 653 3104 758 
Q 3475 863 3866 1075 
L 3866 213 
Q 3469 63 3072 -14 
Q 2675 -91 2278 -91 
Q 1328 -91 801 392 
Q 275 875 275 1747 
Q 275 2603 792 3093 
Q 1309 3584 2216 3584 
Q 3041 3584 3536 3087 
Q 4031 2591 4031 1759 
z
M 2881 2131 
Q 2881 2450 2695 2645 
Q 2509 2841 2209 2841 
Q 1884 2841 1681 2658 
Q 1478 2475 1428 2131 
L 2881 2131 
z
" transform="scale(0.015625)"/>
      <path id="DejaVuSans-Bold-20" transform="scale(0.015625)"/>
      <path id="DejaVuSans-Bold-31" d="M 750 831 
L 1813 831 
L 1813 3847 
L 722 3622 
L 722 4441 
L 1806 4666 
L 2950 4666 
L 2950 831 
L 4013 831 
L 4013 0 
L 750 0 
L 750 831 
z
" transform="scale(0.015625)"/>
      <path id="DejaVuSans-Bold-2013" d="M 344 2156 
L 2856 2156 
L 2856 1350 
L 344 1350 
L 344 2156 
z
" transform="scale(0.015625)"/>
      <path id="DejaVuSans-Bold-43" d="M 4288 256 
Q 3956 84 3597 -3 
Q 3238 -91 2847 -91 
Q 1681 -91 1000 561 
Q 319 1213 319 2328 
Q 319 3447 1000 4098 
Q 1681 4750 2847 4750 
Q 3238 4750 3597 4662 
Q 3956 4575 4288 4403 
L 4288 3438 
Q 3953 3666 3628 3772 
Q 3303 3878 2944 3878 
Q 2300 3878 1931 3465 
Q 1563 3053 1563 2328 
Q 1563 1606 1931 1193 
Q 2300 781 2944 781 
Q 3303 781 3628 887 
Q 3953 994 4288 1222 
L 4288 256 
z
" transform="scale(0.015625)"/>
      <path id="DejaVuSans-Bold-6f" d="M 2203 2784 
Q 1831 2784 1636 2517 
Q 1441 2250 1441 1747 
Q 1441 1244 1636 976 
Q 1831 709 2203 709 
Q 2569 709 2762 976 
Q 2956 1244 2956 1747 
Q 2956 2250 2762 2517 
Q 2569 2784 2203 2784 
z
M 2203 3584 
Q 3106 3584 3614 3096 
Q 4122 2609 4122 1747 
Q 4122 884 3614 396 
Q 3106 -91 2203 -91 
Q 1297 -91 786 396 
Q 275 884 275 1747 
Q 275 2609 786 3096 
Q 1297 3584 2203 3584 
z
" transform="scale(0.015625)"/>
      <path id="DejaVuSans-Bold-77" d="M 225 3500 
L 1313 3500 
L 1900 1088 
L 2491 3500 
L 3425 3500 
L 4013 1113 
L 4603 3500 
L 5691 3500 
L 4769 0 
L 3547 0 
L 2956 2406 
L 2369 0 
L 1147 0 
L 225 3500 
z
" transform="scale(0.015625)"/>
      <path id="DejaVuSans-Bold-64" d="M 2919 2988 
L 2919 4863 
L 4044 4863 
L 4044 0 
L 2919 0 
L 2919 506 
Q 2688 197 2409 53 
Q 2131 -91 1766 -91 
Q 1119 -91 703 423 
Q 288 938 288 1747 
Q 288 2556 703 3070 
Q 1119 3584 1766 3584 
Q 2128 3584 2408 3439 
Q 2688 3294 2919 2988 
z
M 2181 722 
Q 2541 722 2730 984 
Q 2919 1247 2919 1747 
Q 2919 2247 2730 2509 
Q 2541 2772 2181 2772 
Q 1825 2772 1636 2509 
Q 1447 2247 1447 1747 
Q 1447 1247 1636 984 
Q 1825 722 2181 722 
z
" transform="scale(0.015625)"/>
      <path id="DejaVuSans-Bold-4d" d="M 588 4666 
L 2119 4666 
L 3181 2169 
L 4250 4666 
L 5778 4666 
L 5778 0 
L 4641 0 
L 4641 3413 
L 3566 897 
L 2803 897 
L 1728 3413 
L 1728 0 
L 588 0 
L 588 4666 
z
" transform="scale(0.015625)"/>
      <path id="DejaVuSans-Bold-6e" d="M 4056 2131 
L 4056 0 
L 2931 0 
L 2931 347 
L 2931 1631 
Q 2931 2084 2911 2256 
Q 2891 2428 2841 2509 
Q 2775 2619 2662 2680 
Q 2550 2741 2406 2741 
Q 2056 2741 1856 2470 
Q 1656 2200 1656 1722 
L 1656 0 
L 538 0 
L 538 3500 
L 1656 3500 
L 1656 2988 
Q 1909 3294 2193 3439 
Q 2478 3584 2822 3584 
Q 3428 3584 3742 3212 
Q 4056 2841 4056 2131 
z
" transform="scale(0.015625)"/>
      <path id="DejaVuSans-Bold-74" d="M 1759 4494 
L 1759 3500 
L 2913 3500 
L 2913 2700 
L 1759 2700 
L 1759 1216 
Q 1759 972 1856 886 
Q 1953 800 2241 800 
L 2816 800 
L 2816 0 
L 1856 0 
Q 1194 0 917 276 
Q 641 553 641 1216 
L 641 2700 
L 84 2700 
L 84 3500 
L 641 3500 
L 641 4494 
L 1759 4494 
z
" transform="scale(0.015625)"/>
      <path id="DejaVuSans-Bold-61" d="M 2106 1575 
Q 1756 1575 1579 1456 
Q 1403 1338 1403 1106 
Q 1403 894 1545 773 
Q 1688 653 1941 653 
Q 2256 653 2472 879 
Q 2688 1106 2688 1447 
L 2688 1575 
L 2106 1575 
z
M 3816 1997 
L 3816 0 
L 2688 0 
L 2688 519 
Q 2463 200 2181 54 
Q 1900 -91 1497 -91 
Q 953 -91 614 226 
Q 275 544 275 1050 
Q 275 1666 698 1953 
Q 1122 2241 2028 2241 
L 2688 2241 
L 2688 2328 
Q 2688 2594 2478 2717 
Q 2269 2841 1825 2841 
Q 1466 2841 1156 2769 
Q 847 2697 581 2553 
L 581 3406 
Q 941 3494 1303 3539 
Q 1666 3584 2028 3584 
Q 2975 3584 3395 3211 
Q 3816 2838 3816 1997 
z
" transform="scale(0.015625)"/>
      <path id="DejaVuSans-Bold-41" d="M 3419 850 
L 1538 850 
L 1241 0 
L 31 0 
L 1759 4666 
L 3194 4666 
L 4922 0 
L 3713 0 
L 3419 850 
z
M 1838 1716 
L 3116 1716 
L 2478 3572 
L 1838 1716 
z
" transform="scale(0.015625)"/>
      <path id="DejaVuSans-Bold-49" d="M 588 4666 
L 1791 4666 
L 1791 0 
L 588 0 
L 588 4666 
z
" transform="scale(0.015625)"/>
      <path id="DejaVuSans-Bold-50" d="M 588 4666 
L 2584 4666 
Q 3475 4666 3951 4270 
Q 4428 3875 4428 3144 
Q 4428 2409 3951 2014 
Q 3475 1619 2584 1619 
L 1791 1619 
L 1791 0 
L 588 0 
L 588 4666 
z
M 1791 3794 
L 1791 2491 
L 2456 2491 
Q 2806 2491 2997 2661 
Q 3188 2831 3188 3144 
Q 3188 3456 2997 3625 
Q 2806 3794 2456 3794 
L 1791 3794 
z
" transform="scale(0.015625)"/>
      <path id="DejaVuSans-Bold-63" d="M 3366 3391 
L 3366 2478 
Q 3138 2634 2908 2709 
Q 2678 2784 2431 2784 
Q 1963 2784 1702 2511 
Q 1441 2238 1441 1747 
Q 1441 1256 1702 982 
Q 1963 709 2431 709 
Q 2694 709 2930 787 
Q 3166 866 3366 1019 
L 3366 103 
Q 3103 6 2833 -42 
Q 2563 -91 2291 -91 
Q 1344 -91 809 395 
Q 275 881 275 1747 
Q 275 2613 809 3098 
Q 1344 3584 2291 3584 
Q 2566 3584 2833 3536 
Q 3100 3488 3366 3391 
z
" transform="scale(0.015625)"/>
      <path id="DejaVuSans-Bold-57" d="M 191 4666 
L 1344 4666 
L 2150 1275 
L 2950 4666 
L 4109 4666 
L 4909 1275 
L 5716 4666 
L 6859 4666 
L 5759 0 
L 4372 0 
L 3525 3547 
L 2688 0 
L 1300 0 
L 191 4666 
z
" transform="scale(0.015625)"/>
      <path id="DejaVuSans-Bold-6b" d="M 538 4863 
L 1656 4863 
L 1656 2216 
L 2944 3500 
L 4244 3500 
L 2534 1894 
L 4378 0 
L 3022 0 
L 1656 1459 
L 1656 0 
L 538 0 
L 538 4863 
z
" transform="scale(0.015625)"/>
      <path id="DejaVuSans-Bold-66" d="M 2841 4863 
L 2841 4128 
L 2222 4128 
Q 1984 4128 1890 4042 
Q 1797 3956 1797 3744 
L 1797 3500 
L 2753 3500 
L 2753 2700 
L 1797 2700 
L 1797 0 
L 678 0 
L 678 2700 
L 122 2700 
L 122 3500 
L 678 3500 
L 678 3744 
Q 678 4316 997 4589 
Q 1316 4863 1984 4863 
L 2841 4863 
z
" transform="scale(0.015625)"/>
      <path id="DejaVuSans-Bold-6c" d="M 538 4863 
L 1656 4863 
L 1656 0 
L 538 0 
L 538 4863 
z
" transform="scale(0.015625)"/>
     </defs>
     <use xlink:href="#DejaVuSans-Bold-46"/>
     <use xlink:href="#DejaVuSans-Bold-69" transform="translate(68.310547 0)"/>
     <use xlink:href="#DejaVuSans-Bold-67" transform="translate(102.587891 0)"/>
     <use xlink:href="#DejaVuSans-Bold-75" transform="translate(174.169922 0)"/>
     <use xlink:href="#DejaVuSans-Bold-72" transform="translate(245.361328 0)"/>
     <use xlink:href="#DejaVuSans-Bold-65" transform="translate(294.677734 0)"/>
     <use xlink:href="#DejaVuSans-Bold-20" transform="translate(362.5 0)"/>
     <use xlink:href="#DejaVuSans-Bold-31" transform="translate(397.314453 0)"/>
     <use xlink:href="#DejaVuSans-Bold-20" transform="translate(466.894531 0)"/>
     <use xlink:href="#DejaVuSans-Bold-2013" transform="translate(501.708984 0)"/>
     <use xlink:href="#DejaVuSans-Bold-20" transform="translate(551.708984 0)"/>
     <use xlink:href="#DejaVuSans-Bold-43" transform="translate(586.523438 0)"/>
     <use xlink:href="#DejaVuSans-Bold-72" transform="translate(659.912109 0)"/>
     <use xlink:href="#DejaVuSans-Bold-6f" transform="translate(709.228516 0)"/>
     <use xlink:href="#DejaVuSans-Bold-77" transform="translate(777.929688 0)"/>
     <use xlink:href="#DejaVuSans-Bold-64" transform="translate(870.3125 0)"/>
     <use xlink:href="#DejaVuSans-Bold-20" transform="translate(941.894531 0)"/>
     <use xlink:href="#DejaVuSans-Bold-4d" transform="translate(976.708984 0)"/>
     <use xlink:href="#DejaVuSans-Bold-6f" transform="translate(1076.220703 0)"/>
     <use xlink:href="#DejaVuSans-Bold-6e" transform="translate(1144.921875 0)"/>
     <use xlink:href="#DejaVuSans-Bold-69" transform="translate(1216.113281 0)"/>
     <use xlink:href="#DejaVuSans-Bold-74" transform="translate(1250.390625 0)"/>
     <use xlink:href="#DejaVuSans-Bold-6f" transform="translate(1298.193359 0)"/>
     <use xlink:href="#DejaVuSans-Bold-72" transform="translate(1366.894531 0)"/>
     <use xlink:href="#DejaVuSans-Bold-69" transform="translate(1416.210938 0)"/>
     <use xlink:href="#DejaVuSans-Bold-6e" transform="translate(1450.488281 0)"/>
     <use xlink:href="#DejaVuSans-Bold-67" transform="translate(1521.679688 0)"/>
     <use xlink:href="#DejaVuSans-Bold-20" transform="translate(1593.261719 0)"/>
     <use xlink:href="#DejaVuSans-Bold-61" transform="translate(1628.076172 0)"/>
     <use xlink:href="#DejaVuSans-Bold-6e" transform="translate(1695.556641 0)"/>
     <use xlink:href="#DejaVuSans-Bold-64" transform="translate(1766.748047 0)"/>
     <use xlink:href="#DejaVuSans-Bold-20" transform="translate(1838.330078 0)"/>
     <use xlink:href="#DejaVuSans-Bold-41" transform="translate(1873.144531 0)"/>
     <use xlink:href="#DejaVuSans-Bold-49" transform="translate(1950.537109 0)"/>
     <use xlink:href="#DejaVuSans-Bold-20" transform="translate(1987.744141 0)"/>
     <use xlink:href="#DejaVuSans-Bold-50" transform="translate(2022.558594 0)"/>
     <use xlink:href="#DejaVuSans-Bold-72" transform="translate(2095.849609 0)"/>
     <use xlink:href="#DejaVuSans-Bold-65" transform="translate(2145.166016 0)"/>
     <use xlink:href="#DejaVuSans-Bold-64" transform="translate(2212.988281 0)"/>
     <use xlink:href="#DejaVuSans-Bold-69" transform="translate(2284.570312 0)"/>
     <use xlink:href="#DejaVuSans-Bold-63" transform="translate(2318.847656 0)"/>
     <use xlink:href="#DejaVuSans-Bold-74" transform="translate(2378.125 0)"/>
     <use xlink:href="#DejaVuSans-Bold-69" transform="translate(2425.927734 0)"/>
     <use xlink:href="#DejaVuSans-Bold-6f" transform="translate(2460.205078 0)"/>
     <use xlink:href="#DejaVuSans-Bold-6e" transform="translate(2528.90625 0)"/>
     <use xlink:href="#DejaVuSans-Bold-20" transform="translate(2600.097656 0)"/>
     <use xlink:href="#DejaVuSans-Bold-57" transform="translate(2634.912109 0)"/>
     <use xlink:href="#DejaVuSans-Bold-6f" transform="translate(2741.589844 0)"/>
     <use xlink:href="#DejaVuSans-Bold-72" transform="translate(2810.291016 0)"/>
     <use xlink:href="#DejaVuSans-Bold-6b" transform="translate(2859.607422 0)"/>
     <use xlink:href="#DejaVuSans-Bold-66" transform="translate(2926.111328 0)"/>
     <use xlink:href="#DejaVuSans-Bold-6c" transform="translate(2969.617188 0)"/>
     <use xlink:href="#DejaVuSans-Bold-6f" transform="translate(3003.894531 0)"/>
     <use xlink:href="#DejaVuSans-Bold-77" transform="translate(3072.595703 0)"/>
    </g>
   </g>
   <g id="text_2">
    <!-- Project: CrowdShield AI • System Flowchart -->
    <g style="fill: #475569" transform="translate(198.680156 83.211421) scale(0.11 -0.11)">
     <defs>
      <path id="DejaVuSans-Bold-6a" d="M 538 3500 
L 1656 3500 
L 1656 63 
Q 1656 -641 1318 -1011 
Q 981 -1381 341 -1381 
L -213 -1381 
L -213 -647 
L -19 -647 
Q 300 -647 419 -503 
Q 538 -359 538 63 
L 538 3500 
z
M 538 4863 
L 1656 4863 
L 1656 3950 
L 538 3950 
L 538 4863 
z
" transform="scale(0.015625)"/>
      <path id="DejaVuSans-Bold-3a" d="M 716 3500 
L 1844 3500 
L 1844 2291 
L 716 2291 
L 716 3500 
z
M 716 1209 
L 1844 1209 
L 1844 0 
L 716 0 
L 716 1209 
z
" transform="scale(0.015625)"/>
      <path id="DejaVuSans-Bold-53" d="M 3834 4519 
L 3834 3531 
Q 3450 3703 3084 3790 
Q 2719 3878 2394 3878 
Q 1963 3878 1756 3759 
Q 1550 3641 1550 3391 
Q 1550 3203 1689 3098 
Q 1828 2994 2194 2919 
L 2706 2816 
Q 3484 2659 3812 2340 
Q 4141 2022 4141 1434 
Q 4141 663 3683 286 
Q 3225 -91 2284 -91 
Q 1841 -91 1394 -6 
Q 947 78 500 244 
L 500 1259 
Q 947 1022 1364 901 
Q 1781 781 2169 781 
Q 2563 781 2772 912 
Q 2981 1044 2981 1288 
Q 2981 1506 2839 1625 
Q 2697 1744 2272 1838 
L 1806 1941 
Q 1106 2091 782 2419 
Q 459 2747 459 3303 
Q 459 4000 909 4375 
Q 1359 4750 2203 4750 
Q 2588 4750 2994 4692 
Q 3400 4634 3834 4519 
z
" transform="scale(0.015625)"/>
      <path id="DejaVuSans-Bold-68" d="M 4056 2131 
L 4056 0 
L 2931 0 
L 2931 347 
L 2931 1625 
Q 2931 2084 2911 2256 
Q 2891 2428 2841 2509 
Q 2775 2619 2662 2680 
Q 2550 2741 2406 2741 
Q 2056 2741 1856 2470 
Q 1656 2200 1656 1722 
L 1656 0 
L 538 0 
L 538 4863 
L 1656 4863 
L 1656 2988 
Q 1909 3294 2193 3439 
Q 2478 3584 2822 3584 
Q 3428 3584 3742 3212 
Q 4056 2841 4056 2131 
z
" transform="scale(0.015625)"/>
      <path id="DejaVuSans-Bold-2022" d="M 922 2381 
Q 922 2613 1005 2816 
Q 1088 3019 1247 3175 
Q 1413 3334 1616 3417 
Q 1819 3500 2047 3500 
Q 2275 3500 2479 3415 
Q 2684 3331 2841 3175 
Q 3003 3013 3086 2811 
Q 3169 2609 3169 2381 
Q 3169 2150 3084 1945 
Q 3000 1741 2841 1581 
Q 2681 1422 2476 1337 
Q 2272 1253 2041 1253 
Q 1813 1253 1609 1337 
Q 1406 1422 1247 1581 
Q 1091 1741 1006 1945 
Q 922 2150 922 2381 
z
" transform="scale(0.015625)"/>
      <path id="DejaVuSans-Bold-79" d="M 78 3500 
L 1197 3500 
L 2138 1125 
L 2938 3500 
L 4056 3500 
L 2584 -331 
Q 2363 -916 2067 -1148 
Q 1772 -1381 1288 -1381 
L 641 -1381 
L 641 -647 
L 991 -647 
Q 1275 -647 1404 -556 
Q 1534 -466 1606 -231 
L 1638 -134 
L 78 3500 
z
" transform="scale(0.015625)"/>
      <path id="DejaVuSans-Bold-73" d="M 3272 3391 
L 3272 2541 
Q 2913 2691 2578 2766 
Q 2244 2841 1947 2841 
Q 1628 2841 1473 2761 
Q 1319 2681 1319 2516 
Q 1319 2381 1436 2309 
Q 1553 2238 1856 2203 
L 2053 2175 
Q 2913 2066 3209 1816 
Q 3506 1566 3506 1031 
Q 3506 472 3093 190 
Q 2681 -91 1863 -91 
Q 1516 -91 1145 -36 
Q 775 19 384 128 
L 384 978 
Q 719 816 1070 734 
Q 1422 653 1784 653 
Q 2113 653 2278 743 
Q 2444 834 2444 1013 
Q 2444 1163 2330 1236 
Q 2216 1309 1875 1350 
L 1678 1375 
Q 931 1469 631 1722 
Q 331 1975 331 2491 
Q 331 3047 712 3315 
Q 1094 3584 1881 3584 
Q 2191 3584 2531 3537 
Q 2872 3491 3272 3391 
z
" transform="scale(0.015625)"/>
      <path id="DejaVuSans-Bold-6d" d="M 3781 2919 
Q 3994 3244 4286 3414 
Q 4578 3584 4928 3584 
Q 5531 3584 5847 3212 
Q 6163 2841 6163 2131 
L 6163 0 
L 5038 0 
L 5038 1825 
Q 5041 1866 5042 1909 
Q 5044 1953 5044 2034 
Q 5044 2406 4934 2573 
Q 4825 2741 4581 2741 
Q 4263 2741 4089 2478 
Q 3916 2216 3909 1719 
L 3909 0 
L 2784 0 
L 2784 1825 
Q 2784 2406 2684 2573 
Q 2584 2741 2328 2741 
Q 2006 2741 1831 2477 
Q 1656 2213 1656 1722 
L 1656 0 
L 531 0 
L 531 3500 
L 1656 3500 
L 1656 2988 
Q 1863 3284 2130 3434 
Q 2397 3584 2719 3584 
Q 3081 3584 3359 3409 
Q 3638 3234 3781 2919 
z
" transform="scale(0.015625)"/>
     </defs>
     <use xlink:href="#DejaVuSans-Bold-50"/>
     <use xlink:href="#DejaVuSans-Bold-72" transform="translate(73.291016 0)"/>
     <use xlink:href="#DejaVuSans-Bold-6f" transform="translate(122.607422 0)"/>
     <use xlink:href="#DejaVuSans-Bold-6a" transform="translate(191.308594 0)"/>
     <use xlink:href="#DejaVuSans-Bold-65" transform="translate(225.585938 0)"/>
     <use xlink:href="#DejaVuSans-Bold-63" transform="translate(293.408203 0)"/>
     <use xlink:href="#DejaVuSans-Bold-74" transform="translate(352.685547 0)"/>
     <use xlink:href="#DejaVuSans-Bold-3a" transform="translate(400.488281 0)"/>
     <use xlink:href="#DejaVuSans-Bold-20" transform="translate(440.478516 0)"/>
     <use xlink:href="#DejaVuSans-Bold-43" transform="translate(475.292969 0)"/>
     <use xlink:href="#DejaVuSans-Bold-72" transform="translate(548.681641 0)"/>
     <use xlink:href="#DejaVuSans-Bold-6f" transform="translate(597.998047 0)"/>
     <use xlink:href="#DejaVuSans-Bold-77" transform="translate(666.699219 0)"/>
     <use xlink:href="#DejaVuSans-Bold-64" transform="translate(759.082031 0)"/>
     <use xlink:href="#DejaVuSans-Bold-53" transform="translate(830.664062 0)"/>
     <use xlink:href="#DejaVuSans-Bold-68" transform="translate(902.685547 0)"/>
     <use xlink:href="#DejaVuSans-Bold-69" transform="translate(973.876953 0)"/>
     <use xlink:href="#DejaVuSans-Bold-65" transform="translate(1008.154297 0)"/>
     <use xlink:href="#DejaVuSans-Bold-6c" transform="translate(1075.976562 0)"/>
     <use xlink:href="#DejaVuSans-Bold-64" transform="translate(1110.253906 0)"/>
     <use xlink:href="#DejaVuSans-Bold-20" transform="translate(1181.835938 0)"/>
     <use xlink:href="#DejaVuSans-Bold-41" transform="translate(1216.650391 0)"/>
     <use xlink:href="#DejaVuSans-Bold-49" transform="translate(1294.042969 0)"/>
     <use xlink:href="#DejaVuSans-Bold-20" transform="translate(1331.25 0)"/>
     <use xlink:href="#DejaVuSans-Bold-2022" transform="translate(1366.064453 0)"/>
     <use xlink:href="#DejaVuSans-Bold-20" transform="translate(1429.980469 0)"/>
     <use xlink:href="#DejaVuSans-Bold-53" transform="translate(1464.794922 0)"/>
     <use xlink:href="#DejaVuSans-Bold-79" transform="translate(1536.816406 0)"/>
     <use xlink:href="#DejaVuSans-Bold-73" transform="translate(1602.001953 0)"/>
     <use xlink:href="#DejaVuSans-Bold-74" transform="translate(1661.523438 0)"/>
     <use xlink:href="#DejaVuSans-Bold-65" transform="translate(1709.326172 0)"/>
     <use xlink:href="#DejaVuSans-Bold-6d" transform="translate(1777.148438 0)"/>
     <use xlink:href="#DejaVuSans-Bold-20" transform="translate(1881.347656 0)"/>
     <use xlink:href="#DejaVuSans-Bold-46" transform="translate(1916.162109 0)"/>
     <use xlink:href="#DejaVuSans-Bold-6c" transform="translate(1984.472656 0)"/>
     <use xlink:href="#DejaVuSans-Bold-6f" transform="translate(2018.75 0)"/>
     <use xlink:href="#DejaVuSans-Bold-77" transform="translate(2087.451172 0)"/>
     <use xlink:href="#DejaVuSans-Bold-63" transform="translate(2179.833984 0)"/>
     <use xlink:href="#DejaVuSans-Bold-68" transform="translate(2239.111328 0)"/>
     <use xlink:href="#DejaVuSans-Bold-61" transform="translate(2310.302734 0)"/>
     <use xlink:href="#DejaVuSans-Bold-72" transform="translate(2377.783203 0)"/>
     <use xlink:href="#DejaVuSans-Bold-74" transform="translate(2427.099609 0)"/>
    </g>
   </g>
   <g id="text_3">
    <!-- START -->
    <g style="fill: #ffffff" transform="translate(313.764375 138.560481) scale(0.12 -0.12)">
     <defs>
      <path id="DejaVuSans-Bold-54" d="M 31 4666 
L 4331 4666 
L 4331 3756 
L 2784 3756 
L 2784 0 
L 1581 0 
L 1581 3756 
L 31 3756 
L 31 4666 
z
" transform="scale(0.015625)"/>
      <path id="DejaVuSans-Bold-52" d="M 2297 2597 
Q 2675 2597 2839 2737 
Q 3003 2878 3003 3200 
Q 3003 3519 2839 3656 
Q 2675 3794 2297 3794 
L 1791 3794 
L 1791 2597 
L 2297 2597 
z
M 1791 1766 
L 1791 0 
L 588 0 
L 588 4666 
L 2425 4666 
Q 3347 4666 3776 4356 
Q 4206 4047 4206 3378 
Q 4206 2916 3982 2619 
Q 3759 2322 3309 2181 
Q 3556 2125 3751 1926 
Q 3947 1728 4147 1325 
L 4800 0 
L 3519 0 
L 2950 1159 
Q 2778 1509 2601 1637 
Q 2425 1766 2131 1766 
L 1791 1766 
z
" transform="scale(0.015625)"/>
     </defs>
     <use xlink:href="#DejaVuSans-Bold-53"/>
     <use xlink:href="#DejaVuSans-Bold-54" transform="translate(72.021484 0)"/>
     <use xlink:href="#DejaVuSans-Bold-41" transform="translate(132.484375 0)"/>
     <use xlink:href="#DejaVuSans-Bold-52" transform="translate(209.876953 0)"/>
     <use xlink:href="#DejaVuSans-Bold-54" transform="translate(282.378906 0)"/>
    </g>
   </g>
   <g id="text_4">
    <!-- Event Organizer Starts Simulation -->
    <g style="fill: #0f172a" transform="translate(228.743672 210.020036) scale(0.11 -0.11)">
     <defs>
      <path id="DejaVuSans-Bold-45" d="M 588 4666 
L 3834 4666 
L 3834 3756 
L 1791 3756 
L 1791 2888 
L 3713 2888 
L 3713 1978 
L 1791 1978 
L 1791 909 
L 3903 909 
L 3903 0 
L 588 0 
L 588 4666 
z
" transform="scale(0.015625)"/>
      <path id="DejaVuSans-Bold-76" d="M 97 3500 
L 1216 3500 
L 2088 1081 
L 2956 3500 
L 4078 3500 
L 2700 0 
L 1472 0 
L 97 3500 
z
" transform="scale(0.015625)"/>
      <path id="DejaVuSans-Bold-4f" d="M 2719 3878 
Q 2169 3878 1866 3472 
Q 1563 3066 1563 2328 
Q 1563 1594 1866 1187 
Q 2169 781 2719 781 
Q 3272 781 3575 1187 
Q 3878 1594 3878 2328 
Q 3878 3066 3575 3472 
Q 3272 3878 2719 3878 
z
M 2719 4750 
Q 3844 4750 4481 4106 
Q 5119 3463 5119 2328 
Q 5119 1197 4481 553 
Q 3844 -91 2719 -91 
Q 1597 -91 958 553 
Q 319 1197 319 2328 
Q 319 3463 958 4106 
Q 1597 4750 2719 4750 
z
" transform="scale(0.015625)"/>
      <path id="DejaVuSans-Bold-7a" d="M 366 3500 
L 3419 3500 
L 3419 2719 
L 1575 800 
L 3419 800 
L 3419 0 
L 288 0 
L 288 781 
L 2131 2700 
L 366 2700 
L 366 3500 
z
" transform="scale(0.015625)"/>
     </defs>
     <use xlink:href="#DejaVuSans-Bold-45"/>
     <use xlink:href="#DejaVuSans-Bold-76" transform="translate(68.310547 0)"/>
     <use xlink:href="#DejaVuSans-Bold-65" transform="translate(133.496094 0)"/>
     <use xlink:href="#DejaVuSans-Bold-6e" transform="translate(201.318359 0)"/>
     <use xlink:href="#DejaVuSans-Bold-74" transform="translate(272.509766 0)"/>
     <use xlink:href="#DejaVuSans-Bold-20" transform="translate(320.3125 0)"/>
     <use xlink:href="#DejaVuSans-Bold-4f" transform="translate(355.126953 0)"/>
     <use xlink:href="#DejaVuSans-Bold-72" transform="translate(440.136719 0)"/>
     <use xlink:href="#DejaVuSans-Bold-67" transform="translate(489.453125 0)"/>
     <use xlink:href="#DejaVuSans-Bold-61" transform="translate(561.035156 0)"/>
     <use xlink:href="#DejaVuSans-Bold-6e" transform="translate(628.515625 0)"/>
     <use xlink:href="#DejaVuSans-Bold-69" transform="translate(699.707031 0)"/>
     <use xlink:href="#DejaVuSans-Bold-7a" transform="translate(733.984375 0)"/>
     <use xlink:href="#DejaVuSans-Bold-65" transform="translate(792.1875 0)"/>
     <use xlink:href="#DejaVuSans-Bold-72" transform="translate(860.009766 0)"/>
     <use xlink:href="#DejaVuSans-Bold-20" transform="translate(909.326172 0)"/>
     <use xlink:href="#DejaVuSans-Bold-53" transform="translate(944.140625 0)"/>
     <use xlink:href="#DejaVuSans-Bold-74" transform="translate(1016.162109 0)"/>
     <use xlink:href="#DejaVuSans-Bold-61" transform="translate(1063.964844 0)"/>
     <use xlink:href="#DejaVuSans-Bold-72" transform="translate(1131.445312 0)"/>
     <use xlink:href="#DejaVuSans-Bold-74" transform="translate(1180.761719 0)"/>
     <use xlink:href="#DejaVuSans-Bold-73" transform="translate(1228.564453 0)"/>
     <use xlink:href="#DejaVuSans-Bold-20" transform="translate(1288.085938 0)"/>
     <use xlink:href="#DejaVuSans-Bold-53" transform="translate(1322.900391 0)"/>
     <use xlink:href="#DejaVuSans-Bold-69" transform="translate(1394.921875 0)"/>
     <use xlink:href="#DejaVuSans-Bold-6d" transform="translate(1429.199219 0)"/>
     <use xlink:href="#DejaVuSans-Bold-75" transform="translate(1533.398438 0)"/>
     <use xlink:href="#DejaVuSans-Bold-6c" transform="translate(1604.589844 0)"/>
     <use xlink:href="#DejaVuSans-Bold-61" transform="translate(1638.867188 0)"/>
     <use xlink:href="#DejaVuSans-Bold-74" transform="translate(1706.347656 0)"/>
     <use xlink:href="#DejaVuSans-Bold-69" transform="translate(1754.150391 0)"/>
     <use xlink:href="#DejaVuSans-Bold-6f" transform="translate(1788.427734 0)"/>
     <use xlink:href="#DejaVuSans-Bold-6e" transform="translate(1857.128906 0)"/>
    </g>
   </g>
   <g id="text_5">
    <!-- Simulation Engine Generates Live Crowd Data -->
    <g style="fill: #0f172a" transform="translate(191.971016 281.798498) scale(0.11 -0.11)">
     <defs>
      <path id="DejaVuSans-Bold-47" d="M 4781 347 
Q 4331 128 3847 18 
Q 3363 -91 2847 -91 
Q 1681 -91 1000 561 
Q 319 1213 319 2328 
Q 319 3456 1012 4103 
Q 1706 4750 2913 4750 
Q 3378 4750 3804 4662 
Q 4231 4575 4609 4403 
L 4609 3438 
Q 4219 3659 3833 3768 
Q 3447 3878 3059 3878 
Q 2341 3878 1952 3476 
Q 1563 3075 1563 2328 
Q 1563 1588 1938 1184 
Q 2313 781 3003 781 
Q 3191 781 3352 804 
Q 3513 828 3641 878 
L 3641 1784 
L 2906 1784 
L 2906 2591 
L 4781 2591 
L 4781 347 
z
" transform="scale(0.015625)"/>
      <path id="DejaVuSans-Bold-4c" d="M 588 4666 
L 1791 4666 
L 1791 909 
L 3903 909 
L 3903 0 
L 588 0 
L 588 4666 
z
" transform="scale(0.015625)"/>
      <path id="DejaVuSans-Bold-44" d="M 1791 3756 
L 1791 909 
L 2222 909 
Q 2959 909 3348 1275 
Q 3738 1641 3738 2338 
Q 3738 3031 3350 3393 
Q 2963 3756 2222 3756 
L 1791 3756 
z
M 588 4666 
L 1856 4666 
Q 2919 4666 3439 4514 
Q 3959 4363 4331 4000 
Q 4659 3684 4818 3271 
Q 4978 2859 4978 2338 
Q 4978 1809 4818 1395 
Q 4659 981 4331 666 
Q 3956 303 3431 151 
Q 2906 0 1856 0 
L 588 0 
L 588 4666 
z
" transform="scale(0.015625)"/>
     </defs>
     <use xlink:href="#DejaVuSans-Bold-53"/>
     <use xlink:href="#DejaVuSans-Bold-69" transform="translate(72.021484 0)"/>
     <use xlink:href="#DejaVuSans-Bold-6d" transform="translate(106.298828 0)"/>
     <use xlink:href="#DejaVuSans-Bold-75" transform="translate(210.498047 0)"/>
     <use xlink:href="#DejaVuSans-Bold-6c" transform="translate(281.689453 0)"/>
     <use xlink:href="#DejaVuSans-Bold-61" transform="translate(315.966797 0)"/>
     <use xlink:href="#DejaVuSans-Bold-74" transform="translate(383.447266 0)"/>
     <use xlink:href="#DejaVuSans-Bold-69" transform="translate(431.25 0)"/>
     <use xlink:href="#DejaVuSans-Bold-6f" transform="translate(465.527344 0)"/>
     <use xlink:href="#DejaVuSans-Bold-6e" transform="translate(534.228516 0)"/>
     <use xlink:href="#DejaVuSans-Bold-20" transform="translate(605.419922 0)"/>
     <use xlink:href="#DejaVuSans-Bold-45" transform="translate(640.234375 0)"/>
     <use xlink:href="#DejaVuSans-Bold-6e" transform="translate(708.544922 0)"/>
     <use xlink:href="#DejaVuSans-Bold-67" transform="translate(779.736328 0)"/>
     <use xlink:href="#DejaVuSans-Bold-69" transform="translate(851.318359 0)"/>
     <use xlink:href="#DejaVuSans-Bold-6e" transform="translate(885.595703 0)"/>
     <use xlink:href="#DejaVuSans-Bold-65" transform="translate(956.787109 0)"/>
     <use xlink:href="#DejaVuSans-Bold-20" transform="translate(1024.609375 0)"/>
     <use xlink:href="#DejaVuSans-Bold-47" transform="translate(1059.423828 0)"/>
     <use xlink:href="#DejaVuSans-Bold-65" transform="translate(1141.503906 0)"/>
     <use xlink:href="#DejaVuSans-Bold-6e" transform="translate(1209.326172 0)"/>
     <use xlink:href="#DejaVuSans-Bold-65" transform="translate(1280.517578 0)"/>
     <use xlink:href="#DejaVuSans-Bold-72" transform="translate(1348.339844 0)"/>
     <use xlink:href="#DejaVuSans-Bold-61" transform="translate(1397.65625 0)"/>
     <use xlink:href="#DejaVuSans-Bold-74" transform="translate(1465.136719 0)"/>
     <use xlink:href="#DejaVuSans-Bold-65" transform="translate(1512.939453 0)"/>
     <use xlink:href="#DejaVuSans-Bold-73" transform="translate(1580.761719 0)"/>
     <use xlink:href="#DejaVuSans-Bold-20" transform="translate(1640.283203 0)"/>
     <use xlink:href="#DejaVuSans-Bold-4c" transform="translate(1675.097656 0)"/>
     <use xlink:href="#DejaVuSans-Bold-69" transform="translate(1738.818359 0)"/>
     <use xlink:href="#DejaVuSans-Bold-76" transform="translate(1773.095703 0)"/>
     <use xlink:href="#DejaVuSans-Bold-65" transform="translate(1838.28125 0)"/>
     <use xlink:href="#DejaVuSans-Bold-20" transform="translate(1906.103516 0)"/>
     <use xlink:href="#DejaVuSans-Bold-43" transform="translate(1940.917969 0)"/>
     <use xlink:href="#DejaVuSans-Bold-72" transform="translate(2014.306641 0)"/>
     <use xlink:href="#DejaVuSans-Bold-6f" transform="translate(2063.623047 0)"/>
     <use xlink:href="#DejaVuSans-Bold-77" transform="translate(2132.324219 0)"/>
     <use xlink:href="#DejaVuSans-Bold-64" transform="translate(2224.707031 0)"/>
     <use xlink:href="#DejaVuSans-Bold-20" transform="translate(2296.289062 0)"/>
     <use xlink:href="#DejaVuSans-Bold-44" transform="translate(2331.103516 0)"/>
     <use xlink:href="#DejaVuSans-Bold-61" transform="translate(2414.111328 0)"/>
     <use xlink:href="#DejaVuSans-Bold-74" transform="translate(2481.591797 0)"/>
     <use xlink:href="#DejaVuSans-Bold-61" transform="translate(2529.394531 0)"/>
    </g>
   </g>
   <g id="patch_24">
    <path d="M 135.6048 378.398769 
L 533.9952 378.398769 
Q 541.512 378.398769 541.512 371.220923 
L 541.512 360.454154 
Q 541.512 353.276308 533.9952 353.276308 
L 135.6048 353.276308 
Q 128.088 353.276308 128.088 360.454154 
L 128.088 371.220923 
Q 128.088 378.398769 135.6048 378.398769 
z
" clip-path="url(#p22fd6a5d43)" style="fill: #dbeafe"/>
   </g>
   <g id="text_6">
    <!-- Preprocess Data -->
    <g style="fill: #0f172a" transform="translate(283.827891 509.139928) scale(0.11 -0.11)">
     <defs>
      <path id="DejaVuSans-Bold-70" d="M 1656 506 
L 1656 -1331 
L 538 -1331 
L 538 3500 
L 1656 3500 
L 1656 2988 
Q 1888 3294 2169 3439 
Q 2450 3584 2816 3584 
Q 3463 3584 3878 3070 
Q 4294 2556 4294 1747 
Q 4294 938 3878 423 
Q 3463 -91 2816 -91 
Q 2450 -91 2169 54 
Q 1888 200 1656 506 
z
M 2400 2772 
Q 2041 2772 1848 2508 
Q 1656 2244 1656 1747 
Q 1656 1250 1848 986 
Q 2041 722 2400 722 
Q 2759 722 2948 984 
Q 3138 1247 3138 1747 
Q 3138 2247 2948 2509 
Q 2759 2772 2400 2772 
z
" transform="scale(0.015625)"/>
     </defs>
     <use xlink:href="#DejaVuSans-Bold-50"/>
     <use xlink:href="#DejaVuSans-Bold-72" transform="translate(73.291016 0)"/>
     <use xlink:href="#DejaVuSans-Bold-65" transform="translate(122.607422 0)"/>
     <use xlink:href="#DejaVuSans-Bold-70" transform="translate(190.429688 0)"/>
     <use xlink:href="#DejaVuSans-Bold-72" transform="translate(262.011719 0)"/>
     <use xlink:href="#DejaVuSans-Bold-6f" transform="translate(311.328125 0)"/>
     <use xlink:href="#DejaVuSans-Bold-63" transform="translate(380.029297 0)"/>
     <use xlink:href="#DejaVuSans-Bold-65" transform="translate(439.306641 0)"/>
     <use xlink:href="#DejaVuSans-Bold-73" transform="translate(507.128906 0)"/>
     <use xlink:href="#DejaVuSans-Bold-73" transform="translate(566.650391 0)"/>
     <use xlink:href="#DejaVuSans-Bold-20" transform="translate(626.171875 0)"/>
     <use xlink:href="#DejaVuSans-Bold-44" transform="translate(660.986328 0)"/>
     <use xlink:href="#DejaVuSans-Bold-61" transform="translate(743.994141 0)"/>
     <use xlink:href="#DejaVuSans-Bold-74" transform="translate(811.474609 0)"/>
     <use xlink:href="#DejaVuSans-Bold-61" transform="translate(859.277344 0)"/>
    </g>
   </g>
   <g id="text_7">
    <!-- Machine Learning Prediction Engine -->
    <g style="fill: #1e3a8a" transform="translate(217.86207 581.011436) scale(0.115 -0.115)">
     <use xlink:href="#DejaVuSans-Bold-4d"/>
     <use xlink:href="#DejaVuSans-Bold-61" transform="translate(99.511719 0)"/>
     <use xlink:href="#DejaVuSans-Bold-63" transform="translate(166.992188 0)"/>
     <use xlink:href="#DejaVuSans-Bold-68" transform="translate(226.269531 0)"/>
     <use xlink:href="#DejaVuSans-Bold-69" transform="translate(297.460938 0)"/>
     <use xlink:href="#DejaVuSans-Bold-6e" transform="translate(331.738281 0)"/>
     <use xlink:href="#DejaVuSans-Bold-65" transform="translate(402.929688 0)"/>
     <use xlink:href="#DejaVuSans-Bold-20" transform="translate(470.751953 0)"/>
     <use xlink:href="#DejaVuSans-Bold-4c" transform="translate(505.566406 0)"/>
     <use xlink:href="#DejaVuSans-Bold-65" transform="translate(569.287109 0)"/>
     <use xlink:href="#DejaVuSans-Bold-61" transform="translate(637.109375 0)"/>
     <use xlink:href="#DejaVuSans-Bold-72" transform="translate(704.589844 0)"/>
     <use xlink:href="#DejaVuSans-Bold-6e" transform="translate(753.90625 0)"/>
     <use xlink:href="#DejaVuSans-Bold-69" transform="translate(825.097656 0)"/>
     <use xlink:href="#DejaVuSans-Bold-6e" transform="translate(859.375 0)"/>
     <use xlink:href="#DejaVuSans-Bold-67" transform="translate(930.566406 0)"/>
     <use xlink:href="#DejaVuSans-Bold-20" transform="translate(1002.148438 0)"/>
     <use xlink:href="#DejaVuSans-Bold-50" transform="translate(1036.962891 0)"/>
     <use xlink:href="#DejaVuSans-Bold-72" transform="translate(1110.253906 0)"/>
     <use xlink:href="#DejaVuSans-Bold-65" transform="translate(1159.570312 0)"/>
     <use xlink:href="#DejaVuSans-Bold-64" transform="translate(1227.392578 0)"/>
     <use xlink:href="#DejaVuSans-Bold-69" transform="translate(1298.974609 0)"/>
     <use xlink:href="#DejaVuSans-Bold-63" transform="translate(1333.251953 0)"/>
     <use xlink:href="#DejaVuSans-Bold-74" transform="translate(1392.529297 0)"/>
     <use xlink:href="#DejaVuSans-Bold-69" transform="translate(1440.332031 0)"/>
     <use xlink:href="#DejaVuSans-Bold-6f" transform="translate(1474.609375 0)"/>
     <use xlink:href="#DejaVuSans-Bold-6e" transform="translate(1543.310547 0)"/>
     <use xlink:href="#DejaVuSans-Bold-20" transform="translate(1614.501953 0)"/>
     <use xlink:href="#DejaVuSans-Bold-45" transform="translate(1649.316406 0)"/>
     <use xlink:href="#DejaVuSans-Bold-6e" transform="translate(1717.626953 0)"/>
     <use xlink:href="#DejaVuSans-Bold-67" transform="translate(1788.818359 0)"/>
     <use xlink:href="#DejaVuSans-Bold-69" transform="translate(1860.400391 0)"/>
     <use xlink:href="#DejaVuSans-Bold-6e" transform="translate(1894.677734 0)"/>
     <use xlink:href="#DejaVuSans-Bold-65" transform="translate(1965.869141 0)"/>
    </g>
   </g>
   <g id="patch_25">
    <path d="M 135.6048 680.466462 
L 533.9952 680.466462 
Q 541.512 680.466462 541.512 673.288615 
L 541.512 662.521846 
Q 541.512 655.344 533.9952 655.344 
L 135.6048 655.344 
Q 128.088 655.344 128.088 662.521846 
L 128.088 673.288615 
Q 128.088 680.466462 135.6048 680.466462 
z
" clip-path="url(#p22fd6a5d43)" style="fill: #dbeafe"/>
   </g>
   <g id="text_8">
    <!-- Store Results in Database -->
    <g style="fill: #0f172a" transform="translate(254.231875 832.143005) scale(0.11 -0.11)">
     <defs>
      <path id="DejaVuSans-Bold-62" d="M 2400 722 
Q 2759 722 2948 984 
Q 3138 1247 3138 1747 
Q 3138 2247 2948 2509 
Q 2759 2772 2400 2772 
Q 2041 2772 1848 2508 
Q 1656 2244 1656 1747 
Q 1656 1250 1848 986 
Q 2041 722 2400 722 
z
M 1656 2988 
Q 1888 3294 2169 3439 
Q 2450 3584 2816 3584 
Q 3463 3584 3878 3070 
Q 4294 2556 4294 1747 
Q 4294 938 3878 423 
Q 3463 -91 2816 -91 
Q 2450 -91 2169 54 
Q 1888 200 1656 506 
L 1656 0 
L 538 0 
L 538 4863 
L 1656 4863 
L 1656 2988 
z
" transform="scale(0.015625)"/>
     </defs>
     <use xlink:href="#DejaVuSans-Bold-53"/>
     <use xlink:href="#DejaVuSans-Bold-74" transform="translate(72.021484 0)"/>
     <use xlink:href="#DejaVuSans-Bold-6f" transform="translate(119.824219 0)"/>
     <use xlink:href="#DejaVuSans-Bold-72" transform="translate(188.525391 0)"/>
     <use xlink:href="#DejaVuSans-Bold-65" transform="translate(237.841797 0)"/>
     <use xlink:href="#DejaVuSans-Bold-20" transform="translate(305.664062 0)"/>
     <use xlink:href="#DejaVuSans-Bold-52" transform="translate(340.478516 0)"/>
     <use xlink:href="#DejaVuSans-Bold-65" transform="translate(417.480469 0)"/>
     <use xlink:href="#DejaVuSans-Bold-73" transform="translate(485.302734 0)"/>
     <use xlink:href="#DejaVuSans-Bold-75" transform="translate(544.824219 0)"/>
     <use xlink:href="#DejaVuSans-Bold-6c" transform="translate(616.015625 0)"/>
     <use xlink:href="#DejaVuSans-Bold-74" transform="translate(650.292969 0)"/>
     <use xlink:href="#DejaVuSans-Bold-73" transform="translate(698.095703 0)"/>
     <use xlink:href="#DejaVuSans-Bold-20" transform="translate(757.617188 0)"/>
     <use xlink:href="#DejaVuSans-Bold-69" transform="translate(792.431641 0)"/>
     <use xlink:href="#DejaVuSans-Bold-6e" transform="translate(826.708984 0)"/>
     <use xlink:href="#DejaVuSans-Bold-20" transform="translate(897.900391 0)"/>
     <use xlink:href="#DejaVuSans-Bold-44" transform="translate(932.714844 0)"/>
     <use xlink:href="#DejaVuSans-Bold-61" transform="translate(1015.722656 0)"/>
     <use xlink:href="#DejaVuSans-Bold-74" transform="translate(1083.203125 0)"/>
     <use xlink:href="#DejaVuSans-Bold-61" transform="translate(1131.005859 0)"/>
     <use xlink:href="#DejaVuSans-Bold-62" transform="translate(1198.486328 0)"/>
     <use xlink:href="#DejaVuSans-Bold-61" transform="translate(1270.068359 0)"/>
     <use xlink:href="#DejaVuSans-Bold-73" transform="translate(1337.548828 0)"/>
     <use xlink:href="#DejaVuSans-Bold-65" transform="translate(1397.070312 0)"/>
    </g>
   </g>
   <g id="text_9">
    <!-- Update Dashboard -->
    <g style="fill: #0f172a" transform="translate(276.932266 903.921466) scale(0.11 -0.11)">
     <defs>
      <path id="DejaVuSans-Bold-55" d="M 588 4666 
L 1791 4666 
L 1791 1869 
Q 1791 1291 1980 1042 
Q 2169 794 2597 794 
Q 3028 794 3217 1042 
Q 3406 1291 3406 1869 
L 3406 4666 
L 4609 4666 
L 4609 1869 
Q 4609 878 4112 393 
Q 3616 -91 2597 -91 
Q 1581 -91 1084 393 
Q 588 878 588 1869 
L 588 4666 
z
" transform="scale(0.015625)"/>
     </defs>
     <use xlink:href="#DejaVuSans-Bold-55"/>
     <use xlink:href="#DejaVuSans-Bold-70" transform="translate(81.201172 0)"/>
     <use xlink:href="#DejaVuSans-Bold-64" transform="translate(152.783203 0)"/>
     <use xlink:href="#DejaVuSans-Bold-61" transform="translate(224.365234 0)"/>
     <use xlink:href="#DejaVuSans-Bold-74" transform="translate(291.845703 0)"/>
     <use xlink:href="#DejaVuSans-Bold-65" transform="translate(339.648438 0)"/>
     <use xlink:href="#DejaVuSans-Bold-20" transform="translate(407.470703 0)"/>
     <use xlink:href="#DejaVuSans-Bold-44" transform="translate(442.285156 0)"/>
     <use xlink:href="#DejaVuSans-Bold-61" transform="translate(525.292969 0)"/>
     <use xlink:href="#DejaVuSans-Bold-73" transform="translate(592.773438 0)"/>
     <use xlink:href="#DejaVuSans-Bold-68" transform="translate(652.294922 0)"/>
     <use xlink:href="#DejaVuSans-Bold-62" transform="translate(723.486328 0)"/>
     <use xlink:href="#DejaVuSans-Bold-6f" transform="translate(795.068359 0)"/>
     <use xlink:href="#DejaVuSans-Bold-61" transform="translate(863.769531 0)"/>
     <use xlink:href="#DejaVuSans-Bold-72" transform="translate(931.25 0)"/>
     <use xlink:href="#DejaVuSans-Bold-64" transform="translate(980.566406 0)"/>
    </g>
   </g>
   <g id="patch_26">
    <path d="M 135.6048 1003.469538 
L 533.9952 1003.469538 
Q 541.512 1003.469538 541.512 996.291692 
L 541.512 985.524923 
Q 541.512 978.347077 533.9952 978.347077 
L 135.6048 978.347077 
Q 128.088 978.347077 128.088 985.524923 
L 128.088 996.291692 
Q 128.088 1003.469538 135.6048 1003.469538 
z
" clip-path="url(#p22fd6a5d43)" style="fill: #dbeafe"/>
   </g>
   <g id="text_10">
    <!-- END -->
    <g style="fill: #ffffff" transform="translate(320.699062 1155.422019) scale(0.12 -0.12)">
     <defs>
      <path id="DejaVuSans-Bold-4e" d="M 588 4666 
L 1931 4666 
L 3628 1466 
L 3628 4666 
L 4769 4666 
L 4769 0 
L 3425 0 
L 1728 3200 
L 1728 0 
L 588 0 
L 588 4666 
z
" transform="scale(0.015625)"/>
     </defs>
     <use xlink:href="#DejaVuSans-Bold-45"/>
     <use xlink:href="#DejaVuSans-Bold-4e" transform="translate(68.310547 0)"/>
     <use xlink:href="#DejaVuSans-Bold-44" transform="translate(152.001953 0)"/>
    </g>
   </g>
   <g id="text_11">
    <!-- Collect Gate Metrics -->
    <g style="fill: #1e3a8a" transform="translate(272.215156 368.872851) scale(0.11 -0.11)">
     <use xlink:href="#DejaVuSans-Bold-43"/>
     <use xlink:href="#DejaVuSans-Bold-6f" transform="translate(73.388672 0)"/>
     <use xlink:href="#DejaVuSans-Bold-6c" transform="translate(142.089844 0)"/>
     <use xlink:href="#DejaVuSans-Bold-6c" transform="translate(176.367188 0)"/>
     <use xlink:href="#DejaVuSans-Bold-65" transform="translate(210.644531 0)"/>
     <use xlink:href="#DejaVuSans-Bold-63" transform="translate(278.466797 0)"/>
     <use xlink:href="#DejaVuSans-Bold-74" transform="translate(337.744141 0)"/>
     <use xlink:href="#DejaVuSans-Bold-20" transform="translate(385.546875 0)"/>
     <use xlink:href="#DejaVuSans-Bold-47" transform="translate(420.361328 0)"/>
     <use xlink:href="#DejaVuSans-Bold-61" transform="translate(502.441406 0)"/>
     <use xlink:href="#DejaVuSans-Bold-74" transform="translate(569.921875 0)"/>
     <use xlink:href="#DejaVuSans-Bold-65" transform="translate(617.724609 0)"/>
     <use xlink:href="#DejaVuSans-Bold-20" transform="translate(685.546875 0)"/>
     <use xlink:href="#DejaVuSans-Bold-4d" transform="translate(720.361328 0)"/>
     <use xlink:href="#DejaVuSans-Bold-65" transform="translate(819.873047 0)"/>
     <use xlink:href="#DejaVuSans-Bold-74" transform="translate(887.695312 0)"/>
     <use xlink:href="#DejaVuSans-Bold-72" transform="translate(935.498047 0)"/>
     <use xlink:href="#DejaVuSans-Bold-69" transform="translate(984.814453 0)"/>
     <use xlink:href="#DejaVuSans-Bold-63" transform="translate(1019.091797 0)"/>
     <use xlink:href="#DejaVuSans-Bold-73" transform="translate(1078.369141 0)"/>
    </g>
   </g>
   <g id="text_12">
    <!-- • Occupancy -->
    <g style="fill: #334155" transform="translate(153.144 397.851264) scale(0.098 -0.098)">
     <defs>
      <path id="DejaVuSans-2022" d="M 959 2381 
Q 959 2769 1229 3036 
Q 1500 3303 1894 3303 
Q 2281 3303 2548 3036 
Q 2816 2769 2816 2381 
Q 2816 1991 2547 1722 
Q 2278 1453 1888 1453 
Q 1497 1453 1228 1722 
Q 959 1991 959 2381 
z
" transform="scale(0.015625)"/>
      <path id="DejaVuSans-20" transform="scale(0.015625)"/>
      <path id="DejaVuSans-4f" d="M 2522 4238 
Q 1834 4238 1429 3725 
Q 1025 3213 1025 2328 
Q 1025 1447 1429 934 
Q 1834 422 2522 422 
Q 3209 422 3611 934 
Q 4013 1447 4013 2328 
Q 4013 3213 3611 3725 
Q 3209 4238 2522 4238 
z
M 2522 4750 
Q 3503 4750 4090 4092 
Q 4678 3434 4678 2328 
Q 4678 1225 4090 567 
Q 3503 -91 2522 -91 
Q 1538 -91 948 565 
Q 359 1222 359 2328 
Q 359 3434 948 4092 
Q 1538 4750 2522 4750 
z
" transform="scale(0.015625)"/>
      <path id="DejaVuSans-63" d="M 3122 3366 
L 3122 2828 
Q 2878 2963 2633 3030 
Q 2388 3097 2138 3097 
Q 1578 3097 1268 2742 
Q 959 2388 959 1747 
Q 959 1106 1268 751 
Q 1578 397 2138 397 
Q 2388 397 2633 464 
Q 2878 531 3122 666 
L 3122 134 
Q 2881 22 2623 -34 
Q 2366 -91 2075 -91 
Q 1284 -91 818 406 
Q 353 903 353 1747 
Q 353 2603 823 3093 
Q 1294 3584 2113 3584 
Q 2378 3584 2631 3529 
Q 2884 3475 3122 3366 
z
" transform="scale(0.015625)"/>
      <path id="DejaVuSans-75" d="M 544 1381 
L 544 3500 
L 1119 3500 
L 1119 1403 
Q 1119 906 1312 657 
Q 1506 409 1894 409 
Q 2359 409 2629 706 
Q 2900 1003 2900 1516 
L 2900 3500 
L 3475 3500 
L 3475 0 
L 2900 0 
L 2900 538 
Q 2691 219 2414 64 
Q 2138 -91 1772 -91 
Q 1169 -91 856 284 
Q 544 659 544 1381 
z
M 1991 3584 
L 1991 3584 
z
" transform="scale(0.015625)"/>
      <path id="DejaVuSans-70" d="M 1159 525 
L 1159 -1331 
L 581 -1331 
L 581 3500 
L 1159 3500 
L 1159 2969 
Q 1341 3281 1617 3432 
Q 1894 3584 2278 3584 
Q 2916 3584 3314 3078 
Q 3713 2572 3713 1747 
Q 3713 922 3314 415 
Q 2916 -91 2278 -91 
Q 1894 -91 1617 61 
Q 1341 213 1159 525 
z
M 3116 1747 
Q 3116 2381 2855 2742 
Q 2594 3103 2138 3103 
Q 1681 3103 1420 2742 
Q 1159 2381 1159 1747 
Q 1159 1113 1420 752 
Q 1681 391 2138 391 
Q 2594 391 2855 752 
Q 3116 1113 3116 1747 
z
" transform="scale(0.015625)"/>
      <path id="DejaVuSans-61" d="M 2194 1759 
Q 1497 1759 1228 1600 
Q 959 1441 959 1056 
Q 959 750 1161 570 
Q 1363 391 1709 391 
Q 2188 391 2477 730 
Q 2766 1069 2766 1631 
L 2766 1759 
L 2194 1759 
z
M 3341 1997 
L 3341 0 
L 2766 0 
L 2766 531 
Q 2569 213 2275 61 
Q 1981 -91 1556 -91 
Q 1019 -91 701 211 
Q 384 513 384 1019 
Q 384 1609 779 1909 
Q 1175 2209 1959 2209 
L 2766 2209 
L 2766 2266 
Q 2766 2663 2505 2880 
Q 2244 3097 1772 3097 
Q 1472 3097 1187 3025 
Q 903 2953 641 2809 
L 641 3341 
Q 956 3463 1253 3523 
Q 1550 3584 1831 3584 
Q 2591 3584 2966 3190 
Q 3341 2797 3341 1997 
z
" transform="scale(0.015625)"/>
      <path id="DejaVuSans-6e" d="M 3513 2113 
L 3513 0 
L 2938 0 
L 2938 2094 
Q 2938 2591 2744 2837 
Q 2550 3084 2163 3084 
Q 1697 3084 1428 2787 
Q 1159 2491 1159 1978 
L 1159 0 
L 581 0 
L 581 3500 
L 1159 3500 
L 1159 2956 
Q 1366 3272 1645 3428 
Q 1925 3584 2291 3584 
Q 2894 3584 3203 3211 
Q 3513 2838 3513 2113 
z
" transform="scale(0.015625)"/>
      <path id="DejaVuSans-79" d="M 2059 -325 
Q 1816 -950 1584 -1140 
Q 1353 -1331 966 -1331 
L 506 -1331 
L 506 -850 
L 844 -850 
Q 1081 -850 1212 -737 
Q 1344 -625 1503 -206 
L 1606 56 
L 191 3500 
L 800 3500 
L 1894 763 
L 2988 3500 
L 3597 3500 
L 2059 -325 
z
" transform="scale(0.015625)"/>
     </defs>
     <use xlink:href="#DejaVuSans-2022"/>
     <use xlink:href="#DejaVuSans-20" transform="translate(58.984375 0)"/>
     <use xlink:href="#DejaVuSans-4f" transform="translate(90.771484 0)"/>
     <use xlink:href="#DejaVuSans-63" transform="translate(169.482422 0)"/>
     <use xlink:href="#DejaVuSans-63" transform="translate(224.462891 0)"/>
     <use xlink:href="#DejaVuSans-75" transform="translate(279.443359 0)"/>
     <use xlink:href="#DejaVuSans-70" transform="translate(342.822266 0)"/>
     <use xlink:href="#DejaVuSans-61" transform="translate(406.298828 0)"/>
     <use xlink:href="#DejaVuSans-6e" transform="translate(467.578125 0)"/>
     <use xlink:href="#DejaVuSans-63" transform="translate(530.957031 0)"/>
     <use xlink:href="#DejaVuSans-79" transform="translate(585.9375 0)"/>
    </g>
   </g>
   <g id="text_13">
    <!-- • Queue Length -->
    <g style="fill: #334155" transform="translate(153.144 416.394034) scale(0.098 -0.098)">
     <defs>
      <path id="DejaVuSans-51" d="M 2522 4238 
Q 1834 4238 1429 3725 
Q 1025 3213 1025 2328 
Q 1025 1447 1429 934 
Q 1834 422 2522 422 
Q 3209 422 3611 934 
Q 4013 1447 4013 2328 
Q 4013 3213 3611 3725 
Q 3209 4238 2522 4238 
z
M 3406 84 
L 4238 -825 
L 3475 -825 
L 2784 -78 
Q 2681 -84 2626 -87 
Q 2572 -91 2522 -91 
Q 1538 -91 948 567 
Q 359 1225 359 2328 
Q 359 3434 948 4092 
Q 1538 4750 2522 4750 
Q 3503 4750 4090 4092 
Q 4678 3434 4678 2328 
Q 4678 1516 4351 937 
Q 4025 359 3406 84 
z
" transform="scale(0.015625)"/>
      <path id="DejaVuSans-65" d="M 3597 1894 
L 3597 1613 
L 953 1613 
Q 991 1019 1311 708 
Q 1631 397 2203 397 
Q 2534 397 2845 478 
Q 3156 559 3463 722 
L 3463 178 
Q 3153 47 2828 -22 
Q 2503 -91 2169 -91 
Q 1331 -91 842 396 
Q 353 884 353 1716 
Q 353 2575 817 3079 
Q 1281 3584 2069 3584 
Q 2775 3584 3186 3129 
Q 3597 2675 3597 1894 
z
M 3022 2063 
Q 3016 2534 2758 2815 
Q 2500 3097 2075 3097 
Q 1594 3097 1305 2825 
Q 1016 2553 972 2059 
L 3022 2063 
z
" transform="scale(0.015625)"/>
      <path id="DejaVuSans-4c" d="M 628 4666 
L 1259 4666 
L 1259 531 
L 3531 531 
L 3531 0 
L 628 0 
L 628 4666 
z
" transform="scale(0.015625)"/>
      <path id="DejaVuSans-67" d="M 2906 1791 
Q 2906 2416 2648 2759 
Q 2391 3103 1925 3103 
Q 1463 3103 1205 2759 
Q 947 2416 947 1791 
Q 947 1169 1205 825 
Q 1463 481 1925 481 
Q 2391 481 2648 825 
Q 2906 1169 2906 1791 
z
M 3481 434 
Q 3481 -459 3084 -895 
Q 2688 -1331 1869 -1331 
Q 1566 -1331 1297 -1286 
Q 1028 -1241 775 -1147 
L 775 -588 
Q 1028 -725 1275 -790 
Q 1522 -856 1778 -856 
Q 2344 -856 2625 -561 
Q 2906 -266 2906 331 
L 2906 616 
Q 2728 306 2450 153 
Q 2172 0 1784 0 
Q 1141 0 747 490 
Q 353 981 353 1791 
Q 353 2603 747 3093 
Q 1141 3584 1784 3584 
Q 2172 3584 2450 3431 
Q 2728 3278 2906 2969 
L 2906 3500 
L 3481 3500 
L 3481 434 
z
" transform="scale(0.015625)"/>
      <path id="DejaVuSans-74" d="M 1172 4494 
L 1172 3500 
L 2356 3500 
L 2356 3053 
L 1172 3053 
L 1172 1153 
Q 1172 725 1289 603 
Q 1406 481 1766 481 
L 2356 481 
L 2356 0 
L 1766 0 
Q 1100 0 847 248 
Q 594 497 594 1153 
L 594 3053 
L 172 3053 
L 172 3500 
L 594 3500 
L 594 4494 
L 1172 4494 
z
" transform="scale(0.015625)"/>
      <path id="DejaVuSans-68" d="M 3513 2113 
L 3513 0 
L 2938 0 
L 2938 2094 
Q 2938 2591 2744 2837 
Q 2550 3084 2163 3084 
Q 1697 3084 1428 2787 
Q 1159 2491 1159 1978 
L 1159 0 
L 581 0 
L 581 4863 
L 1159 4863 
L 1159 2956 
Q 1366 3272 1645 3428 
Q 1925 3584 2291 3584 
Q 2894 3584 3203 3211 
Q 3513 2838 3513 2113 
z
" transform="scale(0.015625)"/>
     </defs>
     <use xlink:href="#DejaVuSans-2022"/>
     <use xlink:href="#DejaVuSans-20" transform="translate(58.984375 0)"/>
     <use xlink:href="#DejaVuSans-51" transform="translate(90.771484 0)"/>
     <use xlink:href="#DejaVuSans-75" transform="translate(169.482422 0)"/>
     <use xlink:href="#DejaVuSans-65" transform="translate(232.861328 0)"/>
     <use xlink:href="#DejaVuSans-75" transform="translate(294.384766 0)"/>
     <use xlink:href="#DejaVuSans-65" transform="translate(357.763672 0)"/>
     <use xlink:href="#DejaVuSans-20" transform="translate(419.287109 0)"/>
     <use xlink:href="#DejaVuSans-4c" transform="translate(451.074219 0)"/>
     <use xlink:href="#DejaVuSans-65" transform="translate(505.037109 0)"/>
     <use xlink:href="#DejaVuSans-6e" transform="translate(566.560547 0)"/>
     <use xlink:href="#DejaVuSans-67" transform="translate(629.939453 0)"/>
     <use xlink:href="#DejaVuSans-74" transform="translate(693.416016 0)"/>
     <use xlink:href="#DejaVuSans-68" transform="translate(732.625 0)"/>
    </g>
   </g>
   <g id="text_14">
    <!-- • Crowd Movement -->
    <g style="fill: #334155" transform="translate(153.144 434.936803) scale(0.098 -0.098)">
     <defs>
      <path id="DejaVuSans-43" d="M 4122 4306 
L 4122 3641 
Q 3803 3938 3442 4084 
Q 3081 4231 2675 4231 
Q 1875 4231 1450 3742 
Q 1025 3253 1025 2328 
Q 1025 1406 1450 917 
Q 1875 428 2675 428 
Q 3081 428 3442 575 
Q 3803 722 4122 1019 
L 4122 359 
Q 3791 134 3420 21 
Q 3050 -91 2638 -91 
Q 1578 -91 968 557 
Q 359 1206 359 2328 
Q 359 3453 968 4101 
Q 1578 4750 2638 4750 
Q 3056 4750 3426 4639 
Q 3797 4528 4122 4306 
z
" transform="scale(0.015625)"/>
      <path id="DejaVuSans-72" d="M 2631 2963 
Q 2534 3019 2420 3045 
Q 2306 3072 2169 3072 
Q 1681 3072 1420 2755 
Q 1159 2438 1159 1844 
L 1159 0 
L 581 0 
L 581 3500 
L 1159 3500 
L 1159 2956 
Q 1341 3275 1631 3429 
Q 1922 3584 2338 3584 
Q 2397 3584 2469 3576 
Q 2541 3569 2628 3553 
L 2631 2963 
z
" transform="scale(0.015625)"/>
      <path id="DejaVuSans-6f" d="M 1959 3097 
Q 1497 3097 1228 2736 
Q 959 2375 959 1747 
Q 959 1119 1226 758 
Q 1494 397 1959 397 
Q 2419 397 2687 759 
Q 2956 1122 2956 1747 
Q 2956 2369 2687 2733 
Q 2419 3097 1959 3097 
z
M 1959 3584 
Q 2709 3584 3137 3096 
Q 3566 2609 3566 1747 
Q 3566 888 3137 398 
Q 2709 -91 1959 -91 
Q 1206 -91 779 398 
Q 353 888 353 1747 
Q 353 2609 779 3096 
Q 1206 3584 1959 3584 
z
" transform="scale(0.015625)"/>
      <path id="DejaVuSans-77" d="M 269 3500 
L 844 3500 
L 1563 769 
L 2278 3500 
L 2956 3500 
L 3675 769 
L 4391 3500 
L 4966 3500 
L 4050 0 
L 3372 0 
L 2619 2869 
L 1863 0 
L 1184 0 
L 269 3500 
z
" transform="scale(0.015625)"/>
      <path id="DejaVuSans-64" d="M 2906 2969 
L 2906 4863 
L 3481 4863 
L 3481 0 
L 2906 0 
L 2906 525 
Q 2725 213 2448 61 
Q 2172 -91 1784 -91 
Q 1150 -91 751 415 
Q 353 922 353 1747 
Q 353 2572 751 3078 
Q 1150 3584 1784 3584 
Q 2172 3584 2448 3432 
Q 2725 3281 2906 2969 
z
M 947 1747 
Q 947 1113 1208 752 
Q 1469 391 1925 391 
Q 2381 391 2643 752 
Q 2906 1113 2906 1747 
Q 2906 2381 2643 2742 
Q 2381 3103 1925 3103 
Q 1469 3103 1208 2742 
Q 947 2381 947 1747 
z
" transform="scale(0.015625)"/>
      <path id="DejaVuSans-4d" d="M 628 4666 
L 1569 4666 
L 2759 1491 
L 3956 4666 
L 4897 4666 
L 4897 0 
L 4281 0 
L 4281 4097 
L 3078 897 
L 2444 897 
L 1241 4097 
L 1241 0 
L 628 0 
L 628 4666 
z
" transform="scale(0.015625)"/>
      <path id="DejaVuSans-76" d="M 191 3500 
L 800 3500 
L 1894 563 
L 2988 3500 
L 3597 3500 
L 2284 0 
L 1503 0 
L 191 3500 
z
" transform="scale(0.015625)"/>
      <path id="DejaVuSans-6d" d="M 3328 2828 
Q 3544 3216 3844 3400 
Q 4144 3584 4550 3584 
Q 5097 3584 5394 3201 
Q 5691 2819 5691 2113 
L 5691 0 
L 5113 0 
L 5113 2094 
Q 5113 2597 4934 2840 
Q 4756 3084 4391 3084 
Q 3944 3084 3684 2787 
Q 3425 2491 3425 1978 
L 3425 0 
L 2847 0 
L 2847 2094 
Q 2847 2600 2669 2842 
Q 2491 3084 2119 3084 
Q 1678 3084 1418 2786 
Q 1159 2488 1159 1978 
L 1159 0 
L 581 0 
L 581 3500 
L 1159 3500 
L 1159 2956 
Q 1356 3278 1631 3431 
Q 1906 3584 2284 3584 
Q 2666 3584 2933 3390 
Q 3200 3197 3328 2828 
z
" transform="scale(0.015625)"/>
     </defs>
     <use xlink:href="#DejaVuSans-2022"/>
     <use xlink:href="#DejaVuSans-20" transform="translate(58.984375 0)"/>
     <use xlink:href="#DejaVuSans-43" transform="translate(90.771484 0)"/>
     <use xlink:href="#DejaVuSans-72" transform="translate(160.595703 0)"/>
     <use xlink:href="#DejaVuSans-6f" transform="translate(199.458984 0)"/>
     <use xlink:href="#DejaVuSans-77" transform="translate(260.640625 0)"/>
     <use xlink:href="#DejaVuSans-64" transform="translate(342.427734 0)"/>
     <use xlink:href="#DejaVuSans-20" transform="translate(405.904297 0)"/>
     <use xlink:href="#DejaVuSans-4d" transform="translate(437.691406 0)"/>
     <use xlink:href="#DejaVuSans-6f" transform="translate(523.970703 0)"/>
     <use xlink:href="#DejaVuSans-76" transform="translate(585.152344 0)"/>
     <use xlink:href="#DejaVuSans-65" transform="translate(644.332031 0)"/>
     <use xlink:href="#DejaVuSans-6d" transform="translate(705.855469 0)"/>
     <use xlink:href="#DejaVuSans-65" transform="translate(803.267578 0)"/>
     <use xlink:href="#DejaVuSans-6e" transform="translate(864.791016 0)"/>
     <use xlink:href="#DejaVuSans-74" transform="translate(928.169922 0)"/>
    </g>
   </g>
   <g id="text_15">
    <!-- • Volunteer Availability -->
    <g style="fill: #334155" transform="translate(153.144 453.479572) scale(0.098 -0.098)">
     <defs>
      <path id="DejaVuSans-56" d="M 1831 0 
L 50 4666 
L 709 4666 
L 2188 738 
L 3669 4666 
L 4325 4666 
L 2547 0 
L 1831 0 
z
" transform="scale(0.015625)"/>
      <path id="DejaVuSans-6c" d="M 603 4863 
L 1178 4863 
L 1178 0 
L 603 0 
L 603 4863 
z
" transform="scale(0.015625)"/>
      <path id="DejaVuSans-41" d="M 2188 4044 
L 1331 1722 
L 3047 1722 
L 2188 4044 
z
M 1831 4666 
L 2547 4666 
L 4325 0 
L 3669 0 
L 3244 1197 
L 1141 1197 
L 716 0 
L 50 0 
L 1831 4666 
z
" transform="scale(0.015625)"/>
      <path id="DejaVuSans-69" d="M 603 3500 
L 1178 3500 
L 1178 0 
L 603 0 
L 603 3500 
z
M 603 4863 
L 1178 4863 
L 1178 4134 
L 603 4134 
L 603 4863 
z
" transform="scale(0.015625)"/>
      <path id="DejaVuSans-62" d="M 3116 1747 
Q 3116 2381 2855 2742 
Q 2594 3103 2138 3103 
Q 1681 3103 1420 2742 
Q 1159 2381 1159 1747 
Q 1159 1113 1420 752 
Q 1681 391 2138 391 
Q 2594 391 2855 752 
Q 3116 1113 3116 1747 
z
M 1159 2969 
Q 1341 3281 1617 3432 
Q 1894 3584 2278 3584 
Q 2916 3584 3314 3078 
Q 3713 2572 3713 1747 
Q 3713 922 3314 415 
Q 2916 -91 2278 -91 
Q 1894 -91 1617 61 
Q 1341 213 1159 525 
L 1159 0 
L 581 0 
L 581 4863 
L 1159 4863 
L 1159 2969 
z
" transform="scale(0.015625)"/>
     </defs>
     <use xlink:href="#DejaVuSans-2022"/>
     <use xlink:href="#DejaVuSans-20" transform="translate(58.984375 0)"/>
     <use xlink:href="#DejaVuSans-56" transform="translate(90.771484 0)"/>
     <use xlink:href="#DejaVuSans-6f" transform="translate(151.429688 0)"/>
     <use xlink:href="#DejaVuSans-6c" transform="translate(212.611328 0)"/>
     <use xlink:href="#DejaVuSans-75" transform="translate(240.394531 0)"/>
     <use xlink:href="#DejaVuSans-6e" transform="translate(303.773438 0)"/>
     <use xlink:href="#DejaVuSans-74" transform="translate(367.152344 0)"/>
     <use xlink:href="#DejaVuSans-65" transform="translate(406.361328 0)"/>
     <use xlink:href="#DejaVuSans-65" transform="translate(467.884766 0)"/>
     <use xlink:href="#DejaVuSans-72" transform="translate(529.408203 0)"/>
     <use xlink:href="#DejaVuSans-20" transform="translate(570.521484 0)"/>
     <use xlink:href="#DejaVuSans-41" transform="translate(602.308594 0)"/>
     <use xlink:href="#DejaVuSans-76" transform="translate(664.841797 0)"/>
     <use xlink:href="#DejaVuSans-61" transform="translate(724.021484 0)"/>
     <use xlink:href="#DejaVuSans-69" transform="translate(785.300781 0)"/>
     <use xlink:href="#DejaVuSans-6c" transform="translate(813.083984 0)"/>
     <use xlink:href="#DejaVuSans-61" transform="translate(840.867188 0)"/>
     <use xlink:href="#DejaVuSans-62" transform="translate(902.146484 0)"/>
     <use xlink:href="#DejaVuSans-69" transform="translate(965.623047 0)"/>
     <use xlink:href="#DejaVuSans-6c" transform="translate(993.40625 0)"/>
     <use xlink:href="#DejaVuSans-69" transform="translate(1021.189453 0)"/>
     <use xlink:href="#DejaVuSans-74" transform="translate(1048.972656 0)"/>
     <use xlink:href="#DejaVuSans-79" transform="translate(1088.181641 0)"/>
    </g>
   </g>
   <g id="text_16">
    <!-- Predict -->
    <g style="fill: #1e3a8a" transform="translate(312.614375 670.940543) scale(0.11 -0.11)">
     <use xlink:href="#DejaVuSans-Bold-50"/>
     <use xlink:href="#DejaVuSans-Bold-72" transform="translate(73.291016 0)"/>
     <use xlink:href="#DejaVuSans-Bold-65" transform="translate(122.607422 0)"/>
     <use xlink:href="#DejaVuSans-Bold-64" transform="translate(190.429688 0)"/>
     <use xlink:href="#DejaVuSans-Bold-69" transform="translate(262.011719 0)"/>
     <use xlink:href="#DejaVuSans-Bold-63" transform="translate(296.289062 0)"/>
     <use xlink:href="#DejaVuSans-Bold-74" transform="translate(355.566406 0)"/>
    </g>
   </g>
   <g id="text_17">
    <!-- • Waiting Time -->
    <g style="fill: #334155" transform="translate(153.144 699.918957) scale(0.098 -0.098)">
     <defs>
      <path id="DejaVuSans-57" d="M 213 4666 
L 850 4666 
L 1831 722 
L 2809 4666 
L 3519 4666 
L 4500 722 
L 5478 4666 
L 6119 4666 
L 4947 0 
L 4153 0 
L 3169 4050 
L 2175 0 
L 1381 0 
L 213 4666 
z
" transform="scale(0.015625)"/>
      <path id="DejaVuSans-54" d="M -19 4666 
L 3928 4666 
L 3928 4134 
L 2272 4134 
L 2272 0 
L 1638 0 
L 1638 4134 
L -19 4134 
L -19 4666 
z
" transform="scale(0.015625)"/>
     </defs>
     <use xlink:href="#DejaVuSans-2022"/>
     <use xlink:href="#DejaVuSans-20" transform="translate(58.984375 0)"/>
     <use xlink:href="#DejaVuSans-57" transform="translate(90.771484 0)"/>
     <use xlink:href="#DejaVuSans-61" transform="translate(183.273438 0)"/>
     <use xlink:href="#DejaVuSans-69" transform="translate(244.552734 0)"/>
     <use xlink:href="#DejaVuSans-74" transform="translate(272.335938 0)"/>
     <use xlink:href="#DejaVuSans-69" transform="translate(311.544922 0)"/>
     <use xlink:href="#DejaVuSans-6e" transform="translate(339.328125 0)"/>
     <use xlink:href="#DejaVuSans-67" transform="translate(402.707031 0)"/>
     <use xlink:href="#DejaVuSans-20" transform="translate(466.183594 0)"/>
     <use xlink:href="#DejaVuSans-54" transform="translate(497.970703 0)"/>
     <use xlink:href="#DejaVuSans-69" transform="translate(555.929688 0)"/>
     <use xlink:href="#DejaVuSans-6d" transform="translate(583.712891 0)"/>
     <use xlink:href="#DejaVuSans-65" transform="translate(681.125 0)"/>
    </g>
   </g>
   <g id="text_18">
    <!-- • Congestion Level -->
    <g style="fill: #334155" transform="translate(153.144 718.461726) scale(0.098 -0.098)">
     <defs>
      <path id="DejaVuSans-73" d="M 2834 3397 
L 2834 2853 
Q 2591 2978 2328 3040 
Q 2066 3103 1784 3103 
Q 1356 3103 1142 2972 
Q 928 2841 928 2578 
Q 928 2378 1081 2264 
Q 1234 2150 1697 2047 
L 1894 2003 
Q 2506 1872 2764 1633 
Q 3022 1394 3022 966 
Q 3022 478 2636 193 
Q 2250 -91 1575 -91 
Q 1294 -91 989 -36 
Q 684 19 347 128 
L 347 722 
Q 666 556 975 473 
Q 1284 391 1588 391 
Q 1994 391 2212 530 
Q 2431 669 2431 922 
Q 2431 1156 2273 1281 
Q 2116 1406 1581 1522 
L 1381 1569 
Q 847 1681 609 1914 
Q 372 2147 372 2553 
Q 372 3047 722 3315 
Q 1072 3584 1716 3584 
Q 2034 3584 2315 3537 
Q 2597 3491 2834 3397 
z
" transform="scale(0.015625)"/>
     </defs>
     <use xlink:href="#DejaVuSans-2022"/>
     <use xlink:href="#DejaVuSans-20" transform="translate(58.984375 0)"/>
     <use xlink:href="#DejaVuSans-43" transform="translate(90.771484 0)"/>
     <use xlink:href="#DejaVuSans-6f" transform="translate(160.595703 0)"/>
     <use xlink:href="#DejaVuSans-6e" transform="translate(221.777344 0)"/>
     <use xlink:href="#DejaVuSans-67" transform="translate(285.15625 0)"/>
     <use xlink:href="#DejaVuSans-65" transform="translate(348.632812 0)"/>
     <use xlink:href="#DejaVuSans-73" transform="translate(410.15625 0)"/>
     <use xlink:href="#DejaVuSans-74" transform="translate(462.255859 0)"/>
     <use xlink:href="#DejaVuSans-69" transform="translate(501.464844 0)"/>
     <use xlink:href="#DejaVuSans-6f" transform="translate(529.248047 0)"/>
     <use xlink:href="#DejaVuSans-6e" transform="translate(590.429688 0)"/>
     <use xlink:href="#DejaVuSans-20" transform="translate(653.808594 0)"/>
     <use xlink:href="#DejaVuSans-4c" transform="translate(685.595703 0)"/>
     <use xlink:href="#DejaVuSans-65" transform="translate(739.558594 0)"/>
     <use xlink:href="#DejaVuSans-76" transform="translate(801.082031 0)"/>
     <use xlink:href="#DejaVuSans-65" transform="translate(860.261719 0)"/>
     <use xlink:href="#DejaVuSans-6c" transform="translate(921.785156 0)"/>
    </g>
   </g>
   <g id="text_19">
    <!-- • Risk Level -->
    <g style="fill: #334155" transform="translate(153.144 737.004495) scale(0.098 -0.098)">
     <defs>
      <path id="DejaVuSans-52" d="M 2841 2188 
Q 3044 2119 3236 1894 
Q 3428 1669 3622 1275 
L 4263 0 
L 3584 0 
L 2988 1197 
Q 2756 1666 2539 1819 
Q 2322 1972 1947 1972 
L 1259 1972 
L 1259 0 
L 628 0 
L 628 4666 
L 2053 4666 
Q 2853 4666 3247 4331 
Q 3641 3997 3641 3322 
Q 3641 2881 3436 2590 
Q 3231 2300 2841 2188 
z
M 1259 4147 
L 1259 2491 
L 2053 2491 
Q 2509 2491 2742 2702 
Q 2975 2913 2975 3322 
Q 2975 3731 2742 3939 
Q 2509 4147 2053 4147 
L 1259 4147 
z
" transform="scale(0.015625)"/>
      <path id="DejaVuSans-6b" d="M 581 4863 
L 1159 4863 
L 1159 1991 
L 2875 3500 
L 3609 3500 
L 1753 1863 
L 3688 0 
L 2938 0 
L 1159 1709 
L 1159 0 
L 581 0 
L 581 4863 
z
" transform="scale(0.015625)"/>
     </defs>
     <use xlink:href="#DejaVuSans-2022"/>
     <use xlink:href="#DejaVuSans-20" transform="translate(58.984375 0)"/>
     <use xlink:href="#DejaVuSans-52" transform="translate(90.771484 0)"/>
     <use xlink:href="#DejaVuSans-69" transform="translate(160.253906 0)"/>
     <use xlink:href="#DejaVuSans-73" transform="translate(188.037109 0)"/>
     <use xlink:href="#DejaVuSans-6b" transform="translate(240.136719 0)"/>
     <use xlink:href="#DejaVuSans-20" transform="translate(298.046875 0)"/>
     <use xlink:href="#DejaVuSans-4c" transform="translate(329.833984 0)"/>
     <use xlink:href="#DejaVuSans-65" transform="translate(383.796875 0)"/>
     <use xlink:href="#DejaVuSans-76" transform="translate(445.320312 0)"/>
     <use xlink:href="#DejaVuSans-65" transform="translate(504.5 0)"/>
     <use xlink:href="#DejaVuSans-6c" transform="translate(566.023438 0)"/>
    </g>
   </g>
   <g id="text_20">
    <!-- • Safety Score -->
    <g style="fill: #334155" transform="translate(153.144 755.547264) scale(0.098 -0.098)">
     <defs>
      <path id="DejaVuSans-53" d="M 3425 4513 
L 3425 3897 
Q 3066 4069 2747 4153 
Q 2428 4238 2131 4238 
Q 1616 4238 1336 4038 
Q 1056 3838 1056 3469 
Q 1056 3159 1242 3001 
Q 1428 2844 1947 2747 
L 2328 2669 
Q 3034 2534 3370 2195 
Q 3706 1856 3706 1288 
Q 3706 609 3251 259 
Q 2797 -91 1919 -91 
Q 1588 -91 1214 -16 
Q 841 59 441 206 
L 441 856 
Q 825 641 1194 531 
Q 1563 422 1919 422 
Q 2459 422 2753 634 
Q 3047 847 3047 1241 
Q 3047 1584 2836 1778 
Q 2625 1972 2144 2069 
L 1759 2144 
Q 1053 2284 737 2584 
Q 422 2884 422 3419 
Q 422 4038 858 4394 
Q 1294 4750 2059 4750 
Q 2388 4750 2728 4690 
Q 3069 4631 3425 4513 
z
" transform="scale(0.015625)"/>
      <path id="DejaVuSans-66" d="M 2375 4863 
L 2375 4384 
L 1825 4384 
Q 1516 4384 1395 4259 
Q 1275 4134 1275 3809 
L 1275 3500 
L 2222 3500 
L 2222 3053 
L 1275 3053 
L 1275 0 
L 697 0 
L 697 3053 
L 147 3053 
L 147 3500 
L 697 3500 
L 697 3744 
Q 697 4328 969 4595 
Q 1241 4863 1831 4863 
L 2375 4863 
z
" transform="scale(0.015625)"/>
     </defs>
     <use xlink:href="#DejaVuSans-2022"/>
     <use xlink:href="#DejaVuSans-20" transform="translate(58.984375 0)"/>
     <use xlink:href="#DejaVuSans-53" transform="translate(90.771484 0)"/>
     <use xlink:href="#DejaVuSans-61" transform="translate(154.248047 0)"/>
     <use xlink:href="#DejaVuSans-66" transform="translate(215.527344 0)"/>
     <use xlink:href="#DejaVuSans-65" transform="translate(250.732422 0)"/>
     <use xlink:href="#DejaVuSans-74" transform="translate(312.255859 0)"/>
     <use xlink:href="#DejaVuSans-79" transform="translate(351.464844 0)"/>
     <use xlink:href="#DejaVuSans-20" transform="translate(410.644531 0)"/>
     <use xlink:href="#DejaVuSans-53" transform="translate(442.431641 0)"/>
     <use xlink:href="#DejaVuSans-63" transform="translate(505.908203 0)"/>
     <use xlink:href="#DejaVuSans-6f" transform="translate(560.888672 0)"/>
     <use xlink:href="#DejaVuSans-72" transform="translate(622.070312 0)"/>
     <use xlink:href="#DejaVuSans-65" transform="translate(660.933594 0)"/>
    </g>
   </g>
   <g id="text_21">
    <!-- • Required Volunteers -->
    <g style="fill: #334155" transform="translate(153.144 774.090034) scale(0.098 -0.098)">
     <defs>
      <path id="DejaVuSans-71" d="M 947 1747 
Q 947 1113 1208 752 
Q 1469 391 1925 391 
Q 2381 391 2643 752 
Q 2906 1113 2906 1747 
Q 2906 2381 2643 2742 
Q 2381 3103 1925 3103 
Q 1469 3103 1208 2742 
Q 947 2381 947 1747 
z
M 2906 525 
Q 2725 213 2448 61 
Q 2172 -91 1784 -91 
Q 1150 -91 751 415 
Q 353 922 353 1747 
Q 353 2572 751 3078 
Q 1150 3584 1784 3584 
Q 2172 3584 2448 3432 
Q 2725 3281 2906 2969 
L 2906 3500 
L 3481 3500 
L 3481 -1331 
L 2906 -1331 
L 2906 525 
z
" transform="scale(0.015625)"/>
     </defs>
     <use xlink:href="#DejaVuSans-2022"/>
     <use xlink:href="#DejaVuSans-20" transform="translate(58.984375 0)"/>
     <use xlink:href="#DejaVuSans-52" transform="translate(90.771484 0)"/>
     <use xlink:href="#DejaVuSans-65" transform="translate(155.753906 0)"/>
     <use xlink:href="#DejaVuSans-71" transform="translate(217.277344 0)"/>
     <use xlink:href="#DejaVuSans-75" transform="translate(280.753906 0)"/>
     <use xlink:href="#DejaVuSans-69" transform="translate(344.132812 0)"/>
     <use xlink:href="#DejaVuSans-72" transform="translate(371.916016 0)"/>
     <use xlink:href="#DejaVuSans-65" transform="translate(410.779297 0)"/>
     <use xlink:href="#DejaVuSans-64" transform="translate(472.302734 0)"/>
     <use xlink:href="#DejaVuSans-20" transform="translate(535.779297 0)"/>
     <use xlink:href="#DejaVuSans-56" transform="translate(567.566406 0)"/>
     <use xlink:href="#DejaVuSans-6f" transform="translate(628.224609 0)"/>
     <use xlink:href="#DejaVuSans-6c" transform="translate(689.40625 0)"/>
     <use xlink:href="#DejaVuSans-75" transform="translate(717.189453 0)"/>
     <use xlink:href="#DejaVuSans-6e" transform="translate(780.568359 0)"/>
     <use xlink:href="#DejaVuSans-74" transform="translate(843.947266 0)"/>
     <use xlink:href="#DejaVuSans-65" transform="translate(883.15625 0)"/>
     <use xlink:href="#DejaVuSans-65" transform="translate(944.679688 0)"/>
     <use xlink:href="#DejaVuSans-72" transform="translate(1006.203125 0)"/>
     <use xlink:href="#DejaVuSans-73" transform="translate(1047.316406 0)"/>
    </g>
   </g>
   <g id="text_22">
    <!-- Display -->
    <g style="fill: #1e3a8a" transform="translate(312.127969 993.900651) scale(0.11 -0.11)">
     <use xlink:href="#DejaVuSans-Bold-44"/>
     <use xlink:href="#DejaVuSans-Bold-69" transform="translate(83.007812 0)"/>
     <use xlink:href="#DejaVuSans-Bold-73" transform="translate(117.285156 0)"/>
     <use xlink:href="#DejaVuSans-Bold-70" transform="translate(176.806641 0)"/>
     <use xlink:href="#DejaVuSans-Bold-6c" transform="translate(248.388672 0)"/>
     <use xlink:href="#DejaVuSans-Bold-61" transform="translate(282.666016 0)"/>
     <use xlink:href="#DejaVuSans-Bold-79" transform="translate(347.021484 0)"/>
    </g>
   </g>
   <g id="text_23">
    <!-- • Live Gate Status -->
    <g style="fill: #334155" transform="translate(153.144 1022.922034) scale(0.098 -0.098)">
     <defs>
      <path id="DejaVuSans-47" d="M 3809 666 
L 3809 1919 
L 2778 1919 
L 2778 2438 
L 4434 2438 
L 4434 434 
Q 4069 175 3628 42 
Q 3188 -91 2688 -91 
Q 1594 -91 976 548 
Q 359 1188 359 2328 
Q 359 3472 976 4111 
Q 1594 4750 2688 4750 
Q 3144 4750 3555 4637 
Q 3966 4525 4313 4306 
L 4313 3634 
Q 3963 3931 3569 4081 
Q 3175 4231 2741 4231 
Q 1884 4231 1454 3753 
Q 1025 3275 1025 2328 
Q 1025 1384 1454 906 
Q 1884 428 2741 428 
Q 3075 428 3337 486 
Q 3600 544 3809 666 
z
" transform="scale(0.015625)"/>
     </defs>
     <use xlink:href="#DejaVuSans-2022"/>
     <use xlink:href="#DejaVuSans-20" transform="translate(58.984375 0)"/>
     <use xlink:href="#DejaVuSans-4c" transform="translate(90.771484 0)"/>
     <use xlink:href="#DejaVuSans-69" transform="translate(146.484375 0)"/>
     <use xlink:href="#DejaVuSans-76" transform="translate(174.267578 0)"/>
     <use xlink:href="#DejaVuSans-65" transform="translate(233.447266 0)"/>
     <use xlink:href="#DejaVuSans-20" transform="translate(294.970703 0)"/>
     <use xlink:href="#DejaVuSans-47" transform="translate(326.757812 0)"/>
     <use xlink:href="#DejaVuSans-61" transform="translate(404.248047 0)"/>
     <use xlink:href="#DejaVuSans-74" transform="translate(465.527344 0)"/>
     <use xlink:href="#DejaVuSans-65" transform="translate(504.736328 0)"/>
     <use xlink:href="#DejaVuSans-20" transform="translate(566.259766 0)"/>
     <use xlink:href="#DejaVuSans-53" transform="translate(598.046875 0)"/>
     <use xlink:href="#DejaVuSans-74" transform="translate(661.523438 0)"/>
     <use xlink:href="#DejaVuSans-61" transform="translate(700.732422 0)"/>
     <use xlink:href="#DejaVuSans-74" transform="translate(762.011719 0)"/>
     <use xlink:href="#DejaVuSans-75" transform="translate(801.220703 0)"/>
     <use xlink:href="#DejaVuSans-73" transform="translate(864.599609 0)"/>
    </g>
   </g>
   <g id="text_24">
    <!-- • AI Predictions -->
    <g style="fill: #334155" transform="translate(153.144 1041.464803) scale(0.098 -0.098)">
     <defs>
      <path id="DejaVuSans-49" d="M 628 4666 
L 1259 4666 
L 1259 0 
L 628 0 
L 628 4666 
z
" transform="scale(0.015625)"/>
      <path id="DejaVuSans-50" d="M 1259 4147 
L 1259 2394 
L 2053 2394 
Q 2494 2394 2734 2622 
Q 2975 2850 2975 3272 
Q 2975 3691 2734 3919 
Q 2494 4147 2053 4147 
L 1259 4147 
z
M 628 4666 
L 2053 4666 
Q 2838 4666 3239 4311 
Q 3641 3956 3641 3272 
Q 3641 2581 3239 2228 
Q 2838 1875 2053 1875 
L 1259 1875 
L 1259 0 
L 628 0 
L 628 4666 
z
" transform="scale(0.015625)"/>
     </defs>
     <use xlink:href="#DejaVuSans-2022"/>
     <use xlink:href="#DejaVuSans-20" transform="translate(58.984375 0)"/>
     <use xlink:href="#DejaVuSans-41" transform="translate(90.771484 0)"/>
     <use xlink:href="#DejaVuSans-49" transform="translate(159.179688 0)"/>
     <use xlink:href="#DejaVuSans-20" transform="translate(188.671875 0)"/>
     <use xlink:href="#DejaVuSans-50" transform="translate(220.458984 0)"/>
     <use xlink:href="#DejaVuSans-72" transform="translate(279.011719 0)"/>
     <use xlink:href="#DejaVuSans-65" transform="translate(317.875 0)"/>
     <use xlink:href="#DejaVuSans-64" transform="translate(379.398438 0)"/>
     <use xlink:href="#DejaVuSans-69" transform="translate(442.875 0)"/>
     <use xlink:href="#DejaVuSans-63" transform="translate(470.658203 0)"/>
     <use xlink:href="#DejaVuSans-74" transform="translate(525.638672 0)"/>
     <use xlink:href="#DejaVuSans-69" transform="translate(564.847656 0)"/>
     <use xlink:href="#DejaVuSans-6f" transform="translate(592.630859 0)"/>
     <use xlink:href="#DejaVuSans-6e" transform="translate(653.8125 0)"/>
     <use xlink:href="#DejaVuSans-73" transform="translate(717.191406 0)"/>
    </g>
   </g>
   <g id="text_25">
    <!-- • Charts -->
    <g style="fill: #334155" transform="translate(153.144 1060.007572) scale(0.098 -0.098)">
     <use xlink:href="#DejaVuSans-2022"/>
     <use xlink:href="#DejaVuSans-20" transform="translate(58.984375 0)"/>
     <use xlink:href="#DejaVuSans-43" transform="translate(90.771484 0)"/>
     <use xlink:href="#DejaVuSans-68" transform="translate(160.595703 0)"/>
     <use xlink:href="#DejaVuSans-61" transform="translate(223.974609 0)"/>
     <use xlink:href="#DejaVuSans-72" transform="translate(285.253906 0)"/>
     <use xlink:href="#DejaVuSans-74" transform="translate(326.367188 0)"/>
     <use xlink:href="#DejaVuSans-73" transform="translate(365.576172 0)"/>
    </g>
   </g>
   <g id="text_26">
    <!-- • Analytics -->
    <g style="fill: #334155" transform="translate(153.144 1078.550341) scale(0.098 -0.098)">
     <use xlink:href="#DejaVuSans-2022"/>
     <use xlink:href="#DejaVuSans-20" transform="translate(58.984375 0)"/>
     <use xlink:href="#DejaVuSans-41" transform="translate(90.771484 0)"/>
     <use xlink:href="#DejaVuSans-6e" transform="translate(159.179688 0)"/>
     <use xlink:href="#DejaVuSans-61" transform="translate(222.558594 0)"/>
     <use xlink:href="#DejaVuSans-6c" transform="translate(283.837891 0)"/>
     <use xlink:href="#DejaVuSans-79" transform="translate(311.621094 0)"/>
     <use xlink:href="#DejaVuSans-74" transform="translate(370.800781 0)"/>
     <use xlink:href="#DejaVuSans-69" transform="translate(410.009766 0)"/>
     <use xlink:href="#DejaVuSans-63" transform="translate(437.792969 0)"/>
     <use xlink:href="#DejaVuSans-73" transform="translate(492.773438 0)"/>
    </g>
   </g>
   <g id="text_27">
    <!-- • Alerts -->
    <g style="fill: #334155" transform="translate(153.144 1097.093111) scale(0.098 -0.098)">
     <use xlink:href="#DejaVuSans-2022"/>
     <use xlink:href="#DejaVuSans-20" transform="translate(58.984375 0)"/>
     <use xlink:href="#DejaVuSans-41" transform="translate(90.771484 0)"/>
     <use xlink:href="#DejaVuSans-6c" transform="translate(159.179688 0)"/>
     <use xlink:href="#DejaVuSans-65" transform="translate(186.962891 0)"/>
     <use xlink:href="#DejaVuSans-72" transform="translate(248.486328 0)"/>
     <use xlink:href="#DejaVuSans-74" transform="translate(289.599609 0)"/>
     <use xlink:href="#DejaVuSans-73" transform="translate(328.808594 0)"/>
    </g>
   </g>
   <g id="patch_27">
    <path d="M 334.8 152.894769 
Q 334.8 170.689846 334.8 186.248855 
" style="fill: none; stroke: #2563eb; stroke-width: 2; stroke-linecap: round"/>
    <path d="M 337.6 180.648855 
L 334.8 186.248855 
L 332 180.648855 
z
" style="fill: #2563eb; stroke: #2563eb; stroke-width: 2; stroke-linecap: round"/>
   </g>
   <g id="patch_28">
    <path d="M 334.8 225.570462 
Q 334.8 242.916923 334.8 258.027317 
" style="fill: none; stroke: #2563eb; stroke-width: 2; stroke-linecap: round"/>
    <path d="M 337.6 252.427317 
L 334.8 258.027317 
L 332 252.427317 
z
" style="fill: #2563eb; stroke: #2563eb; stroke-width: 2; stroke-linecap: round"/>
   </g>
   <g id="patch_29">
    <path d="M 334.8 297.348923 
Q 334.8 321.125538 334.8 342.666086 
" style="fill: none; stroke: #2563eb; stroke-width: 2; stroke-linecap: round"/>
    <path d="M 337.6 337.066086 
L 334.8 342.666086 
L 332 337.066086 
z
" style="fill: #2563eb; stroke: #2563eb; stroke-width: 2; stroke-linecap: round"/>
   </g>
   <g id="patch_30">
    <path d="M 334.8 463.934769 
Q 334.8 475.748308 334.8 485.325778 
" style="fill: none; stroke: #2563eb; stroke-width: 2; stroke-linecap: round"/>
    <path d="M 337.6 479.725778 
L 334.8 485.325778 
L 332 479.725778 
z
" style="fill: #2563eb; stroke: #2563eb; stroke-width: 2; stroke-linecap: round"/>
   </g>
   <g id="patch_31">
    <path d="M 334.8 524.647385 
Q 334.8 540.947077 334.8 555.010701 
" style="fill: none; stroke: #2563eb; stroke-width: 2; stroke-linecap: round"/>
    <path d="M 337.6 549.410701 
L 334.8 555.010701 
L 332 549.410701 
z
" style="fill: #2563eb; stroke: #2563eb; stroke-width: 2; stroke-linecap: round"/>
   </g>
   <g id="patch_32">
    <path d="M 334.8 598.519385 
Q 334.8 622.744615 334.8 644.733778 
" style="fill: none; stroke: #2563eb; stroke-width: 2; stroke-linecap: round"/>
    <path d="M 337.6 639.133778 
L 334.8 644.733778 
L 332 639.133778 
z
" style="fill: #2563eb; stroke: #2563eb; stroke-width: 2; stroke-linecap: round"/>
   </g>
   <g id="patch_33">
    <path d="M 334.8 783.947077 
Q 334.8 797.256 334.8 808.328855 
" style="fill: none; stroke: #2563eb; stroke-width: 2; stroke-linecap: round"/>
    <path d="M 337.6 802.728855 
L 334.8 808.328855 
L 332 802.728855 
z
" style="fill: #2563eb; stroke: #2563eb; stroke-width: 2; stroke-linecap: round"/>
   </g>
   <g id="patch_34">
    <path d="M 334.8 847.650462 
Q 334.8 864.996923 334.8 880.107317 
" style="fill: none; stroke: #2563eb; stroke-width: 2; stroke-linecap: round"/>
    <path d="M 337.6 874.507317 
L 334.8 880.107317 
L 332 874.507317 
z
" style="fill: #2563eb; stroke: #2563eb; stroke-width: 2; stroke-linecap: round"/>
   </g>
   <g id="patch_35">
    <path d="M 334.8 919.428923 
Q 334.8 944.700923 334.8 967.736855 
" style="fill: none; stroke: #2563eb; stroke-width: 2; stroke-linecap: round"/>
    <path d="M 337.6 962.136855 
L 334.8 967.736855 
L 332 962.136855 
z
" style="fill: #2563eb; stroke: #2563eb; stroke-width: 2; stroke-linecap: round"/>
   </g>
   <g id="patch_36">
    <path d="M 334.8 1106.950154 
Q 334.8 1120.707692 334.8 1132.229163 
" style="fill: none; stroke: #2563eb; stroke-width: 2; stroke-linecap: round"/>
    <path d="M 337.6 1126.629163 
L 334.8 1132.229163 
L 332 1126.629163 
z
" style="fill: #2563eb; stroke: #2563eb; stroke-width: 2; stroke-linecap: round"/>
   </g>
  </g>
 </g>
 <defs>
  <clipPath id="p22fd6a5d43">
   <rect x="21.6" y="21.6" width="626.4" height="1166.4"/>
  </clipPath>
 </defs>
</svg>
