<?xml version="1.0" encoding="utf-8" standalone="no"?>
<!DOCTYPE svg PUBLIC "-//W3C//DTD SVG 1.1//EN"
  "http://www.w3.org/Graphics/SVG/1.1/DTD/svg11.dtd">
<svg xmlns:xlink="http://www.w3.org/1999/xlink" width="705.6pt" height="1209.6pt" viewBox="0 0 705.6 1209.6" xmlns="http://www.w3.org/2000/svg" version="1.1">
 <metadata>
  <rdf:RDF xmlns:dc="http://purl.org/dc/elements/1.1/" xmlns:cc="http://creativecommons.org/ns#" xmlns:rdf="http://www.w3.org/1999/02/22-rdf-syntax-ns#">
   <cc:Work>
    <dc:type rdf:resource="http://purl.org/dc/dcmitype/StillImage"/>
    <dc:date>2026-07-22T08:12:12.048169</dc:date>
    <dc:format>image/svg+xml</dc:format>
    <dc:creator>
     <cc:Agent>
      <dc:title>Matplotlib v3.10.9, https://matplotlib.org/</dc:title>
     </cc:Agent>
    </dc:creator>
   </cc:Work>
  </rdf:RDF>
 </metadata>
 <defs>
  <style type="text/css">*{stroke-linejoin: round; stroke-linecap: butt}</style>
 </defs>
 <g id="figure_1">
  <g id="patch_1">
   <path d="M 0 1209.6 
L 705.6 1209.6 
L 705.6 0 
L 0 0 
z
" style="fill: #ffffff"/>
  </g>
  <g id="axes_1">
   <g id="patch_2">
    <path d="M 188.1936 155.464041 
L 363.7296 155.464041 
Q 381.9456 155.464041 381.9456 138.844352 
L 381.9456 138.844352 
Q 381.9456 122.224663 363.7296 122.224663 
L 188.1936 122.224663 
Q 169.9776 122.224663 169.9776 138.844352 
L 169.9776 138.844352 
Q 169.9776 155.464041 188.1936 155.464041 
z
" clip-path="url(#p4269126d7b)" style="fill: #e2e8f0"/>
   </g>
   <g id="patch_3">
    <path d="M 115.6608 228.89285 
L 436.2624 228.89285 
Q 448.1856 228.89285 448.1856 218.014508 
L 448.1856 204.718756 
Q 448.1856 193.840415 436.2624 193.840415 
L 115.6608 193.840415 
Q 103.7376 193.840415 103.7376 204.718756 
L 103.7376 218.014508 
Q 103.7376 228.89285 115.6608 228.89285 
z
" clip-path="url(#p4269126d7b)" style="fill: #e2e8f0"/>
   </g>
   <g id="patch_4">
    <path d="M 115.6608 301.41513 
L 436.2624 301.41513 
Q 448.1856 301.41513 448.1856 290.536788 
L 448.1856 277.241036 
Q 448.1856 266.362694 436.2624 266.362694 
L 115.6608 266.362694 
Q 103.7376 266.362694 103.7376 277.241036 
L 103.7376 290.536788 
Q 103.7376 301.41513 115.6608 301.41513 
z
" clip-path="url(#p4269126d7b)" style="fill: #e2e8f0"/>
   </g>
   <g id="patch_5">
    <path d="M 275.9616 347.345907 
L 395.1936 386.628808 
L 275.9616 425.91171 
L 156.7296 386.628808 
z
" clip-path="url(#p4269126d7b)" style="fill: #e2e8f0"/>
   </g>
   <g id="patch_6">
    <path d="M 479.9808 404.155026 
L 654.8544 404.155026 
Q 666.7776 404.155026 666.7776 393.276684 
L 666.7776 379.980933 
Q 666.7776 369.102591 654.8544 369.102591 
L 479.9808 369.102591 
Q 468.0576 369.102591 468.0576 379.980933 
L 468.0576 393.276684 
Q 468.0576 404.155026 479.9808 404.155026 
z
" clip-path="url(#p4269126d7b)" style="fill: #e2e8f0"/>
   </g>
   <g id="patch_7">
    <path d="M 479.9808 488.764352 
L 654.8544 488.764352 
Q 666.7776 488.764352 666.7776 477.88601 
L 666.7776 464.590259 
Q 666.7776 453.711917 654.8544 453.711917 
L 479.9808 453.711917 
Q 468.0576 453.711917 468.0576 464.590259 
L 468.0576 477.88601 
Q 468.0576 488.764352 479.9808 488.764352 
z
" clip-path="url(#p4269126d7b)" style="fill: #e2e8f0"/>
   </g>
   <g id="patch_8">
    <path d="M 498.528 565.517098 
L 636.3072 565.517098 
Q 653.5296 565.517098 653.5296 549.803938 
L 653.5296 549.803938 
Q 653.5296 534.090777 636.3072 534.090777 
L 498.528 534.090777 
Q 481.3056 534.090777 481.3056 549.803938 
L 481.3056 549.803938 
Q 481.3056 565.517098 498.528 565.517098 
z
" clip-path="url(#p4269126d7b)" style="fill: #e2e8f0"/>
   </g>
   <g id="patch_9">
    <path d="M 115.6608 512.938446 
L 436.2624 512.938446 
Q 448.1856 512.938446 448.1856 502.060104 
L 448.1856 488.764352 
Q 448.1856 477.88601 436.2624 477.88601 
L 115.6608 477.88601 
Q 103.7376 477.88601 103.7376 488.764352 
L 103.7376 502.060104 
Q 103.7376 512.938446 115.6608 512.938446 
z
" clip-path="url(#p4269126d7b)" style="fill: #e2e8f0"/>
   </g>
   <g id="patch_10">
    <path d="M 115.6608 585.460725 
L 436.2624 585.460725 
Q 448.1856 585.460725 448.1856 574.582383 
L 448.1856 561.286632 
Q 448.1856 550.40829 436.2624 550.40829 
L 115.6608 550.40829 
Q 103.7376 550.40829 103.7376 561.286632 
L 103.7376 574.582383 
Q 103.7376 585.460725 115.6608 585.460725 
z
" clip-path="url(#p4269126d7b)" style="fill: #e2e8f0"/>
   </g>
   <g id="patch_11">
    <path d="M 115.6608 657.983005 
L 436.2624 657.983005 
Q 448.1856 657.983005 448.1856 647.104663 
L 448.1856 633.808912 
Q 448.1856 622.93057 436.2624 622.93057 
L 115.6608 622.93057 
Q 103.7376 622.93057 103.7376 633.808912 
L 103.7376 647.104663 
Q 103.7376 657.983005 115.6608 657.983005 
z
" clip-path="url(#p4269126d7b)" style="fill: #e2e8f0"/>
   </g>
   <g id="patch_12">
    <path d="M 115.6608 730.505285 
L 436.2624 730.505285 
Q 448.1856 730.505285 448.1856 719.626943 
L 448.1856 706.331192 
Q 448.1856 695.45285 436.2624 695.45285 
L 115.6608 695.45285 
Q 103.7376 695.45285 103.7376 706.331192 
L 103.7376 719.626943 
Q 103.7376 730.505285 115.6608 730.505285 
z
" clip-path="url(#p4269126d7b)" style="fill: #e2e8f0"/>
   </g>
   <g id="patch_13">
    <path d="M 115.6608 803.027565 
L 436.2624 803.027565 
Q 448.1856 803.027565 448.1856 792.149223 
L 448.1856 778.853472 
Q 448.1856 767.97513 436.2624 767.97513 
L 115.6608 767.97513 
Q 103.7376 767.97513 103.7376 778.853472 
L 103.7376 792.149223 
Q 103.7376 803.027565 115.6608 803.027565 
z
" clip-path="url(#p4269126d7b)" style="fill: #e2e8f0"/>
   </g>
   <g id="patch_14">
    <path d="M 275.9616 848.958342 
L 395.1936 888.241244 
L 275.9616 927.524145 
L 156.7296 888.241244 
z
" clip-path="url(#p4269126d7b)" style="fill: #e2e8f0"/>
   </g>
   <g id="patch_15">
    <path d="M 479.9808 905.767461 
L 654.8544 905.767461 
Q 666.7776 905.767461 666.7776 894.889119 
L 666.7776 881.593368 
Q 666.7776 870.715026 654.8544 870.715026 
L 479.9808 870.715026 
Q 468.0576 870.715026 468.0576 881.593368 
L 468.0576 894.889119 
Q 468.0576 905.767461 479.9808 905.767461 
z
" clip-path="url(#p4269126d7b)" style="fill: #e2e8f0"/>
   </g>
   <g id="patch_16">
    <path d="M 498.528 988.563731 
L 636.3072 988.563731 
Q 653.5296 988.563731 653.5296 972.85057 
L 653.5296 972.85057 
Q 653.5296 957.137409 636.3072 957.137409 
L 498.528 957.137409 
Q 481.3056 957.137409 481.3056 972.85057 
L 481.3056 972.85057 
Q 481.3056 988.563731 498.528 988.563731 
z
" clip-path="url(#p4269126d7b)" style="fill: #e2e8f0"/>
   </g>
   <g id="patch_17">
    <path d="M 115.6608 1014.550881 
L 436.2624 1014.550881 
Q 448.1856 1014.550881 448.1856 1003.672539 
L 448.1856 990.376788 
Q 448.1856 979.498446 436.2624 979.498446 
L 115.6608 979.498446 
Q 103.7376 979.498446 103.7376 990.376788 
L 103.7376 1003.672539 
Q 103.7376 1014.550881 115.6608 1014.550881 
z
" clip-path="url(#p4269126d7b)" style="fill: #e2e8f0"/>
   </g>
   <g id="patch_18">
    <path d="M 115.6608 1087.073161 
L 436.2624 1087.073161 
Q 448.1856 1087.073161 448.1856 1076.194819 
L 448.1856 1062.899067 
Q 448.1856 1052.020725 436.2624 1052.020725 
L 115.6608 1052.020725 
Q 103.7376 1052.020725 103.7376 1062.899067 
L 103.7376 1076.194819 
Q 103.7376 1087.073161 115.6608 1087.073161 
z
" clip-path="url(#p4269126d7b)" style="fill: #e2e8f0"/>
   </g>
   <g id="patch_19">
    <path d="M 188.1936 1170.775959 
L 363.7296 1170.775959 
Q 381.9456 1170.775959 381.9456 1154.156269 
L 381.9456 1154.156269 
Q 381.9456 1137.53658 363.7296 1137.53658 
L 188.1936 1137.53658 
Q 169.9776 1137.53658 169.9776 1154.156269 
L 169.9776 1154.156269 
Q 169.9776 1170.775959 188.1936 1170.775959 
z
" clip-path="url(#p4269126d7b)" style="fill: #e2e8f0"/>
   </g>
   <g id="patch_20">
    <path d="M 185.544 153.046632 
L 361.08 153.046632 
Q 379.296 153.046632 379.296 136.426943 
L 379.296 136.426943 
Q 379.296 119.807254 361.08 119.807254 
L 185.544 119.807254 
Q 167.328 119.807254 167.328 136.426943 
L 167.328 136.426943 
Q 167.328 153.046632 185.544 153.046632 
z
" clip-path="url(#p4269126d7b)" style="fill: #1e3a8a; stroke: #1e3a8a; stroke-width: 1.8; stroke-linejoin: miter"/>
   </g>
   <g id="patch_21">
    <path d="M 113.0112 226.47544 
L 433.6128 226.47544 
Q 445.536 226.47544 445.536 215.597098 
L 445.536 202.301347 
Q 445.536 191.423005 433.6128 191.423005 
L 113.0112 191.423005 
Q 101.088 191.423005 101.088 202.301347 
L 101.088 215.597098 
Q 101.088 226.47544 113.0112 226.47544 
z
" clip-path="url(#p4269126d7b)" style="fill: #f8fafc; stroke: #2563eb; stroke-width: 1.6; stroke-linejoin: miter"/>
   </g>
   <g id="patch_22">
    <path d="M 113.0112 298.99772 
L 433.6128 298.99772 
Q 445.536 298.99772 445.536 288.119378 
L 445.536 274.823627 
Q 445.536 263.945285 433.6128 263.945285 
L 113.0112 263.945285 
Q 101.088 263.945285 101.088 274.823627 
L 101.088 288.119378 
Q 101.088 298.99772 113.0112 298.99772 
z
" clip-path="url(#p4269126d7b)" style="fill: #f8fafc; stroke: #2563eb; stroke-width: 1.6; stroke-linejoin: miter"/>
   </g>
   <g id="patch_23">
    <path d="M 273.312 344.928497 
L 392.544 384.211399 
L 273.312 423.494301 
L 154.08 384.211399 
z
" clip-path="url(#p4269126d7b)" style="fill: #eff6ff; stroke: #1d4ed8; stroke-width: 2; stroke-linejoin: miter"/>
   </g>
   <g id="patch_24">
    <path d="M 477.3312 401.737617 
L 652.2048 401.737617 
Q 664.128 401.737617 664.128 390.859275 
L 664.128 377.563523 
Q 664.128 366.685181 652.2048 366.685181 
L 477.3312 366.685181 
Q 465.408 366.685181 465.408 377.563523 
L 465.408 390.859275 
Q 465.408 401.737617 477.3312 401.737617 
z
" clip-path="url(#p4269126d7b)" style="fill: #f8fafc; stroke: #2563eb; stroke-width: 1.6; stroke-linejoin: miter"/>
   </g>
   <g id="patch_25">
    <path d="M 477.3312 486.346943 
L 652.2048 486.346943 
Q 664.128 486.346943 664.128 475.468601 
L 664.128 462.17285 
Q 664.128 451.294508 652.2048 451.294508 
L 477.3312 451.294508 
Q 465.408 451.294508 465.408 462.17285 
L 465.408 475.468601 
Q 465.408 486.346943 477.3312 486.346943 
z
" clip-path="url(#p4269126d7b)" style="fill: #f8fafc; stroke: #2563eb; stroke-width: 1.6; stroke-linejoin: miter"/>
   </g>
   <g id="patch_26">
    <path d="M 495.8784 563.099689 
L 633.6576 563.099689 
Q 650.88 563.099689 650.88 547.386528 
L 650.88 547.386528 
Q 650.88 531.673368 633.6576 531.673368 
L 495.8784 531.673368 
Q 478.656 531.673368 478.656 547.386528 
L 478.656 547.386528 
Q 478.656 563.099689 495.8784 563.099689 
z
" clip-path="url(#p4269126d7b)" style="fill: #1e3a8a; stroke: #1e3a8a; stroke-width: 1.8; stroke-linejoin: miter"/>
   </g>
   <g id="patch_27">
    <path d="M 113.0112 510.521036 
L 433.6128 510.521036 
Q 445.536 510.521036 445.536 499.642694 
L 445.536 486.346943 
Q 445.536 475.468601 433.6128 475.468601 
L 113.0112 475.468601 
Q 101.088 475.468601 101.088 486.346943 
L 101.088 499.642694 
Q 101.088 510.521036 113.0112 510.521036 
z
" clip-path="url(#p4269126d7b)" style="fill: #f8fafc; stroke: #2563eb; stroke-width: 1.6; stroke-linejoin: miter"/>
   </g>
   <g id="patch_28">
    <path d="M 113.0112 583.043316 
L 433.6128 583.043316 
Q 445.536 583.043316 445.536 572.164974 
L 445.536 558.869223 
Q 445.536 547.990881 433.6128 547.990881 
L 113.0112 547.990881 
Q 101.088 547.990881 101.088 558.869223 
L 101.088 572.164974 
Q 101.088 583.043316 113.0112 583.043316 
z
" clip-path="url(#p4269126d7b)" style="fill: #f8fafc; stroke: #2563eb; stroke-width: 1.6; stroke-linejoin: miter"/>
   </g>
   <g id="patch_29">
    <path d="M 113.0112 655.565596 
L 433.6128 655.565596 
Q 445.536 655.565596 445.536 644.687254 
L 445.536 631.391503 
Q 445.536 620.513161 433.6128 620.513161 
L 113.0112 620.513161 
Q 101.088 620.513161 101.088 631.391503 
L 101.088 644.687254 
Q 101.088 655.565596 113.0112 655.565596 
z
" clip-path="url(#p4269126d7b)" style="fill: #f8fafc; stroke: #2563eb; stroke-width: 1.6; stroke-linejoin: miter"/>
   </g>
   <g id="patch_30">
    <path d="M 113.0112 728.087876 
L 433.6128 728.087876 
Q 445.536 728.087876 445.536 717.209534 
L 445.536 703.913782 
Q 445.536 693.03544 433.6128 693.03544 
L 113.0112 693.03544 
Q 101.088 693.03544 101.088 703.913782 
L 101.088 717.209534 
Q 101.088 728.087876 113.0112 728.087876 
z
" clip-path="url(#p4269126d7b)" style="fill: #f8fafc; stroke: #2563eb; stroke-width: 1.6; stroke-linejoin: miter"/>
   </g>
   <g id="patch_31">
    <path d="M 113.0112 800.610155 
L 433.6128 800.610155 
Q 445.536 800.610155 445.536 789.731813 
L 445.536 776.436062 
Q 445.536 765.55772 433.6128 765.55772 
L 113.0112 765.55772 
Q 101.088 765.55772 101.088 776.436062 
L 101.088 789.731813 
Q 101.088 800.610155 113.0112 800.610155 
z
" clip-path="url(#p4269126d7b)" style="fill: #f8fafc; stroke: #2563eb; stroke-width: 1.6; stroke-linejoin: miter"/>
   </g>
   <g id="patch_32">
    <path d="M 273.312 846.540933 
L 392.544 885.823834 
L 273.312 925.106736 
L 154.08 885.823834 
z
" clip-path="url(#p4269126d7b)" style="fill: #eff6ff; stroke: #1d4ed8; stroke-width: 2; stroke-linejoin: miter"/>
   </g>
   <g id="patch_33">
    <path d="M 477.3312 903.350052 
L 652.2048 903.350052 
Q 664.128 903.350052 664.128 892.47171 
L 664.128 879.175959 
Q 664.128 868.297617 652.2048 868.297617 
L 477.3312 868.297617 
Q 465.408 868.297617 465.408 879.175959 
L 465.408 892.47171 
Q 465.408 903.350052 477.3312 903.350052 
z
" clip-path="url(#p4269126d7b)" style="fill: #f8fafc; stroke: #2563eb; stroke-width: 1.6; stroke-linejoin: miter"/>
   </g>
   <g id="patch_34">
    <path d="M 495.8784 986.146321 
L 633.6576 986.146321 
Q 650.88 986.146321 650.88 970.433161 
L 650.88 970.433161 
Q 650.88 954.72 633.6576 954.72 
L 495.8784 954.72 
Q 478.656 954.72 478.656 970.433161 
L 478.656 970.433161 
Q 478.656 986.146321 495.8784 986.146321 
z
" clip-path="url(#p4269126d7b)" style="fill: #1e3a8a; stroke: #1e3a8a; stroke-width: 1.8; stroke-linejoin: miter"/>
   </g>
   <g id="patch_35">
    <path d="M 113.0112 1012.133472 
L 433.6128 1012.133472 
Q 445.536 1012.133472 445.536 1001.25513 
L 445.536 987.959378 
Q 445.536 977.081036 433.6128 977.081036 
L 113.0112 977.081036 
Q 101.088 977.081036 101.088 987.959378 
L 101.088 1001.25513 
Q 101.088 1012.133472 113.0112 1012.133472 
z
" clip-path="url(#p4269126d7b)" style="fill: #f8fafc; stroke: #2563eb; stroke-width: 1.6; stroke-linejoin: miter"/>
   </g>
   <g id="patch_36">
    <path d="M 113.0112 1084.655751 
L 433.6128 1084.655751 
Q 445.536 1084.655751 445.536 1073.777409 
L 445.536 1060.481658 
Q 445.536 1049.603316 433.6128 1049.603316 
L 113.0112 1049.603316 
Q 101.088 1049.603316 101.088 1060.481658 
L 101.088 1073.777409 
Q 101.088 1084.655751 113.0112 1084.655751 
z
" clip-path="url(#p4269126d7b)" style="fill: #f8fafc; stroke: #2563eb; stroke-width: 1.6; stroke-linejoin: miter"/>
   </g>
   <g id="patch_37">
    <path d="M 185.544 1168.358549 
L 361.08 1168.358549 
Q 379.296 1168.358549 379.296 1151.73886 
L 379.296 1151.73886 
Q 379.296 1135.119171 361.08 1135.119171 
L 185.544 1135.119171 
Q 167.328 1135.119171 167.328 1151.73886 
L 167.328 1151.73886 
Q 167.328 1168.358549 185.544 1168.358549 
z
" clip-path="url(#p4269126d7b)" style="fill: #1e3a8a; stroke: #1e3a8a; stroke-width: 1.8; stroke-linejoin: miter"/>
   </g>
   <g id="text_1">
    <!-- Figure 2 – Volunteer Allocation and Alert Management Workflow -->
    <g style="fill: #0f172a" transform="translate(89.8425 61.805593) scale(0.145 -0.145)">
     <defs>
      <path id="DejaVuSans-Bold-46" d="M 588 4666 
L 3834 4666 
L 3834 3756 
L 1791 3756 
L 1791 2888 
L 3713 2888 
L 3713 1978 
L 1791 1978 
L 1791 0 
L 588 0 
L 588 4666 
z
" transform="scale(0.015625)"/>
      <path id="DejaVuSans-Bold-69" d="M 538 3500 
L 1656 3500 
L 1656 0 
L 538 0 
L 538 3500 
z
M 538 4863 
L 1656 4863 
L 1656 3950 
L 538 3950 
L 538 4863 
z
" transform="scale(0.015625)"/>
      <path id="DejaVuSans-Bold-67" d="M 2919 594 
Q 2688 288 2409 144 
Q 2131 0 1766 0 
Q 1125 0 706 504 
Q 288 1009 288 1791 
Q 288 2575 706 3076 
Q 1125 3578 1766 3578 
Q 2131 3578 2409 3434 
Q 2688 3291 2919 2981 
L 2919 3500 
L 4044 3500 
L 4044 353 
Q 4044 -491 3511 -936 
Q 2978 -1381 1966 -1381 
Q 1638 -1381 1331 -1331 
Q 1025 -1281 716 -1178 
L 716 -306 
Q 1009 -475 1290 -558 
Q 1572 -641 1856 -641 
Q 2406 -641 2662 -400 
Q 2919 -159 2919 353 
L 2919 594 
z
M 2181 2772 
Q 1834 2772 1640 2515 
Q 1447 2259 1447 1791 
Q 1447 1309 1634 1061 
Q 1822 813 2181 813 
Q 2531 813 2725 1069 
Q 2919 1325 2919 1791 
Q 2919 2259 2725 2515 
Q 2531 2772 2181 2772 
z
" transform="scale(0.015625)"/>
      <path id="DejaVuSans-Bold-75" d="M 500 1363 
L 500 3500 
L 1625 3500 
L 1625 3150 
Q 1625 2866 1622 2436 
Q 1619 2006 1619 1863 
Q 1619 1441 1641 1255 
Q 1663 1069 1716 984 
Q 1784 875 1895 815 
Q 2006 756 2150 756 
Q 2500 756 2700 1025 
Q 2900 1294 2900 1772 
L 2900 3500 
L 4019 3500 
L 4019 0 
L 2900 0 
L 2900 506 
Q 2647 200 2364 54 
Q 2081 -91 1741 -91 
Q 1134 -91 817 281 
Q 500 653 500 1363 
z
" transform="scale(0.015625)"/>
      <path id="DejaVuSans-Bold-72" d="M 3138 2547 
Q 2991 2616 2845 2648 
Q 2700 2681 2553 2681 
Q 2122 2681 1889 2404 
Q 1656 2128 1656 1613 
L 1656 0 
L 538 0 
L 538 3500 
L 1656 3500 
L 1656 2925 
Q 1872 3269 2151 3426 
Q 2431 3584 2822 3584 
Q 2878 3584 2943 3579 
Q 3009 3575 3134 3559 
L 3138 2547 
z
" transform="scale(0.015625)"/>
      <path id="DejaVuSans-Bold-65" d="M 4031 1759 
L 4031 1441 
L 1416 1441 
Q 1456 1047 1700 850 
Q 1944 653 2381 653 
Q 2734 653 3104 758 
Q 3475 863 3866 1075 
L 3866 213 
Q 3469 63 3072 -14 
Q 2675 -91 2278 -91 
Q 1328 -91 801 392 
Q 275 875 275 1747 
Q 275 2603 792 3093 
Q 1309 3584 2216 3584 
Q 3041 3584 3536 3087 
Q 4031 2591 4031 1759 
z
M 2881 2131 
Q 2881 2450 2695 2645 
Q 2509 2841 2209 2841 
Q 1884 2841 1681 2658 
Q 1478 2475 1428 2131 
L 2881 2131 
z
" transform="scale(0.015625)"/>
      <path id="DejaVuSans-Bold-20" transform="scale(0.015625)"/>
      <path id="DejaVuSans-Bold-32" d="M 1844 884 
L 3897 884 
L 3897 0 
L 506 0 
L 506 884 
L 2209 2388 
Q 2438 2594 2547 2791 
Q 2656 2988 2656 3200 
Q 2656 3528 2436 3728 
Q 2216 3928 1850 3928 
Q 1569 3928 1234 3808 
Q 900 3688 519 3450 
L 519 4475 
Q 925 4609 1322 4679 
Q 1719 4750 2100 4750 
Q 2938 4750 3402 4381 
Q 3866 4013 3866 3353 
Q 3866 2972 3669 2642 
Q 3472 2313 2841 1759 
L 1844 884 
z
" transform="scale(0.015625)"/>
      <path id="DejaVuSans-Bold-2013" d="M 344 2156 
L 2856 2156 
L 2856 1350 
L 344 1350 
L 344 2156 
z
" transform="scale(0.015625)"/>
      <path id="DejaVuSans-Bold-56" d="M 31 4666 
L 1241 4666 
L 2478 1222 
L 3713 4666 
L 4922 4666 
L 3194 0 
L 1759 0 
L 31 4666 
z
" transform="scale(0.015625)"/>
      <path id="DejaVuSans-Bold-6f" d="M 2203 2784 
Q 1831 2784 1636 2517 
Q 1441 2250 1441 1747 
Q 1441 1244 1636 976 
Q 1831 709 2203 709 
Q 2569 709 2762 976 
Q 2956 1244 2956 1747 
Q 2956 2250 2762 2517 
Q 2569 2784 2203 2784 
z
M 2203 3584 
Q 3106 3584 3614 3096 
Q 4122 2609 4122 1747 
Q 4122 884 3614 396 
Q 3106 -91 2203 -91 
Q 1297 -91 786 396 
Q 275 884 275 1747 
Q 275 2609 786 3096 
Q 1297 3584 2203 3584 
z
" transform="scale(0.015625)"/>
      <path id="DejaVuSans-Bold-6c" d="M 538 4863 
L 1656 4863 
L 1656 0 
L 538 0 
L 538 4863 
z
" transform="scale(0.015625)"/>
      <path id="DejaVuSans-Bold-6e" d="M 4056 2131 
L 4056 0 
L 2931 0 
L 2931 347 
L 2931 1631 
Q 2931 2084 2911 2256 
Q 2891 2428 2841 2509 
Q 2775 2619 2662 2680 
Q 2550 2741 2406 2741 
Q 2056 2741 1856 2470 
Q 1656 2200 1656 1722 
L 1656 0 
L 538 0 
L 538 3500 
L 1656 3500 
L 1656 2988 
Q 1909 3294 2193 3439 
Q 2478 3584 2822 3584 
Q 3428 3584 3742 3212 
Q 4056 2841 4056 2131 
z
" transform="scale(0.015625)"/>
      <path id="DejaVuSans-Bold-74" d="M 1759 4494 
L 1759 3500 
L 2913 3500 
L 2913 2700 
L 1759 2700 
L 1759 1216 
Q 1759 972 1856 886 
Q 1953 800 2241 800 
L 2816 800 
L 2816 0 
L 1856 0 
Q 1194 0 917 276 
Q 641 553 641 1216 
L 641 2700 
L 84 2700 
L 84 3500 
L 641 3500 
L 641 4494 
L 1759 4494 
z
" transform="scale(0.015625)"/>
      <path id="DejaVuSans-Bold-41" d="M 3419 850 
L 1538 850 
L 1241 0 
L 31 0 
L 1759 4666 
L 3194 4666 
L 4922 0 
L 3713 0 
L 3419 850 
z
M 1838 1716 
L 3116 1716 
L 2478 3572 
L 1838 1716 
z
" transform="scale(0.015625)"/>
      <path id="DejaVuSans-Bold-63" d="M 3366 3391 
L 3366 2478 
Q 3138 2634 2908 2709 
Q 2678 2784 2431 2784 
Q 1963 2784 1702 2511 
Q 1441 2238 1441 1747 
Q 1441 1256 1702 982 
Q 1963 709 2431 709 
Q 2694 709 2930 787 
Q 3166 866 3366 1019 
L 3366 103 
Q 3103 6 2833 -42 
Q 2563 -91 2291 -91 
Q 1344 -91 809 395 
Q 275 881 275 1747 
Q 275 2613 809 3098 
Q 1344 3584 2291 3584 
Q 2566 3584 2833 3536 
Q 3100 3488 3366 3391 
z
" transform="scale(0.015625)"/>
      <path id="DejaVuSans-Bold-61" d="M 2106 1575 
Q 1756 1575 1579 1456 
Q 1403 1338 1403 1106 
Q 1403 894 1545 773 
Q 1688 653 1941 653 
Q 2256 653 2472 879 
Q 2688 1106 2688 1447 
L 2688 1575 
L 2106 1575 
z
M 3816 1997 
L 3816 0 
L 2688 0 
L 2688 519 
Q 2463 200 2181 54 
Q 1900 -91 1497 -91 
Q 953 -91 614 226 
Q 275 544 275 1050 
Q 275 1666 698 1953 
Q 1122 2241 2028 2241 
L 2688 2241 
L 2688 2328 
Q 2688 2594 2478 2717 
Q 2269 2841 1825 2841 
Q 1466 2841 1156 2769 
Q 847 2697 581 2553 
L 581 3406 
Q 941 3494 1303 3539 
Q 1666 3584 2028 3584 
Q 2975 3584 3395 3211 
Q 3816 2838 3816 1997 
z
" transform="scale(0.015625)"/>
      <path id="DejaVuSans-Bold-64" d="M 2919 2988 
L 2919 4863 
L 4044 4863 
L 4044 0 
L 2919 0 
L 2919 506 
Q 2688 197 2409 53 
Q 2131 -91 1766 -91 
Q 1119 -91 703 423 
Q 288 938 288 1747 
Q 288 2556 703 3070 
Q 1119 3584 1766 3584 
Q 2128 3584 2408 3439 
Q 2688 3294 2919 2988 
z
M 2181 722 
Q 2541 722 2730 984 
Q 2919 1247 2919 1747 
Q 2919 2247 2730 2509 
Q 2541 2772 2181 2772 
Q 1825 2772 1636 2509 
Q 1447 2247 1447 1747 
Q 1447 1247 1636 984 
Q 1825 722 2181 722 
z
" transform="scale(0.015625)"/>
      <path id="DejaVuSans-Bold-4d" d="M 588 4666 
L 2119 4666 
L 3181 2169 
L 4250 4666 
L 5778 4666 
L 5778 0 
L 4641 0 
L 4641 3413 
L 3566 897 
L 2803 897 
L 1728 3413 
L 1728 0 
L 588 0 
L 588 4666 
z
" transform="scale(0.015625)"/>
      <path id="DejaVuSans-Bold-6d" d="M 3781 2919 
Q 3994 3244 4286 3414 
Q 4578 3584 4928 3584 
Q 5531 3584 5847 3212 
Q 6163 2841 6163 2131 
L 6163 0 
L 5038 0 
L 5038 1825 
Q 5041 1866 5042 1909 
Q 5044 1953 5044 2034 
Q 5044 2406 4934 2573 
Q 4825 2741 4581 2741 
Q 4263 2741 4089 2478 
Q 3916 2216 3909 1719 
L 3909 0 
L 2784 0 
L 2784 1825 
Q 2784 2406 2684 2573 
Q 2584 2741 2328 2741 
Q 2006 2741 1831 2477 
Q 1656 2213 1656 1722 
L 1656 0 
L 531 0 
L 531 3500 
L 1656 3500 
L 1656 2988 
Q 1863 3284 2130 3434 
Q 2397 3584 2719 3584 
Q 3081 3584 3359 3409 
Q 3638 3234 3781 2919 
z
" transform="scale(0.015625)"/>
      <path id="DejaVuSans-Bold-57" d="M 191 4666 
L 1344 4666 
L 2150 1275 
L 2950 4666 
L 4109 4666 
L 4909 1275 
L 5716 4666 
L 6859 4666 
L 5759 0 
L 4372 0 
L 3525 3547 
L 2688 0 
L 1300 0 
L 191 4666 
z
" transform="scale(0.015625)"/>
      <path id="DejaVuSans-Bold-6b" d="M 538 4863 
L 1656 4863 
L 1656 2216 
L 2944 3500 
L 4244 3500 
L 2534 1894 
L 4378 0 
L 3022 0 
L 1656 1459 
L 1656 0 
L 538 0 
L 538 4863 
z
" transform="scale(0.015625)"/>
      <path id="DejaVuSans-Bold-66" d="M 2841 4863 
L 2841 4128 
L 2222 4128 
Q 1984 4128 1890 4042 
Q 1797 3956 1797 3744 
L 1797 3500 
L 2753 3500 
L 2753 2700 
L 1797 2700 
L 1797 0 
L 678 0 
L 678 2700 
L 122 2700 
L 122 3500 
L 678 3500 
L 678 3744 
Q 678 4316 997 4589 
Q 1316 4863 1984 4863 
L 2841 4863 
z
" transform="scale(0.015625)"/>
      <path id="DejaVuSans-Bold-77" d="M 225 3500 
L 1313 3500 
L 1900 1088 
L 2491 3500 
L 3425 3500 
L 4013 1113 
L 4603 3500 
L 5691 3500 
L 4769 0 
L 3547 0 
L 2956 2406 
L 2369 0 
L 1147 0 
L 225 3500 
z
" transform="scale(0.015625)"/>
     </defs>
     <use xlink:href="#DejaVuSans-Bold-46"/>
     <use xlink:href="#DejaVuSans-Bold-69" transform="translate(68.310547 0)"/>
     <use xlink:href="#DejaVuSans-Bold-67" transform="translate(102.587891 0)"/>
     <use xlink:href="#DejaVuSans-Bold-75" transform="translate(174.169922 0)"/>
     <use xlink:href="#DejaVuSans-Bold-72" transform="translate(245.361328 0)"/>
     <use xlink:href="#DejaVuSans-Bold-65" transform="translate(294.677734 0)"/>
     <use xlink:href="#DejaVuSans-Bold-20" transform="translate(362.5 0)"/>
     <use xlink:href="#DejaVuSans-Bold-32" transform="translate(397.314453 0)"/>
     <use xlink:href="#DejaVuSans-Bold-20" transform="translate(466.894531 0)"/>
     <use xlink:href="#DejaVuSans-Bold-2013" transform="translate(501.708984 0)"/>
     <use xlink:href="#DejaVuSans-Bold-20" transform="translate(551.708984 0)"/>
     <use xlink:href="#DejaVuSans-Bold-56" transform="translate(586.523438 0)"/>
     <use xlink:href="#DejaVuSans-Bold-6f" transform="translate(658.416016 0)"/>
     <use xlink:href="#DejaVuSans-Bold-6c" transform="translate(727.117188 0)"/>
     <use xlink:href="#DejaVuSans-Bold-75" transform="translate(761.394531 0)"/>
     <use xlink:href="#DejaVuSans-Bold-6e" transform="translate(832.585938 0)"/>
     <use xlink:href="#DejaVuSans-Bold-74" transform="translate(903.777344 0)"/>
     <use xlink:href="#DejaVuSans-Bold-65" transform="translate(951.580078 0)"/>
     <use xlink:href="#DejaVuSans-Bold-65" transform="translate(1019.402344 0)"/>
     <use xlink:href="#DejaVuSans-Bold-72" transform="translate(1087.224609 0)"/>
     <use xlink:href="#DejaVuSans-Bold-20" transform="translate(1136.541016 0)"/>
     <use xlink:href="#DejaVuSans-Bold-41" transform="translate(1171.355469 0)"/>
     <use xlink:href="#DejaVuSans-Bold-6c" transform="translate(1248.748047 0)"/>
     <use xlink:href="#DejaVuSans-Bold-6c" transform="translate(1283.025391 0)"/>
     <use xlink:href="#DejaVuSans-Bold-6f" transform="translate(1317.302734 0)"/>
     <use xlink:href="#DejaVuSans-Bold-63" transform="translate(1386.003906 0)"/>
     <use xlink:href="#DejaVuSans-Bold-61" transform="translate(1445.28125 0)"/>
     <use xlink:href="#DejaVuSans-Bold-74" transform="translate(1512.761719 0)"/>
     <use xlink:href="#DejaVuSans-Bold-69" transform="translate(1560.564453 0)"/>
     <use xlink:href="#DejaVuSans-Bold-6f" transform="translate(1594.841797 0)"/>
     <use xlink:href="#DejaVuSans-Bold-6e" transform="translate(1663.542969 0)"/>
     <use xlink:href="#DejaVuSans-Bold-20" transform="translate(1734.734375 0)"/>
     <use xlink:href="#DejaVuSans-Bold-61" transform="translate(1769.548828 0)"/>
     <use xlink:href="#DejaVuSans-Bold-6e" transform="translate(1837.029297 0)"/>
     <use xlink:href="#DejaVuSans-Bold-64" transform="translate(1908.220703 0)"/>
     <use xlink:href="#DejaVuSans-Bold-20" transform="translate(1979.802734 0)"/>
     <use xlink:href="#DejaVuSans-Bold-41" transform="translate(2014.617188 0)"/>
     <use xlink:href="#DejaVuSans-Bold-6c" transform="translate(2092.009766 0)"/>
     <use xlink:href="#DejaVuSans-Bold-65" transform="translate(2126.287109 0)"/>
     <use xlink:href="#DejaVuSans-Bold-72" transform="translate(2194.109375 0)"/>
     <use xlink:href="#DejaVuSans-Bold-74" transform="translate(2243.425781 0)"/>
     <use xlink:href="#DejaVuSans-Bold-20" transform="translate(2291.228516 0)"/>
     <use xlink:href="#DejaVuSans-Bold-4d" transform="translate(2326.042969 0)"/>
     <use xlink:href="#DejaVuSans-Bold-61" transform="translate(2425.554688 0)"/>
     <use xlink:href="#DejaVuSans-Bold-6e" transform="translate(2493.035156 0)"/>
     <use xlink:href="#DejaVuSans-Bold-61" transform="translate(2564.226562 0)"/>
     <use xlink:href="#DejaVuSans-Bold-67" transform="translate(2631.707031 0)"/>
     <use xlink:href="#DejaVuSans-Bold-65" transform="translate(2703.289062 0)"/>
     <use xlink:href="#DejaVuSans-Bold-6d" transform="translate(2771.111328 0)"/>
     <use xlink:href="#DejaVuSans-Bold-65" transform="translate(2875.310547 0)"/>
     <use xlink:href="#DejaVuSans-Bold-6e" transform="translate(2943.132812 0)"/>
     <use xlink:href="#DejaVuSans-Bold-74" transform="translate(3014.324219 0)"/>
     <use xlink:href="#DejaVuSans-Bold-20" transform="translate(3062.126953 0)"/>
     <use xlink:href="#DejaVuSans-Bold-57" transform="translate(3096.941406 0)"/>
     <use xlink:href="#DejaVuSans-Bold-6f" transform="translate(3203.619141 0)"/>
     <use xlink:href="#DejaVuSans-Bold-72" transform="translate(3272.320312 0)"/>
     <use xlink:href="#DejaVuSans-Bold-6b" transform="translate(3321.636719 0)"/>
     <use xlink:href="#DejaVuSans-Bold-66" transform="translate(3388.140625 0)"/>
     <use xlink:href="#DejaVuSans-Bold-6c" transform="translate(3431.646484 0)"/>
     <use xlink:href="#DejaVuSans-Bold-6f" transform="translate(3465.923828 0)"/>
     <use xlink:href="#DejaVuSans-Bold-77" transform="translate(3534.625 0)"/>
    </g>
   </g>
   <g id="text_2">
    <!-- Project: CrowdShield AI • Adaptive Resource Allocation -->
    <g style="fill: #475569" transform="translate(181.112344 83.818872) scale(0.11 -0.11)">
     <defs>
      <path id="DejaVuSans-Bold-50" d="M 588 4666 
L 2584 4666 
Q 3475 4666 3951 4270 
Q 4428 3875 4428 3144 
Q 4428 2409 3951 2014 
Q 3475 1619 2584 1619 
L 1791 1619 
L 1791 0 
L 588 0 
L 588 4666 
z
M 1791 3794 
L 1791 2491 
L 2456 2491 
Q 2806 2491 2997 2661 
Q 3188 2831 3188 3144 
Q 3188 3456 2997 3625 
Q 2806 3794 2456 3794 
L 1791 3794 
z
" transform="scale(0.015625)"/>
      <path id="DejaVuSans-Bold-6a" d="M 538 3500 
L 1656 3500 
L 1656 63 
Q 1656 -641 1318 -1011 
Q 981 -1381 341 -1381 
L -213 -1381 
L -213 -647 
L -19 -647 
Q 300 -647 419 -503 
Q 538 -359 538 63 
L 538 3500 
z
M 538 4863 
L 1656 4863 
L 1656 3950 
L 538 3950 
L 538 4863 
z
" transform="scale(0.015625)"/>
      <path id="DejaVuSans-Bold-3a" d="M 716 3500 
L 1844 3500 
L 1844 2291 
L 716 2291 
L 716 3500 
z
M 716 1209 
L 1844 1209 
L 1844 0 
L 716 0 
L 716 1209 
z
" transform="scale(0.015625)"/>
      <path id="DejaVuSans-Bold-43" d="M 4288 256 
Q 3956 84 3597 -3 
Q 3238 -91 2847 -91 
Q 1681 -91 1000 561 
Q 319 1213 319 2328 
Q 319 3447 1000 4098 
Q 1681 4750 2847 4750 
Q 3238 4750 3597 4662 
Q 3956 4575 4288 4403 
L 4288 3438 
Q 3953 3666 3628 3772 
Q 3303 3878 2944 3878 
Q 2300 3878 1931 3465 
Q 1563 3053 1563 2328 
Q 1563 1606 1931 1193 
Q 2300 781 2944 781 
Q 3303 781 3628 887 
Q 3953 994 4288 1222 
L 4288 256 
z
" transform="scale(0.015625)"/>
      <path id="DejaVuSans-Bold-53" d="M 3834 4519 
L 3834 3531 
Q 3450 3703 3084 3790 
Q 2719 3878 2394 3878 
Q 1963 3878 1756 3759 
Q 1550 3641 1550 3391 
Q 1550 3203 1689 3098 
Q 1828 2994 2194 2919 
L 2706 2816 
Q 3484 2659 3812 2340 
Q 4141 2022 4141 1434 
Q 4141 663 3683 286 
Q 3225 -91 2284 -91 
Q 1841 -91 1394 -6 
Q 947 78 500 244 
L 500 1259 
Q 947 1022 1364 901 
Q 1781 781 2169 781 
Q 2563 781 2772 912 
Q 2981 1044 2981 1288 
Q 2981 1506 2839 1625 
Q 2697 1744 2272 1838 
L 1806 1941 
Q 1106 2091 782 2419 
Q 459 2747 459 3303 
Q 459 4000 909 4375 
Q 1359 4750 2203 4750 
Q 2588 4750 2994 4692 
Q 3400 4634 3834 4519 
z
" transform="scale(0.015625)"/>
      <path id="DejaVuSans-Bold-68" d="M 4056 2131 
L 4056 0 
L 2931 0 
L 2931 347 
L 2931 1625 
Q 2931 2084 2911 2256 
Q 2891 2428 2841 2509 
Q 2775 2619 2662 2680 
Q 2550 2741 2406 2741 
Q 2056 2741 1856 2470 
Q 1656 2200 1656 1722 
L 1656 0 
L 538 0 
L 538 4863 
L 1656 4863 
L 1656 2988 
Q 1909 3294 2193 3439 
Q 2478 3584 2822 3584 
Q 3428 3584 3742 3212 
Q 4056 2841 4056 2131 
z
" transform="scale(0.015625)"/>
      <path id="DejaVuSans-Bold-49" d="M 588 4666 
L 1791 4666 
L 1791 0 
L 588 0 
L 588 4666 
z
" transform="scale(0.015625)"/>
      <path id="DejaVuSans-Bold-2022" d="M 922 2381 
Q 922 2613 1005 2816 
Q 1088 3019 1247 3175 
Q 1413 3334 1616 3417 
Q 1819 3500 2047 3500 
Q 2275 3500 2479 3415 
Q 2684 3331 2841 3175 
Q 3003 3013 3086 2811 
Q 3169 2609 3169 2381 
Q 3169 2150 3084 1945 
Q 3000 1741 2841 1581 
Q 2681 1422 2476 1337 
Q 2272 1253 2041 1253 
Q 1813 1253 1609 1337 
Q 1406 1422 1247 1581 
Q 1091 1741 1006 1945 
Q 922 2150 922 2381 
z
" transform="scale(0.015625)"/>
      <path id="DejaVuSans-Bold-70" d="M 1656 506 
L 1656 -1331 
L 538 -1331 
L 538 3500 
L 1656 3500 
L 1656 2988 
Q 1888 3294 2169 3439 
Q 2450 3584 2816 3584 
Q 3463 3584 3878 3070 
Q 4294 2556 4294 1747 
Q 4294 938 3878 423 
Q 3463 -91 2816 -91 
Q 2450 -91 2169 54 
Q 1888 200 1656 506 
z
M 2400 2772 
Q 2041 2772 1848 2508 
Q 1656 2244 1656 1747 
Q 1656 1250 1848 986 
Q 2041 722 2400 722 
Q 2759 722 2948 984 
Q 3138 1247 3138 1747 
Q 3138 2247 2948 2509 
Q 2759 2772 2400 2772 
z
" transform="scale(0.015625)"/>
      <path id="DejaVuSans-Bold-76" d="M 97 3500 
L 1216 3500 
L 2088 1081 
L 2956 3500 
L 4078 3500 
L 2700 0 
L 1472 0 
L 97 3500 
z
" transform="scale(0.015625)"/>
      <path id="DejaVuSans-Bold-52" d="M 2297 2597 
Q 2675 2597 2839 2737 
Q 3003 2878 3003 3200 
Q 3003 3519 2839 3656 
Q 2675 3794 2297 3794 
L 1791 3794 
L 1791 2597 
L 2297 2597 
z
M 1791 1766 
L 1791 0 
L 588 0 
L 588 4666 
L 2425 4666 
Q 3347 4666 3776 4356 
Q 4206 4047 4206 3378 
Q 4206 2916 3982 2619 
Q 3759 2322 3309 2181 
Q 3556 2125 3751 1926 
Q 3947 1728 4147 1325 
L 4800 0 
L 3519 0 
L 2950 1159 
Q 2778 1509 2601 1637 
Q 2425 1766 2131 1766 
L 1791 1766 
z
" transform="scale(0.015625)"/>
      <path id="DejaVuSans-Bold-73" d="M 3272 3391 
L 3272 2541 
Q 2913 2691 2578 2766 
Q 2244 2841 1947 2841 
Q 1628 2841 1473 2761 
Q 1319 2681 1319 2516 
Q 1319 2381 1436 2309 
Q 1553 2238 1856 2203 
L 2053 2175 
Q 2913 2066 3209 1816 
Q 3506 1566 3506 1031 
Q 3506 472 3093 190 
Q 2681 -91 1863 -91 
Q 1516 -91 1145 -36 
Q 775 19 384 128 
L 384 978 
Q 719 816 1070 734 
Q 1422 653 1784 653 
Q 2113 653 2278 743 
Q 2444 834 2444 1013 
Q 2444 1163 2330 1236 
Q 2216 1309 1875 1350 
L 1678 1375 
Q 931 1469 631 1722 
Q 331 1975 331 2491 
Q 331 3047 712 3315 
Q 1094 3584 1881 3584 
Q 2191 3584 2531 3537 
Q 2872 3491 3272 3391 
z
" transform="scale(0.015625)"/>
     </defs>
     <use xlink:href="#DejaVuSans-Bold-50"/>
     <use xlink:href="#DejaVuSans-Bold-72" transform="translate(73.291016 0)"/>
     <use xlink:href="#DejaVuSans-Bold-6f" transform="translate(122.607422 0)"/>
     <use xlink:href="#DejaVuSans-Bold-6a" transform="translate(191.308594 0)"/>
     <use xlink:href="#DejaVuSans-Bold-65" transform="translate(225.585938 0)"/>
     <use xlink:href="#DejaVuSans-Bold-63" transform="translate(293.408203 0)"/>
     <use xlink:href="#DejaVuSans-Bold-74" transform="translate(352.685547 0)"/>
     <use xlink:href="#DejaVuSans-Bold-3a" transform="translate(400.488281 0)"/>
     <use xlink:href="#DejaVuSans-Bold-20" transform="translate(440.478516 0)"/>
     <use xlink:href="#DejaVuSans-Bold-43" transform="translate(475.292969 0)"/>
     <use xlink:href="#DejaVuSans-Bold-72" transform="translate(548.681641 0)"/>
     <use xlink:href="#DejaVuSans-Bold-6f" transform="translate(597.998047 0)"/>
     <use xlink:href="#DejaVuSans-Bold-77" transform="translate(666.699219 0)"/>
     <use xlink:href="#DejaVuSans-Bold-64" transform="translate(759.082031 0)"/>
     <use xlink:href="#DejaVuSans-Bold-53" transform="translate(830.664062 0)"/>
     <use xlink:href="#DejaVuSans-Bold-68" transform="translate(902.685547 0)"/>
     <use xlink:href="#DejaVuSans-Bold-69" transform="translate(973.876953 0)"/>
     <use xlink:href="#DejaVuSans-Bold-65" transform="translate(1008.154297 0)"/>
     <use xlink:href="#DejaVuSans-Bold-6c" transform="translate(1075.976562 0)"/>
     <use xlink:href="#DejaVuSans-Bold-64" transform="translate(1110.253906 0)"/>
     <use xlink:href="#DejaVuSans-Bold-20" transform="translate(1181.835938 0)"/>
     <use xlink:href="#DejaVuSans-Bold-41" transform="translate(1216.650391 0)"/>
     <use xlink:href="#DejaVuSans-Bold-49" transform="translate(1294.042969 0)"/>
     <use xlink:href="#DejaVuSans-Bold-20" transform="translate(1331.25 0)"/>
     <use xlink:href="#DejaVuSans-Bold-2022" transform="translate(1366.064453 0)"/>
     <use xlink:href="#DejaVuSans-Bold-20" transform="translate(1429.980469 0)"/>
     <use xlink:href="#DejaVuSans-Bold-41" transform="translate(1464.794922 0)"/>
     <use xlink:href="#DejaVuSans-Bold-64" transform="translate(1542.1875 0)"/>
     <use xlink:href="#DejaVuSans-Bold-61" transform="translate(1613.769531 0)"/>
     <use xlink:href="#DejaVuSans-Bold-70" transform="translate(1681.25 0)"/>
     <use xlink:href="#DejaVuSans-Bold-74" transform="translate(1752.832031 0)"/>
     <use xlink:href="#DejaVuSans-Bold-69" transform="translate(1800.634766 0)"/>
     <use xlink:href="#DejaVuSans-Bold-76" transform="translate(1834.912109 0)"/>
     <use xlink:href="#DejaVuSans-Bold-65" transform="translate(1900.097656 0)"/>
     <use xlink:href="#DejaVuSans-Bold-20" transform="translate(1967.919922 0)"/>
     <use xlink:href="#DejaVuSans-Bold-52" transform="translate(2002.734375 0)"/>
     <use xlink:href="#DejaVuSans-Bold-65" transform="translate(2079.736328 0)"/>
     <use xlink:href="#DejaVuSans-Bold-73" transform="translate(2147.558594 0)"/>
     <use xlink:href="#DejaVuSans-Bold-6f" transform="translate(2207.080078 0)"/>
     <use xlink:href="#DejaVuSans-Bold-75" transform="translate(2275.78125 0)"/>
     <use xlink:href="#DejaVuSans-Bold-72" transform="translate(2346.972656 0)"/>
     <use xlink:href="#DejaVuSans-Bold-63" transform="translate(2396.289062 0)"/>
     <use xlink:href="#DejaVuSans-Bold-65" transform="translate(2455.566406 0)"/>
     <use xlink:href="#DejaVuSans-Bold-20" transform="translate(2523.388672 0)"/>
     <use xlink:href="#DejaVuSans-Bold-41" transform="translate(2558.203125 0)"/>
     <use xlink:href="#DejaVuSans-Bold-6c" transform="translate(2635.595703 0)"/>
     <use xlink:href="#DejaVuSans-Bold-6c" transform="translate(2669.873047 0)"/>
     <use xlink:href="#DejaVuSans-Bold-6f" transform="translate(2704.150391 0)"/>
     <use xlink:href="#DejaVuSans-Bold-63" transform="translate(2772.851562 0)"/>
     <use xlink:href="#DejaVuSans-Bold-61" transform="translate(2832.128906 0)"/>
     <use xlink:href="#DejaVuSans-Bold-74" transform="translate(2899.609375 0)"/>
     <use xlink:href="#DejaVuSans-Bold-69" transform="translate(2947.412109 0)"/>
     <use xlink:href="#DejaVuSans-Bold-6f" transform="translate(2981.689453 0)"/>
     <use xlink:href="#DejaVuSans-Bold-6e" transform="translate(3050.390625 0)"/>
    </g>
   </g>
   <g id="text_3">
    <!-- START -->
    <g style="fill: #ffffff" transform="translate(253.152859 139.600224) scale(0.115 -0.115)">
     <defs>
      <path id="DejaVuSans-Bold-54" d="M 31 4666 
L 4331 4666 
L 4331 3756 
L 2784 3756 
L 2784 0 
L 1581 0 
L 1581 3756 
L 31 3756 
L 31 4666 
z
" transform="scale(0.015625)"/>
     </defs>
     <use xlink:href="#DejaVuSans-Bold-53"/>
     <use xlink:href="#DejaVuSans-Bold-54" transform="translate(72.021484 0)"/>
     <use xlink:href="#DejaVuSans-Bold-41" transform="translate(132.484375 0)"/>
     <use xlink:href="#DejaVuSans-Bold-52" transform="translate(209.876953 0)"/>
     <use xlink:href="#DejaVuSans-Bold-54" transform="translate(282.378906 0)"/>
    </g>
   </g>
   <g id="text_4">
    <!-- Receive AI Prediction -->
    <g style="fill: #0f172a" transform="translate(207.257 211.984535) scale(0.11 -0.11)">
     <use xlink:href="#DejaVuSans-Bold-52"/>
     <use xlink:href="#DejaVuSans-Bold-65" transform="translate(77.001953 0)"/>
     <use xlink:href="#DejaVuSans-Bold-63" transform="translate(144.824219 0)"/>
     <use xlink:href="#DejaVuSans-Bold-65" transform="translate(204.101562 0)"/>
     <use xlink:href="#DejaVuSans-Bold-69" transform="translate(271.923828 0)"/>
     <use xlink:href="#DejaVuSans-Bold-76" transform="translate(306.201172 0)"/>
     <use xlink:href="#DejaVuSans-Bold-65" transform="translate(371.386719 0)"/>
     <use xlink:href="#DejaVuSans-Bold-20" transform="translate(439.208984 0)"/>
     <use xlink:href="#DejaVuSans-Bold-41" transform="translate(474.023438 0)"/>
     <use xlink:href="#DejaVuSans-Bold-49" transform="translate(551.416016 0)"/>
     <use xlink:href="#DejaVuSans-Bold-20" transform="translate(588.623047 0)"/>
     <use xlink:href="#DejaVuSans-Bold-50" transform="translate(623.4375 0)"/>
     <use xlink:href="#DejaVuSans-Bold-72" transform="translate(696.728516 0)"/>
     <use xlink:href="#DejaVuSans-Bold-65" transform="translate(746.044922 0)"/>
     <use xlink:href="#DejaVuSans-Bold-64" transform="translate(813.867188 0)"/>
     <use xlink:href="#DejaVuSans-Bold-69" transform="translate(885.449219 0)"/>
     <use xlink:href="#DejaVuSans-Bold-63" transform="translate(919.726562 0)"/>
     <use xlink:href="#DejaVuSans-Bold-74" transform="translate(979.003906 0)"/>
     <use xlink:href="#DejaVuSans-Bold-69" transform="translate(1026.806641 0)"/>
     <use xlink:href="#DejaVuSans-Bold-6f" transform="translate(1061.083984 0)"/>
     <use xlink:href="#DejaVuSans-Bold-6e" transform="translate(1129.785156 0)"/>
    </g>
   </g>
   <g id="text_5">
    <!-- Check Required Volunteers -->
    <g style="fill: #0f172a" transform="translate(189.275437 284.506815) scale(0.11 -0.11)">
     <defs>
      <path id="DejaVuSans-Bold-71" d="M 2181 2772 
Q 1825 2772 1636 2509 
Q 1447 2247 1447 1747 
Q 1447 1247 1636 984 
Q 1825 722 2181 722 
Q 2541 722 2730 984 
Q 2919 1247 2919 1747 
Q 2919 2247 2730 2509 
Q 2541 2772 2181 2772 
z
M 2919 506 
Q 2688 197 2409 53 
Q 2131 -91 1766 -91 
Q 1119 -91 703 423 
Q 288 938 288 1747 
Q 288 2556 703 3067 
Q 1119 3578 1766 3578 
Q 2131 3578 2409 3434 
Q 2688 3291 2919 2981 
L 2919 3500 
L 4044 3500 
L 4044 -1331 
L 2919 -1331 
L 2919 506 
z
" transform="scale(0.015625)"/>
     </defs>
     <use xlink:href="#DejaVuSans-Bold-43"/>
     <use xlink:href="#DejaVuSans-Bold-68" transform="translate(73.388672 0)"/>
     <use xlink:href="#DejaVuSans-Bold-65" transform="translate(144.580078 0)"/>
     <use xlink:href="#DejaVuSans-Bold-63" transform="translate(212.402344 0)"/>
     <use xlink:href="#DejaVuSans-Bold-6b" transform="translate(271.679688 0)"/>
     <use xlink:href="#DejaVuSans-Bold-20" transform="translate(338.183594 0)"/>
     <use xlink:href="#DejaVuSans-Bold-52" transform="translate(372.998047 0)"/>
     <use xlink:href="#DejaVuSans-Bold-65" transform="translate(450 0)"/>
     <use xlink:href="#DejaVuSans-Bold-71" transform="translate(517.822266 0)"/>
     <use xlink:href="#DejaVuSans-Bold-75" transform="translate(589.404297 0)"/>
     <use xlink:href="#DejaVuSans-Bold-69" transform="translate(660.595703 0)"/>
     <use xlink:href="#DejaVuSans-Bold-72" transform="translate(694.873047 0)"/>
     <use xlink:href="#DejaVuSans-Bold-65" transform="translate(744.189453 0)"/>
     <use xlink:href="#DejaVuSans-Bold-64" transform="translate(812.011719 0)"/>
     <use xlink:href="#DejaVuSans-Bold-20" transform="translate(883.59375 0)"/>
     <use xlink:href="#DejaVuSans-Bold-56" transform="translate(918.408203 0)"/>
     <use xlink:href="#DejaVuSans-Bold-6f" transform="translate(990.300781 0)"/>
     <use xlink:href="#DejaVuSans-Bold-6c" transform="translate(1059.001953 0)"/>
     <use xlink:href="#DejaVuSans-Bold-75" transform="translate(1093.279297 0)"/>
     <use xlink:href="#DejaVuSans-Bold-6e" transform="translate(1164.470703 0)"/>
     <use xlink:href="#DejaVuSans-Bold-74" transform="translate(1235.662109 0)"/>
     <use xlink:href="#DejaVuSans-Bold-65" transform="translate(1283.464844 0)"/>
     <use xlink:href="#DejaVuSans-Bold-65" transform="translate(1351.287109 0)"/>
     <use xlink:href="#DejaVuSans-Bold-72" transform="translate(1419.109375 0)"/>
     <use xlink:href="#DejaVuSans-Bold-73" transform="translate(1468.425781 0)"/>
    </g>
   </g>
   <g id="text_6">
    <!-- Volunteer -->
    <g style="fill: #1e3a8a" transform="translate(244.43618 381.229891) scale(0.105 -0.105)">
     <use xlink:href="#DejaVuSans-Bold-56"/>
     <use xlink:href="#DejaVuSans-Bold-6f" transform="translate(71.892578 0)"/>
     <use xlink:href="#DejaVuSans-Bold-6c" transform="translate(140.59375 0)"/>
     <use xlink:href="#DejaVuSans-Bold-75" transform="translate(174.871094 0)"/>
     <use xlink:href="#DejaVuSans-Bold-6e" transform="translate(246.0625 0)"/>
     <use xlink:href="#DejaVuSans-Bold-74" transform="translate(317.253906 0)"/>
     <use xlink:href="#DejaVuSans-Bold-65" transform="translate(365.056641 0)"/>
     <use xlink:href="#DejaVuSans-Bold-65" transform="translate(432.878906 0)"/>
     <use xlink:href="#DejaVuSans-Bold-72" transform="translate(500.701172 0)"/>
    </g>
    <!-- Deficit? -->
    <g style="fill: #1e3a8a" transform="translate(250.842 392.987594) scale(0.105 -0.105)">
     <defs>
      <path id="DejaVuSans-Bold-44" d="M 1791 3756 
L 1791 909 
L 2222 909 
Q 2959 909 3348 1275 
Q 3738 1641 3738 2338 
Q 3738 3031 3350 3393 
Q 2963 3756 2222 3756 
L 1791 3756 
z
M 588 4666 
L 1856 4666 
Q 2919 4666 3439 4514 
Q 3959 4363 4331 4000 
Q 4659 3684 4818 3271 
Q 4978 2859 4978 2338 
Q 4978 1809 4818 1395 
Q 4659 981 4331 666 
Q 3956 303 3431 151 
Q 2906 0 1856 0 
L 588 0 
L 588 4666 
z
" transform="scale(0.015625)"/>
      <path id="DejaVuSans-Bold-3f" d="M 2216 1575 
L 1088 1575 
L 1088 1728 
Q 1088 1984 1191 2182 
Q 1294 2381 1625 2688 
L 1825 2869 
Q 2003 3031 2086 3175 
Q 2169 3319 2169 3463 
Q 2169 3681 2019 3804 
Q 1869 3928 1600 3928 
Q 1347 3928 1053 3823 
Q 759 3719 441 3513 
L 441 4494 
Q 819 4625 1131 4687 
Q 1444 4750 1734 4750 
Q 2497 4750 2897 4439 
Q 3297 4128 3297 3531 
Q 3297 3225 3175 2983 
Q 3053 2741 2759 2463 
L 2559 2284 
Q 2347 2091 2281 1973 
Q 2216 1856 2216 1716 
L 2216 1575 
z
M 1088 1113 
L 2216 1113 
L 2216 0 
L 1088 0 
L 1088 1113 
z
" transform="scale(0.015625)"/>
     </defs>
     <use xlink:href="#DejaVuSans-Bold-44"/>
     <use xlink:href="#DejaVuSans-Bold-65" transform="translate(83.007812 0)"/>
     <use xlink:href="#DejaVuSans-Bold-66" transform="translate(150.830078 0)"/>
     <use xlink:href="#DejaVuSans-Bold-69" transform="translate(194.335938 0)"/>
     <use xlink:href="#DejaVuSans-Bold-63" transform="translate(228.613281 0)"/>
     <use xlink:href="#DejaVuSans-Bold-69" transform="translate(287.890625 0)"/>
     <use xlink:href="#DejaVuSans-Bold-74" transform="translate(322.167969 0)"/>
     <use xlink:href="#DejaVuSans-Bold-3f" transform="translate(369.970703 0)"/>
    </g>
   </g>
   <g id="text_7">
    <!-- Maintain Current -->
    <g style="fill: #0f172a" transform="translate(517.823703 381.390377) scale(0.098 -0.098)">
     <use xlink:href="#DejaVuSans-Bold-4d"/>
     <use xlink:href="#DejaVuSans-Bold-61" transform="translate(99.511719 0)"/>
     <use xlink:href="#DejaVuSans-Bold-69" transform="translate(166.992188 0)"/>
     <use xlink:href="#DejaVuSans-Bold-6e" transform="translate(201.269531 0)"/>
     <use xlink:href="#DejaVuSans-Bold-74" transform="translate(272.460938 0)"/>
     <use xlink:href="#DejaVuSans-Bold-61" transform="translate(320.263672 0)"/>
     <use xlink:href="#DejaVuSans-Bold-69" transform="translate(387.744141 0)"/>
     <use xlink:href="#DejaVuSans-Bold-6e" transform="translate(422.021484 0)"/>
     <use xlink:href="#DejaVuSans-Bold-20" transform="translate(493.212891 0)"/>
     <use xlink:href="#DejaVuSans-Bold-43" transform="translate(528.027344 0)"/>
     <use xlink:href="#DejaVuSans-Bold-75" transform="translate(601.416016 0)"/>
     <use xlink:href="#DejaVuSans-Bold-72" transform="translate(672.607422 0)"/>
     <use xlink:href="#DejaVuSans-Bold-72" transform="translate(721.923828 0)"/>
     <use xlink:href="#DejaVuSans-Bold-65" transform="translate(771.240234 0)"/>
     <use xlink:href="#DejaVuSans-Bold-6e" transform="translate(839.0625 0)"/>
     <use xlink:href="#DejaVuSans-Bold-74" transform="translate(910.253906 0)"/>
    </g>
    <!-- Assignment -->
    <g style="fill: #0f172a" transform="translate(532.208266 392.364233) scale(0.098 -0.098)">
     <use xlink:href="#DejaVuSans-Bold-41"/>
     <use xlink:href="#DejaVuSans-Bold-73" transform="translate(77.392578 0)"/>
     <use xlink:href="#DejaVuSans-Bold-73" transform="translate(136.914062 0)"/>
     <use xlink:href="#DejaVuSans-Bold-69" transform="translate(196.435547 0)"/>
     <use xlink:href="#DejaVuSans-Bold-67" transform="translate(230.712891 0)"/>
     <use xlink:href="#DejaVuSans-Bold-6e" transform="translate(302.294922 0)"/>
     <use xlink:href="#DejaVuSans-Bold-6d" transform="translate(373.486328 0)"/>
     <use xlink:href="#DejaVuSans-Bold-65" transform="translate(477.685547 0)"/>
     <use xlink:href="#DejaVuSans-Bold-6e" transform="translate(545.507812 0)"/>
     <use xlink:href="#DejaVuSans-Bold-74" transform="translate(616.699219 0)"/>
    </g>
   </g>
   <g id="text_8">
    <!-- Update Dashboard -->
    <g style="fill: #0f172a" transform="translate(512.160969 471.5801) scale(0.1 -0.1)">
     <defs>
      <path id="DejaVuSans-Bold-55" d="M 588 4666 
L 1791 4666 
L 1791 1869 
Q 1791 1291 1980 1042 
Q 2169 794 2597 794 
Q 3028 794 3217 1042 
Q 3406 1291 3406 1869 
L 3406 4666 
L 4609 4666 
L 4609 1869 
Q 4609 878 4112 393 
Q 3616 -91 2597 -91 
Q 1581 -91 1084 393 
Q 588 878 588 1869 
L 588 4666 
z
" transform="scale(0.015625)"/>
      <path id="DejaVuSans-Bold-62" d="M 2400 722 
Q 2759 722 2948 984 
Q 3138 1247 3138 1747 
Q 3138 2247 2948 2509 
Q 2759 2772 2400 2772 
Q 2041 2772 1848 2508 
Q 1656 2244 1656 1747 
Q 1656 1250 1848 986 
Q 2041 722 2400 722 
z
M 1656 2988 
Q 1888 3294 2169 3439 
Q 2450 3584 2816 3584 
Q 3463 3584 3878 3070 
Q 4294 2556 4294 1747 
Q 4294 938 3878 423 
Q 3463 -91 2816 -91 
Q 2450 -91 2169 54 
Q 1888 200 1656 506 
L 1656 0 
L 538 0 
L 538 4863 
L 1656 4863 
L 1656 2988 
z
" transform="scale(0.015625)"/>
     </defs>
     <use xlink:href="#DejaVuSans-Bold-55"/>
     <use xlink:href="#DejaVuSans-Bold-70" transform="translate(81.201172 0)"/>
     <use xlink:href="#DejaVuSans-Bold-64" transform="translate(152.783203 0)"/>
     <use xlink:href="#DejaVuSans-Bold-61" transform="translate(224.365234 0)"/>
     <use xlink:href="#DejaVuSans-Bold-74" transform="translate(291.845703 0)"/>
     <use xlink:href="#DejaVuSans-Bold-65" transform="translate(339.648438 0)"/>
     <use xlink:href="#DejaVuSans-Bold-20" transform="translate(407.470703 0)"/>
     <use xlink:href="#DejaVuSans-Bold-44" transform="translate(442.285156 0)"/>
     <use xlink:href="#DejaVuSans-Bold-61" transform="translate(525.292969 0)"/>
     <use xlink:href="#DejaVuSans-Bold-73" transform="translate(592.773438 0)"/>
     <use xlink:href="#DejaVuSans-Bold-68" transform="translate(652.294922 0)"/>
     <use xlink:href="#DejaVuSans-Bold-62" transform="translate(723.486328 0)"/>
     <use xlink:href="#DejaVuSans-Bold-6f" transform="translate(795.068359 0)"/>
     <use xlink:href="#DejaVuSans-Bold-61" transform="translate(863.769531 0)"/>
     <use xlink:href="#DejaVuSans-Bold-72" transform="translate(931.25 0)"/>
     <use xlink:href="#DejaVuSans-Bold-64" transform="translate(980.566406 0)"/>
    </g>
   </g>
   <g id="text_9">
    <!-- END -->
    <g style="fill: #ffffff" transform="translate(551.254602 550.55981) scale(0.115 -0.115)">
     <defs>
      <path id="DejaVuSans-Bold-45" d="M 588 4666 
L 3834 4666 
L 3834 3756 
L 1791 3756 
L 1791 2888 
L 3713 2888 
L 3713 1978 
L 1791 1978 
L 1791 909 
L 3903 909 
L 3903 0 
L 588 0 
L 588 4666 
z
" transform="scale(0.015625)"/>
      <path id="DejaVuSans-Bold-4e" d="M 588 4666 
L 1931 4666 
L 3628 1466 
L 3628 4666 
L 4769 4666 
L 4769 0 
L 3425 0 
L 1728 3200 
L 1728 0 
L 588 0 
L 588 4666 
z
" transform="scale(0.015625)"/>
     </defs>
     <use xlink:href="#DejaVuSans-Bold-45"/>
     <use xlink:href="#DejaVuSans-Bold-4e" transform="translate(68.310547 0)"/>
     <use xlink:href="#DejaVuSans-Bold-44" transform="translate(152.001953 0)"/>
    </g>
   </g>
   <g id="text_10">
    <!-- NO -->
    <g style="fill: #b91c1c" transform="translate(420.119086 369.94068) scale(0.105 -0.105)">
     <defs>
      <path id="DejaVuSans-Bold-4f" d="M 2719 3878 
Q 2169 3878 1866 3472 
Q 1563 3066 1563 2328 
Q 1563 1594 1866 1187 
Q 2169 781 2719 781 
Q 3272 781 3575 1187 
Q 3878 1594 3878 2328 
Q 3878 3066 3575 3472 
Q 3272 3878 2719 3878 
z
M 2719 4750 
Q 3844 4750 4481 4106 
Q 5119 3463 5119 2328 
Q 5119 1197 4481 553 
Q 3844 -91 2719 -91 
Q 1597 -91 958 553 
Q 319 1197 319 2328 
Q 319 3463 958 4106 
Q 1597 4750 2719 4750 
z
" transform="scale(0.015625)"/>
     </defs>
     <use xlink:href="#DejaVuSans-Bold-4e"/>
     <use xlink:href="#DejaVuSans-Bold-4f" transform="translate(83.691406 0)"/>
    </g>
   </g>
   <g id="text_11">
    <!-- YES -->
    <g style="fill: #047857" transform="translate(287.8848 450.565738) scale(0.105 -0.105)">
     <defs>
      <path id="DejaVuSans-Bold-59" d="M -63 4666 
L 1253 4666 
L 2316 3003 
L 3378 4666 
L 4697 4666 
L 2919 1966 
L 2919 0 
L 1716 0 
L 1716 1966 
L -63 4666 
z
" transform="scale(0.015625)"/>
     </defs>
     <use xlink:href="#DejaVuSans-Bold-59"/>
     <use xlink:href="#DejaVuSans-Bold-45" transform="translate(72.412109 0)"/>
     <use xlink:href="#DejaVuSans-Bold-53" transform="translate(140.722656 0)"/>
    </g>
   </g>
   <g id="text_12">
    <!-- Find Available Volunteers -->
    <g style="fill: #0f172a" transform="translate(194.074187 496.030131) scale(0.11 -0.11)">
     <use xlink:href="#DejaVuSans-Bold-46"/>
     <use xlink:href="#DejaVuSans-Bold-69" transform="translate(68.310547 0)"/>
     <use xlink:href="#DejaVuSans-Bold-6e" transform="translate(102.587891 0)"/>
     <use xlink:href="#DejaVuSans-Bold-64" transform="translate(173.779297 0)"/>
     <use xlink:href="#DejaVuSans-Bold-20" transform="translate(245.361328 0)"/>
     <use xlink:href="#DejaVuSans-Bold-41" transform="translate(280.175781 0)"/>
     <use xlink:href="#DejaVuSans-Bold-76" transform="translate(353.943359 0)"/>
     <use xlink:href="#DejaVuSans-Bold-61" transform="translate(419.128906 0)"/>
     <use xlink:href="#DejaVuSans-Bold-69" transform="translate(486.609375 0)"/>
     <use xlink:href="#DejaVuSans-Bold-6c" transform="translate(520.886719 0)"/>
     <use xlink:href="#DejaVuSans-Bold-61" transform="translate(555.164062 0)"/>
     <use xlink:href="#DejaVuSans-Bold-62" transform="translate(622.644531 0)"/>
     <use xlink:href="#DejaVuSans-Bold-6c" transform="translate(694.226562 0)"/>
     <use xlink:href="#DejaVuSans-Bold-65" transform="translate(728.503906 0)"/>
     <use xlink:href="#DejaVuSans-Bold-20" transform="translate(796.326172 0)"/>
     <use xlink:href="#DejaVuSans-Bold-56" transform="translate(831.140625 0)"/>
     <use xlink:href="#DejaVuSans-Bold-6f" transform="translate(903.033203 0)"/>
     <use xlink:href="#DejaVuSans-Bold-6c" transform="translate(971.734375 0)"/>
     <use xlink:href="#DejaVuSans-Bold-75" transform="translate(1006.011719 0)"/>
     <use xlink:href="#DejaVuSans-Bold-6e" transform="translate(1077.203125 0)"/>
     <use xlink:href="#DejaVuSans-Bold-74" transform="translate(1148.394531 0)"/>
     <use xlink:href="#DejaVuSans-Bold-65" transform="translate(1196.197266 0)"/>
     <use xlink:href="#DejaVuSans-Bold-65" transform="translate(1264.019531 0)"/>
     <use xlink:href="#DejaVuSans-Bold-72" transform="translate(1331.841797 0)"/>
     <use xlink:href="#DejaVuSans-Bold-73" transform="translate(1381.158203 0)"/>
    </g>
   </g>
   <g id="text_13">
    <!-- Assign Volunteers to High Priority Gate -->
    <g style="fill: #0f172a" transform="translate(156.675047 568.373427) scale(0.105 -0.105)">
     <defs>
      <path id="DejaVuSans-Bold-48" d="M 588 4666 
L 1791 4666 
L 1791 2888 
L 3566 2888 
L 3566 4666 
L 4769 4666 
L 4769 0 
L 3566 0 
L 3566 1978 
L 1791 1978 
L 1791 0 
L 588 0 
L 588 4666 
z
" transform="scale(0.015625)"/>
      <path id="DejaVuSans-Bold-79" d="M 78 3500 
L 1197 3500 
L 2138 1125 
L 2938 3500 
L 4056 3500 
L 2584 -331 
Q 2363 -916 2067 -1148 
Q 1772 -1381 1288 -1381 
L 641 -1381 
L 641 -647 
L 991 -647 
Q 1275 -647 1404 -556 
Q 1534 -466 1606 -231 
L 1638 -134 
L 78 3500 
z
" transform="scale(0.015625)"/>
      <path id="DejaVuSans-Bold-47" d="M 4781 347 
Q 4331 128 3847 18 
Q 3363 -91 2847 -91 
Q 1681 -91 1000 561 
Q 319 1213 319 2328 
Q 319 3456 1012 4103 
Q 1706 4750 2913 4750 
Q 3378 4750 3804 4662 
Q 4231 4575 4609 4403 
L 4609 3438 
Q 4219 3659 3833 3768 
Q 3447 3878 3059 3878 
Q 2341 3878 1952 3476 
Q 1563 3075 1563 2328 
Q 1563 1588 1938 1184 
Q 2313 781 3003 781 
Q 3191 781 3352 804 
Q 3513 828 3641 878 
L 3641 1784 
L 2906 1784 
L 2906 2591 
L 4781 2591 
L 4781 347 
z
" transform="scale(0.015625)"/>
     </defs>
     <use xlink:href="#DejaVuSans-Bold-41"/>
     <use xlink:href="#DejaVuSans-Bold-73" transform="translate(77.392578 0)"/>
     <use xlink:href="#DejaVuSans-Bold-73" transform="translate(136.914062 0)"/>
     <use xlink:href="#DejaVuSans-Bold-69" transform="translate(196.435547 0)"/>
     <use xlink:href="#DejaVuSans-Bold-67" transform="translate(230.712891 0)"/>
     <use xlink:href="#DejaVuSans-Bold-6e" transform="translate(302.294922 0)"/>
     <use xlink:href="#DejaVuSans-Bold-20" transform="translate(373.486328 0)"/>
     <use xlink:href="#DejaVuSans-Bold-56" transform="translate(408.300781 0)"/>
     <use xlink:href="#DejaVuSans-Bold-6f" transform="translate(480.193359 0)"/>
     <use xlink:href="#DejaVuSans-Bold-6c" transform="translate(548.894531 0)"/>
     <use xlink:href="#DejaVuSans-Bold-75" transform="translate(583.171875 0)"/>
     <use xlink:href="#DejaVuSans-Bold-6e" transform="translate(654.363281 0)"/>
     <use xlink:href="#DejaVuSans-Bold-74" transform="translate(725.554688 0)"/>
     <use xlink:href="#DejaVuSans-Bold-65" transform="translate(773.357422 0)"/>
     <use xlink:href="#DejaVuSans-Bold-65" transform="translate(841.179688 0)"/>
     <use xlink:href="#DejaVuSans-Bold-72" transform="translate(909.001953 0)"/>
     <use xlink:href="#DejaVuSans-Bold-73" transform="translate(958.318359 0)"/>
     <use xlink:href="#DejaVuSans-Bold-20" transform="translate(1017.839844 0)"/>
     <use xlink:href="#DejaVuSans-Bold-74" transform="translate(1052.654297 0)"/>
     <use xlink:href="#DejaVuSans-Bold-6f" transform="translate(1100.457031 0)"/>
     <use xlink:href="#DejaVuSans-Bold-20" transform="translate(1169.158203 0)"/>
     <use xlink:href="#DejaVuSans-Bold-48" transform="translate(1203.972656 0)"/>
     <use xlink:href="#DejaVuSans-Bold-69" transform="translate(1287.664062 0)"/>
     <use xlink:href="#DejaVuSans-Bold-67" transform="translate(1321.941406 0)"/>
     <use xlink:href="#DejaVuSans-Bold-68" transform="translate(1393.523438 0)"/>
     <use xlink:href="#DejaVuSans-Bold-20" transform="translate(1464.714844 0)"/>
     <use xlink:href="#DejaVuSans-Bold-50" transform="translate(1499.529297 0)"/>
     <use xlink:href="#DejaVuSans-Bold-72" transform="translate(1572.820312 0)"/>
     <use xlink:href="#DejaVuSans-Bold-69" transform="translate(1622.136719 0)"/>
     <use xlink:href="#DejaVuSans-Bold-6f" transform="translate(1656.414062 0)"/>
     <use xlink:href="#DejaVuSans-Bold-72" transform="translate(1725.115234 0)"/>
     <use xlink:href="#DejaVuSans-Bold-69" transform="translate(1774.431641 0)"/>
     <use xlink:href="#DejaVuSans-Bold-74" transform="translate(1808.708984 0)"/>
     <use xlink:href="#DejaVuSans-Bold-79" transform="translate(1856.511719 0)"/>
     <use xlink:href="#DejaVuSans-Bold-20" transform="translate(1921.697266 0)"/>
     <use xlink:href="#DejaVuSans-Bold-47" transform="translate(1956.511719 0)"/>
     <use xlink:href="#DejaVuSans-Bold-61" transform="translate(2038.591797 0)"/>
     <use xlink:href="#DejaVuSans-Bold-74" transform="translate(2106.072266 0)"/>
     <use xlink:href="#DejaVuSans-Bold-65" transform="translate(2153.875 0)"/>
    </g>
   </g>
   <g id="text_14">
    <!-- Update Volunteer Status -->
    <g style="fill: #0f172a" transform="translate(196.702156 641.074691) scale(0.11 -0.11)">
     <use xlink:href="#DejaVuSans-Bold-55"/>
     <use xlink:href="#DejaVuSans-Bold-70" transform="translate(81.201172 0)"/>
     <use xlink:href="#DejaVuSans-Bold-64" transform="translate(152.783203 0)"/>
     <use xlink:href="#DejaVuSans-Bold-61" transform="translate(224.365234 0)"/>
     <use xlink:href="#DejaVuSans-Bold-74" transform="translate(291.845703 0)"/>
     <use xlink:href="#DejaVuSans-Bold-65" transform="translate(339.648438 0)"/>
     <use xlink:href="#DejaVuSans-Bold-20" transform="translate(407.470703 0)"/>
     <use xlink:href="#DejaVuSans-Bold-56" transform="translate(442.285156 0)"/>
     <use xlink:href="#DejaVuSans-Bold-6f" transform="translate(514.177734 0)"/>
     <use xlink:href="#DejaVuSans-Bold-6c" transform="translate(582.878906 0)"/>
     <use xlink:href="#DejaVuSans-Bold-75" transform="translate(617.15625 0)"/>
     <use xlink:href="#DejaVuSans-Bold-6e" transform="translate(688.347656 0)"/>
     <use xlink:href="#DejaVuSans-Bold-74" transform="translate(759.539062 0)"/>
     <use xlink:href="#DejaVuSans-Bold-65" transform="translate(807.341797 0)"/>
     <use xlink:href="#DejaVuSans-Bold-65" transform="translate(875.164062 0)"/>
     <use xlink:href="#DejaVuSans-Bold-72" transform="translate(942.986328 0)"/>
     <use xlink:href="#DejaVuSans-Bold-20" transform="translate(992.302734 0)"/>
     <use xlink:href="#DejaVuSans-Bold-53" transform="translate(1027.117188 0)"/>
     <use xlink:href="#DejaVuSans-Bold-74" transform="translate(1099.138672 0)"/>
     <use xlink:href="#DejaVuSans-Bold-61" transform="translate(1146.941406 0)"/>
     <use xlink:href="#DejaVuSans-Bold-74" transform="translate(1214.421875 0)"/>
     <use xlink:href="#DejaVuSans-Bold-75" transform="translate(1262.224609 0)"/>
     <use xlink:href="#DejaVuSans-Bold-73" transform="translate(1333.416016 0)"/>
    </g>
   </g>
   <g id="text_15">
    <!-- Generate Notifications -->
    <g style="fill: #0f172a" transform="translate(203.095906 713.596971) scale(0.11 -0.11)">
     <use xlink:href="#DejaVuSans-Bold-47"/>
     <use xlink:href="#DejaVuSans-Bold-65" transform="translate(82.080078 0)"/>
     <use xlink:href="#DejaVuSans-Bold-6e" transform="translate(149.902344 0)"/>
     <use xlink:href="#DejaVuSans-Bold-65" transform="translate(221.09375 0)"/>
     <use xlink:href="#DejaVuSans-Bold-72" transform="translate(288.916016 0)"/>
     <use xlink:href="#DejaVuSans-Bold-61" transform="translate(338.232422 0)"/>
     <use xlink:href="#DejaVuSans-Bold-74" transform="translate(405.712891 0)"/>
     <use xlink:href="#DejaVuSans-Bold-65" transform="translate(453.515625 0)"/>
     <use xlink:href="#DejaVuSans-Bold-20" transform="translate(521.337891 0)"/>
     <use xlink:href="#DejaVuSans-Bold-4e" transform="translate(556.152344 0)"/>
     <use xlink:href="#DejaVuSans-Bold-6f" transform="translate(639.84375 0)"/>
     <use xlink:href="#DejaVuSans-Bold-74" transform="translate(708.544922 0)"/>
     <use xlink:href="#DejaVuSans-Bold-69" transform="translate(756.347656 0)"/>
     <use xlink:href="#DejaVuSans-Bold-66" transform="translate(790.625 0)"/>
     <use xlink:href="#DejaVuSans-Bold-69" transform="translate(834.130859 0)"/>
     <use xlink:href="#DejaVuSans-Bold-63" transform="translate(868.408203 0)"/>
     <use xlink:href="#DejaVuSans-Bold-61" transform="translate(927.685547 0)"/>
     <use xlink:href="#DejaVuSans-Bold-74" transform="translate(995.166016 0)"/>
     <use xlink:href="#DejaVuSans-Bold-69" transform="translate(1042.96875 0)"/>
     <use xlink:href="#DejaVuSans-Bold-6f" transform="translate(1077.246094 0)"/>
     <use xlink:href="#DejaVuSans-Bold-6e" transform="translate(1145.947266 0)"/>
     <use xlink:href="#DejaVuSans-Bold-73" transform="translate(1217.138672 0)"/>
    </g>
   </g>
   <g id="text_16">
    <!-- Update Dashboard -->
    <g style="fill: #0f172a" transform="translate(215.444266 786.11925) scale(0.11 -0.11)">
     <use xlink:href="#DejaVuSans-Bold-55"/>
     <use xlink:href="#DejaVuSans-Bold-70" transform="translate(81.201172 0)"/>
     <use xlink:href="#DejaVuSans-Bold-64" transform="translate(152.783203 0)"/>
     <use xlink:href="#DejaVuSans-Bold-61" transform="translate(224.365234 0)"/>
     <use xlink:href="#DejaVuSans-Bold-74" transform="translate(291.845703 0)"/>
     <use xlink:href="#DejaVuSans-Bold-65" transform="translate(339.648438 0)"/>
     <use xlink:href="#DejaVuSans-Bold-20" transform="translate(407.470703 0)"/>
     <use xlink:href="#DejaVuSans-Bold-44" transform="translate(442.285156 0)"/>
     <use xlink:href="#DejaVuSans-Bold-61" transform="translate(525.292969 0)"/>
     <use xlink:href="#DejaVuSans-Bold-73" transform="translate(592.773438 0)"/>
     <use xlink:href="#DejaVuSans-Bold-68" transform="translate(652.294922 0)"/>
     <use xlink:href="#DejaVuSans-Bold-62" transform="translate(723.486328 0)"/>
     <use xlink:href="#DejaVuSans-Bold-6f" transform="translate(795.068359 0)"/>
     <use xlink:href="#DejaVuSans-Bold-61" transform="translate(863.769531 0)"/>
     <use xlink:href="#DejaVuSans-Bold-72" transform="translate(931.25 0)"/>
     <use xlink:href="#DejaVuSans-Bold-64" transform="translate(980.566406 0)"/>
    </g>
   </g>
   <g id="text_17">
    <!-- Risk Level -->
    <g style="fill: #1e3a8a" transform="translate(243.336961 882.801311) scale(0.105 -0.105)">
     <defs>
      <path id="DejaVuSans-Bold-4c" d="M 588 4666 
L 1791 4666 
L 1791 909 
L 3903 909 
L 3903 0 
L 588 0 
L 588 4666 
z
" transform="scale(0.015625)"/>
     </defs>
     <use xlink:href="#DejaVuSans-Bold-52"/>
     <use xlink:href="#DejaVuSans-Bold-69" transform="translate(77.001953 0)"/>
     <use xlink:href="#DejaVuSans-Bold-73" transform="translate(111.279297 0)"/>
     <use xlink:href="#DejaVuSans-Bold-6b" transform="translate(170.800781 0)"/>
     <use xlink:href="#DejaVuSans-Bold-20" transform="translate(237.304688 0)"/>
     <use xlink:href="#DejaVuSans-Bold-4c" transform="translate(272.119141 0)"/>
     <use xlink:href="#DejaVuSans-Bold-65" transform="translate(335.839844 0)"/>
     <use xlink:href="#DejaVuSans-Bold-76" transform="translate(403.662109 0)"/>
     <use xlink:href="#DejaVuSans-Bold-65" transform="translate(468.847656 0)"/>
     <use xlink:href="#DejaVuSans-Bold-6c" transform="translate(536.669922 0)"/>
    </g>
    <!-- High? -->
    <g style="fill: #1e3a8a" transform="translate(256.577625 894.559014) scale(0.105 -0.105)">
     <use xlink:href="#DejaVuSans-Bold-48"/>
     <use xlink:href="#DejaVuSans-Bold-69" transform="translate(83.691406 0)"/>
     <use xlink:href="#DejaVuSans-Bold-67" transform="translate(117.96875 0)"/>
     <use xlink:href="#DejaVuSans-Bold-68" transform="translate(189.550781 0)"/>
     <use xlink:href="#DejaVuSans-Bold-3f" transform="translate(260.742188 0)"/>
    </g>
   </g>
   <g id="text_18">
    <!-- Continue -->
    <g style="fill: #0f172a" transform="translate(539.489875 882.94524) scale(0.1 -0.1)">
     <use xlink:href="#DejaVuSans-Bold-43"/>
     <use xlink:href="#DejaVuSans-Bold-6f" transform="translate(73.388672 0)"/>
     <use xlink:href="#DejaVuSans-Bold-6e" transform="translate(142.089844 0)"/>
     <use xlink:href="#DejaVuSans-Bold-74" transform="translate(213.28125 0)"/>
     <use xlink:href="#DejaVuSans-Bold-69" transform="translate(261.083984 0)"/>
     <use xlink:href="#DejaVuSans-Bold-6e" transform="translate(295.361328 0)"/>
     <use xlink:href="#DejaVuSans-Bold-75" transform="translate(366.552734 0)"/>
     <use xlink:href="#DejaVuSans-Bold-65" transform="translate(437.744141 0)"/>
    </g>
    <!-- Monitoring -->
    <g style="fill: #0f172a" transform="translate(533.940656 894.143053) scale(0.1 -0.1)">
     <use xlink:href="#DejaVuSans-Bold-4d"/>
     <use xlink:href="#DejaVuSans-Bold-6f" transform="translate(99.511719 0)"/>
     <use xlink:href="#DejaVuSans-Bold-6e" transform="translate(168.212891 0)"/>
     <use xlink:href="#DejaVuSans-Bold-69" transform="translate(239.404297 0)"/>
     <use xlink:href="#DejaVuSans-Bold-74" transform="translate(273.681641 0)"/>
     <use xlink:href="#DejaVuSans-Bold-6f" transform="translate(321.484375 0)"/>
     <use xlink:href="#DejaVuSans-Bold-72" transform="translate(390.185547 0)"/>
     <use xlink:href="#DejaVuSans-Bold-69" transform="translate(439.501953 0)"/>
     <use xlink:href="#DejaVuSans-Bold-6e" transform="translate(473.779297 0)"/>
     <use xlink:href="#DejaVuSans-Bold-67" transform="translate(544.970703 0)"/>
    </g>
   </g>
   <g id="text_19">
    <!-- END -->
    <g style="fill: #ffffff" transform="translate(551.254602 973.606442) scale(0.115 -0.115)">
     <use xlink:href="#DejaVuSans-Bold-45"/>
     <use xlink:href="#DejaVuSans-Bold-4e" transform="translate(68.310547 0)"/>
     <use xlink:href="#DejaVuSans-Bold-44" transform="translate(152.001953 0)"/>
    </g>
   </g>
   <g id="text_20">
    <!-- NO -->
    <g style="fill: #b91c1c" transform="translate(420.119086 871.553116) scale(0.105 -0.105)">
     <use xlink:href="#DejaVuSans-Bold-4e"/>
     <use xlink:href="#DejaVuSans-Bold-4f" transform="translate(83.691406 0)"/>
    </g>
   </g>
   <g id="text_21">
    <!-- YES -->
    <g style="fill: #047857" transform="translate(287.8848 952.178173) scale(0.105 -0.105)">
     <use xlink:href="#DejaVuSans-Bold-59"/>
     <use xlink:href="#DejaVuSans-Bold-45" transform="translate(72.412109 0)"/>
     <use xlink:href="#DejaVuSans-Bold-53" transform="translate(140.722656 0)"/>
    </g>
   </g>
   <g id="text_22">
    <!-- Generate Safety Alert -->
    <g style="fill: #0f172a" transform="translate(205.585516 997.599598) scale(0.11 -0.11)">
     <use xlink:href="#DejaVuSans-Bold-47"/>
     <use xlink:href="#DejaVuSans-Bold-65" transform="translate(82.080078 0)"/>
     <use xlink:href="#DejaVuSans-Bold-6e" transform="translate(149.902344 0)"/>
     <use xlink:href="#DejaVuSans-Bold-65" transform="translate(221.09375 0)"/>
     <use xlink:href="#DejaVuSans-Bold-72" transform="translate(288.916016 0)"/>
     <use xlink:href="#DejaVuSans-Bold-61" transform="translate(338.232422 0)"/>
     <use xlink:href="#DejaVuSans-Bold-74" transform="translate(405.712891 0)"/>
     <use xlink:href="#DejaVuSans-Bold-65" transform="translate(453.515625 0)"/>
     <use xlink:href="#DejaVuSans-Bold-20" transform="translate(521.337891 0)"/>
     <use xlink:href="#DejaVuSans-Bold-53" transform="translate(556.152344 0)"/>
     <use xlink:href="#DejaVuSans-Bold-61" transform="translate(628.173828 0)"/>
     <use xlink:href="#DejaVuSans-Bold-66" transform="translate(695.654297 0)"/>
     <use xlink:href="#DejaVuSans-Bold-65" transform="translate(739.160156 0)"/>
     <use xlink:href="#DejaVuSans-Bold-74" transform="translate(806.982422 0)"/>
     <use xlink:href="#DejaVuSans-Bold-79" transform="translate(854.785156 0)"/>
     <use xlink:href="#DejaVuSans-Bold-20" transform="translate(919.970703 0)"/>
     <use xlink:href="#DejaVuSans-Bold-41" transform="translate(954.785156 0)"/>
     <use xlink:href="#DejaVuSans-Bold-6c" transform="translate(1032.177734 0)"/>
     <use xlink:href="#DejaVuSans-Bold-65" transform="translate(1066.455078 0)"/>
     <use xlink:href="#DejaVuSans-Bold-72" transform="translate(1134.277344 0)"/>
     <use xlink:href="#DejaVuSans-Bold-74" transform="translate(1183.59375 0)"/>
    </g>
   </g>
   <g id="text_23">
    <!-- Notify Event Organizer -->
    <g style="fill: #0f172a" transform="translate(202.510672 1070.121877) scale(0.11 -0.11)">
     <defs>
      <path id="DejaVuSans-Bold-7a" d="M 366 3500 
L 3419 3500 
L 3419 2719 
L 1575 800 
L 3419 800 
L 3419 0 
L 288 0 
L 288 781 
L 2131 2700 
L 366 2700 
L 366 3500 
z
" transform="scale(0.015625)"/>
     </defs>
     <use xlink:href="#DejaVuSans-Bold-4e"/>
     <use xlink:href="#DejaVuSans-Bold-6f" transform="translate(83.691406 0)"/>
     <use xlink:href="#DejaVuSans-Bold-74" transform="translate(152.392578 0)"/>
     <use xlink:href="#DejaVuSans-Bold-69" transform="translate(200.195312 0)"/>
     <use xlink:href="#DejaVuSans-Bold-66" transform="translate(234.472656 0)"/>
     <use xlink:href="#DejaVuSans-Bold-79" transform="translate(277.978516 0)"/>
     <use xlink:href="#DejaVuSans-Bold-20" transform="translate(343.164062 0)"/>
     <use xlink:href="#DejaVuSans-Bold-45" transform="translate(377.978516 0)"/>
     <use xlink:href="#DejaVuSans-Bold-76" transform="translate(446.289062 0)"/>
     <use xlink:href="#DejaVuSans-Bold-65" transform="translate(511.474609 0)"/>
     <use xlink:href="#DejaVuSans-Bold-6e" transform="translate(579.296875 0)"/>
     <use xlink:href="#DejaVuSans-Bold-74" transform="translate(650.488281 0)"/>
     <use xlink:href="#DejaVuSans-Bold-20" transform="translate(698.291016 0)"/>
     <use xlink:href="#DejaVuSans-Bold-4f" transform="translate(733.105469 0)"/>
     <use xlink:href="#DejaVuSans-Bold-72" transform="translate(818.115234 0)"/>
     <use xlink:href="#DejaVuSans-Bold-67" transform="translate(867.431641 0)"/>
     <use xlink:href="#DejaVuSans-Bold-61" transform="translate(939.013672 0)"/>
     <use xlink:href="#DejaVuSans-Bold-6e" transform="translate(1006.494141 0)"/>
     <use xlink:href="#DejaVuSans-Bold-69" transform="translate(1077.685547 0)"/>
     <use xlink:href="#DejaVuSans-Bold-7a" transform="translate(1111.962891 0)"/>
     <use xlink:href="#DejaVuSans-Bold-65" transform="translate(1170.166016 0)"/>
     <use xlink:href="#DejaVuSans-Bold-72" transform="translate(1237.988281 0)"/>
    </g>
   </g>
   <g id="text_24">
    <!-- END -->
    <g style="fill: #ffffff" transform="translate(259.798602 1154.912141) scale(0.115 -0.115)">
     <use xlink:href="#DejaVuSans-Bold-45"/>
     <use xlink:href="#DejaVuSans-Bold-4e" transform="translate(68.310547 0)"/>
     <use xlink:href="#DejaVuSans-Bold-44" transform="translate(152.001953 0)"/>
    </g>
   </g>
   <g id="patch_38">
    <path d="M 393.8688 384.211399 
Q 428.976 384.211399 461.847132 384.211399 
" style="fill: none; stroke: #2563eb; stroke-width: 2; stroke-linecap: round"/>
    <path d="M 456.247132 381.411399 
L 461.847132 384.211399 
L 456.247132 387.011399 
z
" style="fill: #2563eb; stroke: #2563eb; stroke-width: 2; stroke-linecap: round"/>
   </g>
   <g id="patch_39">
    <path d="M 564.768 401.737617 
Q 564.768 425.91171 564.768 447.849735 
" style="fill: none; stroke: #2563eb; stroke-width: 2; stroke-linecap: round"/>
    <path d="M 567.568 442.249735 
L 564.768 447.849735 
L 561.968 442.249735 
z
" style="fill: #2563eb; stroke: #2563eb; stroke-width: 2; stroke-linecap: round"/>
   </g>
   <g id="patch_40">
    <path d="M 564.768 486.346943 
Q 564.768 508.405803 564.768 528.228595 
" style="fill: none; stroke: #2563eb; stroke-width: 2; stroke-linecap: round"/>
    <path d="M 567.568 522.628595 
L 564.768 528.228595 
L 561.968 522.628595 
z
" style="fill: #2563eb; stroke: #2563eb; stroke-width: 2; stroke-linecap: round"/>
   </g>
   <g id="patch_41">
    <path d="M 273.312 424.703005 
Q 273.312 449.481451 273.312 472.023828 
" style="fill: none; stroke: #2563eb; stroke-width: 2; stroke-linecap: round"/>
    <path d="M 276.112 466.423828 
L 273.312 472.023828 
L 270.512 466.423828 
z
" style="fill: #2563eb; stroke: #2563eb; stroke-width: 2; stroke-linecap: round"/>
   </g>
   <g id="patch_42">
    <path d="M 273.312 153.348808 
Q 273.312 171.781554 273.312 187.978233 
" style="fill: none; stroke: #2563eb; stroke-width: 2; stroke-linecap: round"/>
    <path d="M 276.112 182.378233 
L 273.312 187.978233 
L 270.512 182.378233 
z
" style="fill: #2563eb; stroke: #2563eb; stroke-width: 2; stroke-linecap: round"/>
   </g>
   <g id="patch_43">
    <path d="M 273.312 226.47544 
Q 273.312 244.60601 273.312 260.500512 
" style="fill: none; stroke: #2563eb; stroke-width: 2; stroke-linecap: round"/>
    <path d="M 276.112 254.900512 
L 273.312 260.500512 
L 270.512 254.900512 
z
" style="fill: #2563eb; stroke: #2563eb; stroke-width: 2; stroke-linecap: round"/>
   </g>
   <g id="patch_44">
    <path d="M 273.312 298.99772 
Q 273.312 321.358756 273.312 341.483725 
" style="fill: none; stroke: #2563eb; stroke-width: 2; stroke-linecap: round"/>
    <path d="M 276.112 335.883725 
L 273.312 341.483725 
L 270.512 335.883725 
z
" style="fill: #2563eb; stroke: #2563eb; stroke-width: 2; stroke-linecap: round"/>
   </g>
   <g id="patch_45">
    <path d="M 273.312 510.521036 
Q 273.312 528.651606 273.312 544.546108 
" style="fill: none; stroke: #2563eb; stroke-width: 2; stroke-linecap: round"/>
    <path d="M 276.112 538.946108 
L 273.312 544.546108 
L 270.512 538.946108 
z
" style="fill: #2563eb; stroke: #2563eb; stroke-width: 2; stroke-linecap: round"/>
   </g>
   <g id="patch_46">
    <path d="M 273.312 583.043316 
Q 273.312 601.173886 273.312 617.068388 
" style="fill: none; stroke: #2563eb; stroke-width: 2; stroke-linecap: round"/>
    <path d="M 276.112 611.468388 
L 273.312 617.068388 
L 270.512 611.468388 
z
" style="fill: #2563eb; stroke: #2563eb; stroke-width: 2; stroke-linecap: round"/>
   </g>
   <g id="patch_47">
    <path d="M 273.312 655.565596 
Q 273.312 673.696166 273.312 689.590668 
" style="fill: none; stroke: #2563eb; stroke-width: 2; stroke-linecap: round"/>
    <path d="M 276.112 683.990668 
L 273.312 689.590668 
L 270.512 683.990668 
z
" style="fill: #2563eb; stroke: #2563eb; stroke-width: 2; stroke-linecap: round"/>
   </g>
   <g id="patch_48">
    <path d="M 273.312 728.087876 
Q 273.312 746.218446 273.312 762.112948 
" style="fill: none; stroke: #2563eb; stroke-width: 2; stroke-linecap: round"/>
    <path d="M 276.112 756.512948 
L 273.312 762.112948 
L 270.512 756.512948 
z
" style="fill: #2563eb; stroke: #2563eb; stroke-width: 2; stroke-linecap: round"/>
   </g>
   <g id="patch_49">
    <path d="M 273.312 800.610155 
Q 273.312 822.971192 273.312 843.09616 
" style="fill: none; stroke: #2563eb; stroke-width: 2; stroke-linecap: round"/>
    <path d="M 276.112 837.49616 
L 273.312 843.09616 
L 270.512 837.49616 
z
" style="fill: #2563eb; stroke: #2563eb; stroke-width: 2; stroke-linecap: round"/>
   </g>
   <g id="patch_50">
    <path d="M 393.8688 885.823834 
Q 428.976 885.823834 461.847132 885.823834 
" style="fill: none; stroke: #2563eb; stroke-width: 2; stroke-linecap: round"/>
    <path d="M 456.247132 883.023834 
L 461.847132 885.823834 
L 456.247132 888.623834 
z
" style="fill: #2563eb; stroke: #2563eb; stroke-width: 2; stroke-linecap: round"/>
   </g>
   <g id="patch_51">
    <path d="M 564.768 903.350052 
Q 564.768 928.430674 564.768 951.275227 
" style="fill: none; stroke: #2563eb; stroke-width: 2; stroke-linecap: round"/>
    <path d="M 567.568 945.675227 
L 564.768 951.275227 
L 561.968 945.675227 
z
" style="fill: #2563eb; stroke: #2563eb; stroke-width: 2; stroke-linecap: round"/>
   </g>
   <g id="patch_52">
    <path d="M 273.312 926.31544 
Q 273.312 951.093886 273.312 973.636264 
" style="fill: none; stroke: #2563eb; stroke-width: 2; stroke-linecap: round"/>
    <path d="M 276.112 968.036264 
L 273.312 973.636264 
L 270.512 968.036264 
z
" style="fill: #2563eb; stroke: #2563eb; stroke-width: 2; stroke-linecap: round"/>
   </g>
   <g id="patch_53">
    <path d="M 273.312 1012.133472 
Q 273.312 1030.264041 273.312 1046.158543 
" style="fill: none; stroke: #2563eb; stroke-width: 2; stroke-linecap: round"/>
    <path d="M 276.112 1040.558543 
L 273.312 1046.158543 
L 270.512 1040.558543 
z
" style="fill: #2563eb; stroke: #2563eb; stroke-width: 2; stroke-linecap: round"/>
   </g>
   <g id="patch_54">
    <path d="M 273.312 1084.655751 
Q 273.312 1109.132021 273.312 1131.372222 
" style="fill: none; stroke: #2563eb; stroke-width: 2; stroke-linecap: round"/>
    <path d="M 276.112 1125.772222 
L 273.312 1131.372222 
L 270.512 1125.772222 
z
" style="fill: #2563eb; stroke: #2563eb; stroke-width: 2; stroke-linecap: round"/>
   </g>
  </g>
 </g>
 <defs>
  <clipPath id="p4269126d7b">
   <rect x="21.6" y="21.6" width="662.4" height="1166.4"/>
  </clipPath>
 </defs>
</svg>
